<svg xmlns="http://www.w3.org/2000/svg" version="1" viewBox="0 0 551 551"><linearGradient id="a" x1="276" x2="276" y1="5" y2="550" gradientTransform="matrix(1 0 0 -1 0 554)" gradientUnits="userSpaceOnUse"><stop offset="0" stop-color="#e09b3d"/><stop offset="0" stop-color="#c74c4d"/><stop offset="1" stop-color="#c21975"/><stop offset="1" stop-color="#7024c4"/></linearGradient><path fill="url(#a)" d="M387 0H164C74 0 0 74 0 164v223c0 90 74 164 164 164h223c90 0 164-74 164-164V164C551 74 477 0 387 0zm109 387c0 60-49 109-109 109H164c-60 0-109-49-109-109V164c0-60 49-109 109-109h223c60 0 109 49 109 109v223z"/><linearGradient id="b" x1="276" x2="276" y1="5" y2="550" gradientTransform="matrix(1 0 0 -1 0 554)" gradientUnits="userSpaceOnUse"><stop offset="0" stop-color="#e09b3d"/><stop offset="0" stop-color="#c74c4d"/><stop offset="1" stop-color="#c21975"/><stop offset="1" stop-color="#7024c4"/></linearGradient><path fill="url(#b)" d="M276 133a143 143 0 1 0 0 285 143 143 0 0 0 0-285zm0 230a87 87 0 1 1 0-175 87 87 0 0 1 0 175z"/><linearGradient id="c" x1="418" x2="418" y1="5" y2="550" gradientTransform="matrix(1 0 0 -1 0 554)" gradientUnits="userSpaceOnUse"><stop offset="0" stop-color="#e09b3d"/><stop offset="0" stop-color="#c74c4d"/><stop offset="1" stop-color="#c21975"/><stop offset="1" stop-color="#7024c4"/></linearGradient><circle cx="418" cy="134" r="34" fill="url(#c)"/></svg>