<svg id="Layer_1" data-name="Layer 1" xmlns="http://www.w3.org/2000/svg" viewBox="0 0 516.11 92.84"><defs><style>.cls-1{fill:#638932;}.cls-2{fill:#fb6600;}.cls-3{fill:#412bd5;}.cls-4{fill:#63496c;}.cls-5{fill:#3aa3d3;}</style></defs><title>bal_rachana</title><path class="cls-1" d="M55,279.22h76.53c2.66,0,4.66.58,6,1.76a5.62,5.62,0,0,1,2,4.4,6.1,6.1,0,0,1-2.05,4.58,8.34,8.34,0,0,1-5.93,1.93H117.08q-.58,9.51-4.93,31.81Q105.7,357,97.48,357A3.86,3.86,0,0,1,94,355a8.12,8.12,0,0,1-1.23-4.34c0-1.57.07-3.31.23-5.23s.24-3,.24-3.34a45,45,0,0,1-24.18,6.92q-17.37,0-17.37-17.84a36.84,36.84,0,0,1,3.75-15.73,37.83,37.83,0,0,1,10.45-13.43,22.25,22.25,0,0,1,14.32-5.46q7.62,0,12.62,7a39.74,39.74,0,0,1,6.63,16.61q.93-4.23,2.23-14a136.08,136.08,0,0,1,2.34-14.32H55c-2.66,0-4.67-.6-6-1.82a6,6,0,0,1-2.06-4.75Q46.89,279.22,55,279.22Zm10.8,51.41q0,6.11,4.81,6.1a33.16,33.16,0,0,0,12-2.35,127.18,127.18,0,0,1-14.21-13.5A23.57,23.57,0,0,0,65.79,330.63Zm12.79-21q-1.76,0-4.1,2.11a183.73,183.73,0,0,0,16.43,18.78l.59-.35A51.24,51.24,0,0,0,86,315.54Q82.45,309.61,78.58,309.62Z" transform="translate(-46.89 -279.22)"/><path class="cls-1" d="M125.65,279.22h41.2c2.66,0,4.65.58,6,1.76a5.65,5.65,0,0,1,2,4.4,6.14,6.14,0,0,1-2.05,4.58,8.34,8.34,0,0,1-5.93,1.93H153.59A163.47,163.47,0,0,1,150.06,312q-2.81,12.45-4.28,19.25t-2.29,10.39c-.55,2.39-1.17,5-1.88,7.81q-2.12,7.86-4.57,7.86-2.11,0-5.46-3.58c-2.23-2.39-3.35-4.75-3.35-7.1a28.65,28.65,0,0,1,.94-4.93q3.53-15.84,4.11-20.66,1.29-9.27,4.34-29.11h-12c-2.66,0-4.68-.6-6-1.82a6,6,0,0,1-2.06-4.75Q117.55,279.22,125.65,279.22Z" transform="translate(-46.89 -279.22)"/><path class="cls-2" d="M194.08,330l.82-8.8q0-6.81-3.64-6.81-6.45,0-11.5,5.87a20.22,20.22,0,0,0-5,13.61,13.26,13.26,0,0,0,1.88,7.28c1.25,2,2.64,2.93,4.17,2.93A6.9,6.9,0,0,0,185,342.6a6.76,6.76,0,0,1,4.17-1.53,4.51,4.51,0,0,1,3.58,1.65,7,7,0,0,1,1.41,4.69c0,2-1.22,4-3.64,5.93a13.75,13.75,0,0,1-8.81,2.87q-9.62,0-15.08-7.33a28.18,28.18,0,0,1-5.46-17.31,33.59,33.59,0,0,1,8.16-22.72q8.16-9.45,21.19-9.45A13.43,13.43,0,0,1,201.18,304a18.83,18.83,0,0,1,4.52,11.44q2-1.87,7.34-6.74c3.55-3.25,6.59-6.09,9.09-8.51a40.64,40.64,0,0,0,6.46-8.1v-.24H164.5c-2.66,0-4.68-.6-6.05-1.82a6.06,6.06,0,0,1-2-4.75q0-6.1,8.1-6.1h93.55c2.66,0,4.65.58,6,1.76a5.62,5.62,0,0,1,2,4.4,6.14,6.14,0,0,1-2,4.58,8.34,8.34,0,0,1-5.93,1.93h-13.5A163.29,163.29,0,0,1,241,312.14q-2.88,12.62-4.11,19.13t-2.05,10.33c-.55,2.54-1.22,5.15-2,7.81q-2.12,7.86-5.75,7.86a6.4,6.4,0,0,1-4.69-2.17q-2.12-2.18-2.12-6.4,0-1.87,1.76-12.91,2.36-15.37,3.17-21.48c-.47.47-1.17,1.1-2.11,1.88s-1.62,1.39-2,1.82-1.41,1.33-2.94,2.7-2.74,2.44-3.64,3.23l-3.58,3.11q-2.22,1.93-3.81,3.11c-1.06.78-2.17,1.56-3.35,2.34q-3.28,2.47-5.16,2.47C195.56,335,194.08,333.33,194.08,330Z" transform="translate(-46.89 -279.22)"/><path class="cls-3" d="M288.11,279.22h68.08c2.66,0,4.65.58,6,1.76a5.62,5.62,0,0,1,2,4.4,6.11,6.11,0,0,1-2.06,4.58,8.31,8.31,0,0,1-5.92,1.93H341.63a24.64,24.64,0,0,1,1.65,9q0,12.21-11,23.24A44.72,44.72,0,0,1,307,337.43q2.58,3.52,3.81,5.29t3.93,5.51q2.7,3.76,4.58,6.34t3.87,5.52q4.11,6,4.11,7.86,0,4.11-4.93,4.11a6.32,6.32,0,0,1-4.16-2q-2.18-2-3.41-3.22c-.82-.83-1.92-2.08-3.28-3.76s-2.49-3-3.35-4.05q-18.9-23.36-21.71-29.34a8.65,8.65,0,0,1-1.06-4.35,10,10,0,0,1,1.06-4.57c.7-1.41,1.58-2.12,2.64-2.12s3.09.87,6.1,2.59,5.11,2.58,6.28,2.58q8.92,0,18-7.51t9-16.44a5.17,5.17,0,0,0-1.24-3.46,4.12,4.12,0,0,0-3.34-1.47,7.21,7.21,0,0,0-6.69,4,10.19,10.19,0,0,0-.76,1.41,18.33,18.33,0,0,1-.94,1.71l-1,1.35a4.42,4.42,0,0,1-3.58,1.4q-2.42,0-6.52-3.28c-2.74-2.19-4.1-4.31-4.1-6.34a10.48,10.48,0,0,1,.58-3.29H288.11c-2.66,0-4.68-.6-6.05-1.82a6,6,0,0,1-2.05-4.75Q280,279.22,288.11,279.22Z" transform="translate(-46.89 -279.22)"/><path class="cls-4" d="M367.69,302.22l18-.23q6,0,9.21,2.4a7.29,7.29,0,0,1,3.23,6.05,2.45,2.45,0,0,1-1.76,2.58,54.15,54.15,0,0,0-12.68,7.57q-6,4.76-6,8.74a2,2,0,0,0,.58,1.71,4.58,4.58,0,0,0,2.35.41q11.14,0,19.25-10.21,8.68-11.16,11.5-29.35H353.49c-2.66,0-4.68-.6-6.05-1.82a6,6,0,0,1-2.05-4.75q0-6.1,8.1-6.1H440.7c2.66,0,4.65.58,6,1.76a5.62,5.62,0,0,1,2,4.4,6.11,6.11,0,0,1-2.06,4.58,8.31,8.31,0,0,1-5.92,1.93H427.32A163.47,163.47,0,0,1,423.79,312q-2.81,12.45-4.28,19.25t-2.29,10.39c-.55,2.39-1.17,5-1.88,7.81q-2.11,7.86-4.57,7.86-2.11,0-5.46-3.58c-2.23-2.39-3.35-4.75-3.35-7.1q0-.7,2.7-12.91-11.15,10.56-25.47,10.56-7,0-11-3.75a12.92,12.92,0,0,1-4-9.86q0-9.17,8.45-16.44-8.69.48-11.91.47c-2.16,0-4.52-1.46-7.11-4.4s-3.87-5.06-3.87-6.4q0-2.34,2.82-2.34c1.25,0,3.32.11,6.22.35S364.64,302.22,367.69,302.22Z" transform="translate(-46.89 -279.22)"/><path class="cls-5" d="M443.16,279.22H521.1c2.66,0,4.65.58,6,1.76a5.62,5.62,0,0,1,2,4.4A6.14,6.14,0,0,1,527,290a8.34,8.34,0,0,1-5.93,1.93H507.72a165.2,165.2,0,0,1-3.58,20.25q-2.88,12.62-4.11,19.13T498,341.6c-.54,2.54-1.17,5.15-1.87,7.81q-2.24,7.86-5.87,7.86a6.43,6.43,0,0,1-4.7-2.17q-2.11-2.18-2.11-6.4,0-1.87,1.64-12.91,2.94-18.32,3.29-20.89-4.23,1.17-14.2,2.81a24.45,24.45,0,0,1,1.17,8.46,29.9,29.9,0,0,1-3.64,15.14q-3.63,6.33-11.5,6.34t-16.32-9.28q-8.44-9.27-8.45-16.78a9,9,0,0,1,4.23-8.1,28.94,28.94,0,0,1,9.57-4.34q4.64-1.06,7.21-1.59t7.4-1.35c3.21-.54,6-1,8.33-1.52s8.49-2,18.43-4.58l1.17-8.22H443.16c-2.66,0-4.68-.6-6-1.82a6,6,0,0,1-2.06-4.75Q435.06,279.22,443.16,279.22Zm19.25,48c0-.54-.2-3.05-.59-7.51q-10.9,2-10.91,4.58c0,1.72,1,3.77,3,6.16s3.83,3.58,5.4,3.58Q462.41,334,462.41,327.22Z" transform="translate(-46.89 -279.22)"/><path class="cls-5" d="M513.82,279.22H555c2.66,0,4.65.58,6,1.76a5.62,5.62,0,0,1,2,4.4,6.14,6.14,0,0,1-2,4.58,8.34,8.34,0,0,1-5.93,1.93H541.76A163.47,163.47,0,0,1,538.23,312q-2.81,12.45-4.28,19.25t-2.29,10.39c-.55,2.39-1.17,5-1.88,7.81q-2.12,7.86-4.57,7.86-2.12,0-5.46-3.58c-2.23-2.39-3.35-4.75-3.35-7.1a28.82,28.82,0,0,1,.94-4.93q3.52-15.84,4.11-20.66,1.29-9.27,4.34-29.11h-12c-2.66,0-4.68-.6-6.05-1.82a6.06,6.06,0,0,1-2-4.75Q505.72,279.22,513.82,279.22Z" transform="translate(-46.89 -279.22)"/></svg>