<svg xmlns="http://www.w3.org/2000/svg" viewBox="0 0 516 93"><defs><style>.c{fill:#959a2c}</style></defs><path d="M8 0h77l6 2a6 6 0 0 1 2 4 6 6 0 0 1-2 5 8 8 0 0 1-6 2H70q0 9-5 31-6 34-14 34a4 4 0 0 1-4-2 8 8 0 0 1-1-5v-5-3a45 45 0 0 1-24 7Q5 70 5 52a37 37 0 0 1 4-16 38 38 0 0 1 10-13 22 22 0 0 1 14-6q8 0 13 7a40 40 0 0 1 7 17l2-14a136 136 0 0 1 2-14H8l-6-2a6 6 0 0 1-2-5q0-6 8-6zm11 51c0 4 2 7 5 7a33 33 0 0 0 12-3 127 127 0 0 1-14-13 24 24 0 0 0-3 9zm13-21q-2 0-4 3a182 182 0 0 0 16 18h1a51 51 0 0 0-6-15q-3-6-7-6z" class="c"/><path d="M79 0h41l6 2a6 6 0 0 1 2 4 6 6 0 0 1-2 5 8 8 0 0 1-6 2h-13a165 165 0 0 1-4 20l-4 19-2 10-2 8q-2 8-5 8-2 0-5-3c-3-3-4-5-4-8a28 28 0 0 1 1-5l4-20 5-29H79l-6-2a6 6 0 0 1-2-5q0-6 8-6z" class="c"/><path d="M147 51l1-9q0-7-4-7-6 0-11 6a20 20 0 0 0-5 14 13 13 0 0 0 2 7c1 2 2 3 4 3a7 7 0 0 0 4-2 7 7 0 0 1 4-1 5 5 0 0 1 4 2 7 7 0 0 1 1 4l-3 6a14 14 0 0 1-9 3q-10 0-15-7a28 28 0 0 1-6-18 34 34 0 0 1 8-22q9-10 22-10a13 13 0 0 1 10 5 19 19 0 0 1 5 11l7-7 9-8a41 41 0 0 0 7-8h-64l-6-2a6 6 0 0 1-2-5q0-6 8-6h93l6 2a6 6 0 0 1 2 4 6 6 0 0 1-2 5 8 8 0 0 1-6 2h-13a163 163 0 0 1-4 20l-4 19-2 10-2 8q-2 8-6 8a6 6 0 0 1-4-2c-2-2-3-4-3-7l2-12 3-22-2 2a20 20 0 0 0-2 2l-3 2-3 4-4 3a66 66 0 0 1-7 5q-3 3-5 3c-3 0-5-2-5-5zM241 0h68l6 2a6 6 0 0 1 2 4 6 6 0 0 1-2 5 8 8 0 0 1-6 2h-14a25 25 0 0 1 1 9q0 12-11 23a45 45 0 0 1-25 13l4 5 4 6 4 6 4 6 4 8q0 4-5 4a6 6 0 0 1-4-2 132 132 0 0 1-10-11q-19-24-21-29a9 9 0 0 1-1-5 10 10 0 0 1 1-4c0-2 1-3 2-3l6 3 7 3q9 0 18-8t9-16a5 5 0 0 0-2-4 4 4 0 0 0-3-1 7 7 0 0 0-7 4 11 11 0 0 0 0 1 18 18 0 0 1-1 2l-1 1a4 4 0 0 1-4 2c-2 0-4-2-6-4s-5-4-5-6a11 11 0 0 1 1-3h-13l-6-2a6 6 0 0 1-2-5q0-6 8-6z" class="c"/><path d="M321 23h18q6 0 9 2a7 7 0 0 1 3 6 2 2 0 0 1-2 3 54 54 0 0 0-12 7q-6 5-6 9a2 2 0 0 0 0 2 5 5 0 0 0 3 0q11 0 19-10 9-11 12-29h-58l-6-2a6 6 0 0 1-2-5q0-6 8-6h87l6 2a6 6 0 0 1 2 4 6 6 0 0 1-2 5 8 8 0 0 1-6 2h-14a165 165 0 0 1-3 20l-4 19q-1 7-3 10l-2 8q-2 8-4 8t-6-4c-2-2-3-4-3-7l3-13q-11 11-26 11-7 0-11-4a13 13 0 0 1-4-10q0-9 9-16h-12c-2 0-5-1-7-4l-4-6q0-3 3-3l6 1h9z" class="c"/><path d="M396 0h78l6 2a6 6 0 0 1 2 4 6 6 0 0 1-2 5 8 8 0 0 1-6 2h-13a165 165 0 0 1-4 20l-4 19-2 10-2 8q-2 8-6 8a6 6 0 0 1-4-2c-2-2-2-4-2-6l1-13 4-21-15 3a25 25 0 0 1 1 8 30 30 0 0 1-3 15q-4 6-12 6t-16-9q-8-9-8-17a9 9 0 0 1 4-8 29 29 0 0 1 9-4l8-2 7-1 8-2 19-4 1-8h-49l-6-2a6 6 0 0 1-2-5q0-6 8-6zm20 48l-1-8q-11 2-11 5t3 6c2 3 4 4 5 4q4 0 4-7z" class="c"/><path d="M467 0h41l6 2a6 6 0 0 1 2 4 6 6 0 0 1-2 5 8 8 0 0 1-6 2h-13a165 165 0 0 1-4 20l-4 19-2 10-2 8q-2 8-5 8-2 0-5-3c-2-3-3-5-3-8a28 28 0 0 1 0-5l5-20 4-29h-12l-6-2a6 6 0 0 1-2-5q0-6 8-6z" class="c"/></svg>