<svg id="Layer_1" data-name="Layer 1" xmlns="http://www.w3.org/2000/svg" viewBox="0 0 516.06 92.88">
  <defs>
    <style>
      .cls-1 {
        fill: #959a2c;
      }
    </style>
  </defs>
  <title>bal_rachana_singlecolor</title>
  <path class="cls-1" d="M8.11,0H84.64c2.66,0,4.66.58,6,1.76a5.61,5.61,0,0,1,2,4.4,6.08,6.08,0,0,1-2,4.58,8.31,8.31,0,0,1-5.93,1.93H70.19q-.59,9.51-4.93,31.81-6.45,33.3-14.67,33.3a3.86,3.86,0,0,1-3.48-2,8.12,8.12,0,0,1-1.23-4.34c0-1.57.07-3.31.23-5.23s.24-3,.24-3.34a45,45,0,0,1-24.18,6.92Q4.8,69.79,4.8,52A36.82,36.82,0,0,1,8.55,36.22,37.8,37.8,0,0,1,19,22.79a22.26,22.26,0,0,1,14.32-5.46q7.62,0,12.62,7a39.78,39.78,0,0,1,6.63,16.61q.93-4.23,2.23-14a136,136,0,0,1,2.34-14.32h-49c-2.66,0-4.67-.6-6-1.82A6,6,0,0,1,.05,6.05Q0,0,8.11,0Zm10.8,51.41c0,4.07,1.6,6.11,4.81,6.1a33.12,33.12,0,0,0,12-2.35,126.81,126.81,0,0,1-14.21-13.5,23.68,23.68,0,0,0-2.61,9.75Zm12.79-21q-1.75,0-4.1,2.11A182.1,182.1,0,0,0,44,51.3l.59-.35a51.48,51.48,0,0,0-5.51-14.63q-3.55-5.93-7.42-5.92Z" transform="translate(-0.05 0.04)"/>
  <path class="cls-1" d="M78.76,0H120c2.66,0,4.65.58,6,1.76a5.64,5.64,0,0,1,2,4.4,6.16,6.16,0,0,1-2,4.58A8.31,8.31,0,0,1,120,12.67H106.7a164.91,164.91,0,0,1-3.53,20.11Q100.37,45.23,98.89,52T96.6,62.42c-.55,2.39-1.17,5-1.88,7.81q-2.11,7.86-4.57,7.86-2.12,0-5.46-3.58c-2.23-2.39-3.35-4.75-3.35-7.1a28.41,28.41,0,0,1,.94-4.93q3.52-15.84,4.11-20.66,1.29-9.27,4.34-29.11h-12c-2.66,0-4.68-.6-6-1.82a6,6,0,0,1-2.06-4.75Q70.66,0,78.76,0Z" transform="translate(-0.05 0.04)"/>
  <path class="cls-1" d="M147.19,50.78,148,42q0-6.81-3.64-6.81-6.45,0-11.5,5.87a20.24,20.24,0,0,0-5,13.61,13.2,13.2,0,0,0,1.88,7.28c1.25,2,2.64,2.93,4.17,2.93a6.94,6.94,0,0,0,4.19-1.48,6.77,6.77,0,0,1,4.17-1.53,4.51,4.51,0,0,1,3.58,1.65,7,7,0,0,1,1.41,4.69c0,2-1.22,4-3.64,5.93A13.75,13.75,0,0,1,134.82,77q-9.61,0-15.08-7.33a28.18,28.18,0,0,1-5.46-17.31,33.6,33.6,0,0,1,8.16-22.72q8.16-9.45,21.19-9.45a13.42,13.42,0,0,1,10.66,4.6,18.84,18.84,0,0,1,4.52,11.44q2-1.87,7.34-6.74c3.55-3.25,6.59-6.09,9.09-8.51a40.72,40.72,0,0,0,6.46-8.1v-.24H117.61c-2.66,0-4.68-.6-6-1.82a6.08,6.08,0,0,1-2-4.75q0-6.1,8.1-6.1h93.55c2.66,0,4.65.58,6,1.76a5.61,5.61,0,0,1,2,4.4,6.13,6.13,0,0,1-2,4.58,8.31,8.31,0,0,1-5.93,1.93h-13.5a162.5,162.5,0,0,1-3.67,20.29Q191.23,45.54,190,52.05T188,62.38c-.55,2.54-1.22,5.15-2,7.81q-2.12,7.86-5.75,7.86a6.39,6.39,0,0,1-4.69-2.17c-1.41-1.45-2.12-3.59-2.12-6.4q0-1.87,1.76-12.91,2.35-15.37,3.17-21.48c-.47.47-1.17,1.1-2.11,1.88a20,20,0,0,0-2,1.82c-.38.43-1.41,1.33-2.94,2.7s-2.74,2.44-3.64,3.23l-3.58,3.11c-1.48,1.29-2.75,2.32-3.81,3.11s-2.17,1.56-3.35,2.34q-3.28,2.47-5.16,2.47C148.67,55.78,147.19,54.11,147.19,50.78Z" transform="translate(-0.05 0.04)"/>
  <path class="cls-1" d="M241.22,0H309.3c2.66,0,4.65.58,6,1.76a5.61,5.61,0,0,1,2,4.4,6.12,6.12,0,0,1-2.06,4.58,8.29,8.29,0,0,1-5.92,1.93H294.74a24.5,24.5,0,0,1,1.65,9q0,12.21-11,23.24a44.73,44.73,0,0,1-25.28,13.3q2.58,3.52,3.81,5.29T267.85,69q2.7,3.76,4.58,6.34t3.87,5.52q4.11,6,4.11,7.86,0,4.11-4.93,4.11a6.3,6.3,0,0,1-4.16-2c-1.45-1.33-2.59-2.41-3.41-3.22s-1.92-2.08-3.28-3.76-2.49-3-3.35-4q-18.9-23.36-21.71-29.34a8.68,8.68,0,0,1-1.06-4.35,10.06,10.06,0,0,1,1.06-4.57c.7-1.41,1.58-2.12,2.64-2.12s3.09.87,6.1,2.59,5.11,2.58,6.28,2.58q8.93,0,18-7.51t9-16.44a5.2,5.2,0,0,0-1.24-3.46A4.12,4.12,0,0,0,277,15.72a7.2,7.2,0,0,0-6.69,4,10.63,10.63,0,0,0-.76,1.41,17.68,17.68,0,0,1-.94,1.71l-1,1.35a4.44,4.44,0,0,1-3.58,1.4c-1.61,0-3.79-1.09-6.52-3.28s-4.1-4.31-4.1-6.34a10.54,10.54,0,0,1,.58-3.29H241.22c-2.66,0-4.68-.6-6.05-1.82a6,6,0,0,1-2-4.75Q233.11,0,241.22,0Z" transform="translate(-0.05 0.04)"/>
  <path class="cls-1" d="M320.8,23l18-.23q6,0,9.21,2.4a7.27,7.27,0,0,1,3.23,6,2.45,2.45,0,0,1-1.76,2.58,54.11,54.11,0,0,0-12.68,7.57q-6,4.76-6,8.74a2,2,0,0,0,.58,1.71,4.62,4.62,0,0,0,2.35.41Q344.88,52.23,353,42q8.68-11.16,11.5-29.35H306.6c-2.66,0-4.68-.6-6.05-1.82A6,6,0,0,1,298.5,6.1q0-6.1,8.1-6.1h87.21c2.66,0,4.65.58,6,1.76a5.61,5.61,0,0,1,2,4.4,6.12,6.12,0,0,1-2.06,4.58,8.29,8.29,0,0,1-5.92,1.93h-13.4a164.91,164.91,0,0,1-3.53,20.11Q374.1,45.23,372.62,52t-2.29,10.39c-.55,2.39-1.17,5-1.88,7.81q-2.11,7.86-4.57,7.86-2.11,0-5.46-3.58c-2.23-2.39-3.35-4.75-3.35-7.1q0-.7,2.7-12.91Q346.63,65.06,332.3,65.06q-7,0-11-3.75a12.93,12.93,0,0,1-4-9.86q0-9.16,8.45-16.44-8.69.48-11.91.47c-2.16,0-4.52-1.46-7.11-4.4s-3.87-5.06-3.87-6.4q0-2.34,2.82-2.34c1.25,0,3.32.11,6.22.35S317.75,23,320.8,23Z" transform="translate(-0.05 0.04)"/>
  <path class="cls-1" d="M396.27,0h77.94c2.66,0,4.65.58,6,1.76a5.61,5.61,0,0,1,2,4.4,6.16,6.16,0,0,1-2.1,4.62,8.31,8.31,0,0,1-5.93,1.93H460.83A165.36,165.36,0,0,1,457.25,33q-2.88,12.61-4.11,19.13t-2,10.29c-.54,2.54-1.17,5.15-1.87,7.81q-2.24,7.86-5.87,7.86a6.42,6.42,0,0,1-4.7-2.17c-1.41-1.45-2.11-3.59-2.11-6.4q0-1.87,1.64-12.91,2.94-18.32,3.29-20.89-4.23,1.17-14.2,2.81A24.5,24.5,0,0,1,428.46,47a29.85,29.85,0,0,1-3.64,15.14q-3.63,6.33-11.5,6.34T397,59.15q-8.44-9.27-8.45-16.78a9,9,0,0,1,4.23-8.1,28.9,28.9,0,0,1,9.57-4.34c3.09-.71,5.5-1.24,7.21-1.59s4.18-.8,7.4-1.35,6-1,8.33-1.52,8.49-2,18.43-4.58l1.17-8.22H396.27c-2.66,0-4.68-.6-6-1.82a6,6,0,0,1-2.06-4.75Q388.17,0,396.27,0Zm19.25,48c0-.54-.2-3-.59-7.51q-10.9,2-10.91,4.58t3,6.16c2,2.39,3.83,3.58,5.4,3.58Q415.53,54.78,415.52,48Z" transform="translate(-0.05 0.04)"/>
  <path class="cls-1" d="M466.93,0h41.18c2.66,0,4.65.58,6,1.76a5.61,5.61,0,0,1,2,4.4,6.13,6.13,0,0,1-2,4.58,8.31,8.31,0,0,1-5.93,1.93H494.87a164.91,164.91,0,0,1-3.53,20.11q-2.8,12.45-4.28,19.25t-2.29,10.39c-.55,2.39-1.17,5-1.88,7.81q-2.11,7.86-4.57,7.86-2.11,0-5.46-3.58c-2.23-2.39-3.35-4.75-3.35-7.1a28.41,28.41,0,0,1,.94-4.93q3.53-15.84,4.11-20.66,1.29-9.27,4.34-29.11h-12c-2.66,0-4.68-.6-6-1.82a6.08,6.08,0,0,1-2-4.75Q458.83,0,466.93,0Z" transform="translate(-0.05 0.04)"/>
</svg>
