<svg xmlns="http://www.w3.org/2000/svg" viewBox="0 0 1884 491"><defs><style>.c{fill:#df7626}.d{fill:#841c20}</style></defs><path d="M199 391a22 22 0 0 1 0 3 32 32 0 0 0 0 4v-7 23a35 35 0 0 1 0-8 18 18 0 0 0-2-8c-3 5-4 10-3 16a125 125 0 0 1 3 15 16 16 0 0 0-2 8l-2 8c-2 0-4-1-4-3a10 10 0 0 1 0-4l1-5a3 3 0 0 0-2-4 15 15 0 0 0-2 4l-2 5a13 13 0 0 1-1 4 4 4 0 0 1-4 2 29 29 0 0 0 3-9v-12a9 9 0 0 0 0-3c-3 2-4 4-2 6s2 3 1 5a51 51 0 0 0-5 10c0-2 0-2-2-2a5 5 0 0 0-1 2 6 6 0 0 1-1 3l-2-2-1 6-1-1a3 3 0 0 0-2-1 17 17 0 0 0-1-7 56 56 0 0 1-3-7 4 4 0 0 0-1 2 7 7 0 0 1-2 1 2 2 0 0 1-1 0h-1-1l-2 3-2 4-3-35-3-34a505 505 0 0 0-13-77 4 4 0 0 0-1-2 78 78 0 0 0 3 19 121 121 0 0 1 5 21l3 26 3 29 2 25 1 11v11a2 2 0 0 0-2 1 7 7 0 0 1-1 2c-2-6-2-13-3-19a135 135 0 0 0-4-20c-2 2-2 4-1 6a10 10 0 0 1 2 6 70 70 0 0 1-2-12l-2-17-1-19v-17a37 37 0 0 0 1 8l1-2a13 13 0 0 1 0-3 42 42 0 0 0-1-6l-2-9-2-12-2-12-1 4v5l-4-16-6-16 7 16 1-1v-2a20 20 0 0 0-2-6 55 55 0 0 0-9-15l-4-4a21 21 0 0 0-7 2 42 42 0 0 0-9 6 62 62 0 0 0-9 8 28 28 0 0 0-6 9c0-3-1-3-2-2a28 28 0 0 1 5-10 44 44 0 0 1 9-9 59 59 0 0 1 11-6 29 29 0 0 1 10-2l6 3a43 43 0 0 1 5 8l3 7 3 5 1-2a98 98 0 0 1-6-13l-4-7a8 8 0 0 0-4-2 63 63 0 0 0-10-1c-4 0-8 1-12 4a77 77 0 0 0-11 11 68 68 0 0 0-9 12q-4 7-4 11l-2 12-4 19-3 22a167 167 0 0 0-1 19 5 5 0 0 0 0 3l2 2 2-26a227 227 0 0 1 4-27 161 161 0 0 0-4 34l-1 32a35 35 0 0 0 0-5 25 25 0 0 0-1-4 20 20 0 0 0-2 4 19 19 0 0 0 0 5 18 18 0 0 0 1 3l2 8 1 7a35 35 0 0 1 1 7 11 11 0 0 1-1 5 11 11 0 0 0-2 5v5c0 1 1 3 4 4a5 5 0 0 0 2-2 14 14 0 0 0 0-4h1a4 4 0 0 1 1 3 16 16 0 0 1-1 6c-1 2-2 3-4 3l-1-1v-1a26 26 0 0 0-3 5 26 26 0 0 1-4 6l-4-2a3 3 0 0 1 0-2 43 43 0 0 0-2-6c-1-2-2-2-3-2a9 9 0 0 0-5 1 26 26 0 0 0-4 3h-4a40 40 0 0 0 0-4 10 10 0 0 1 0-6 4 4 0 0 0-2-1l-3-1-3 4a11 11 0 0 0-1-4 13 13 0 0 0-1-3 5 5 0 0 0-1 2 15 15 0 0 1-1 3 29 29 0 0 0-1-6l-2-6-2-3a110 110 0 0 1-1-16v-15a5 5 0 0 0 1 3l1-2a9 9 0 0 1 0-2l-1-6a78 78 0 0 0-1-8 2 2 0 0 0-1-2 5 5 0 0 1-2-3l2-79a287 287 0 0 0 2 29l2 32v1l1-1-1-19-1-22-2-24-2-22-1-22a77 77 0 0 0-1 9v-4l-1-14v2a3 3 0 0 0 1 1 67 67 0 0 0-1-10v-10l1-2-3-4-3 3a57 57 0 0 0 4-5 24 24 0 0 0 3-5 8 8 0 0 1 4 4l4 3a7 7 0 0 0 4-1 29 29 0 0 0 3-2 1 1 0 0 0 0 2c0 1 0 2-2 2a6 6 0 0 1 0 2l2 1 2-1a2 2 0 0 1-1-2 16 16 0 0 1 4 10 41 41 0 0 0 2 11 51 51 0 0 0 3 6 16 16 0 0 1 1 7 20 20 0 0 1 1 7 59 59 0 0 0-1 8l1 1 1 2a87 87 0 0 1 8-12 60 60 0 0 1 10-11 2 2 0 0 0-2 0 8 8 0 0 1-2 1l5-5 9-6a89 89 0 0 1 10-5l7-3 1 1s-1 1 1 1l9-2 9-2 11 2 15 5 18 6 1-1-1-1a58 58 0 0 1 9 9 131 131 0 0 1 9 12 97 97 0 0 1 7 13 63 63 0 0 1 5 12l12 53a311 311 0 0 1 6 47 20 20 0 0 1 0 5c-2 1-2 3-2 5zM19 240a67 67 0 0 0 0-10 32 32 0 0 0-1-8 11 11 0 0 1-2-2l-2-1a57 57 0 0 1 3 11l2 10zm-2 134v-6h-1v6zm4-130v-3h-2v3zm0 179v-4h-2v4zm3 9v-43l-3 1 2 21 1 21zm-1-136a24 24 0 0 0 0-13 54 54 0 0 1-1-10l1 12v11zm31 93v-3h-2v3zm6 42a49 49 0 0 1-2-10 1 1 0 0 1-1 1 4 4 0 0 1-1-3 26 26 0 0 0 1 13 7 7 0 0 0 2 0 7 7 0 0 1 1-1zm-2-5h-2v-3h2zm12-136c-6 6-10 13-11 20a131 131 0 0 0-2 22 122 122 0 0 1 5-22l8-20zm57-24a17 17 0 0 0-6-7 14 14 0 0 0-7-2 17 17 0 0 0-4 1 28 28 0 0 0-6 1 30 30 0 0 0-5 3 6 6 0 0 0-2 2l9-2a52 52 0 0 1 8-1 18 18 0 0 1 6 2l7 3zm1 40v-2h-2v2zm1 5v-4h-2v3h2zm26 68a3341 3341 0 0 1-3-48 25 25 0 0 0-2 2 5 5 0 0 0-1 3 45 45 0 0 0 1 6 206 206 0 0 0 3 25l2 12zm3 53a13 13 0 0 1 1-6c1-2 0-5-2-7l1 7a26 26 0 0 1 0 6zm32-94a33 33 0 0 0-1-6 52 52 0 0 0-2-6l-1 6c1 3 2 5 4 6z" class="c" transform="translate(-9 -103)"/><path d="M229 355h-2v-11h2zm178 55a23 23 0 0 0-6 3 19 19 0 0 0-5 4 3 3 0 0 0 3 1l7-1-15 8-14 8 1 1a88 88 0 0 1-26 8 139 139 0 0 1-25 3h-9a58 58 0 0 1-20-4 117 117 0 0 1-22-11 119 119 0 0 1-18-14 61 61 0 0 1-13-16c-1 1-1 3 1 5a129 129 0 0 1-12-25 121 121 0 0 1-6-24 76 76 0 0 0 3 12 117 117 0 0 0 4 12 14 14 0 0 0 0-6 55 55 0 0 1-3-8l-1-9-1-10v-8l-1-5a133 133 0 0 1 3-23l4-23a179 179 0 0 1 5-22 78 78 0 0 1 10-21 74 74 0 0 1 23-21 120 120 0 0 1 26-13l-1 2a2 2 0 0 0 2 1c-5 0-10 2-16 6a103 103 0 0 0-17 13 114 114 0 0 0-15 17 62 62 0 0 0-9 18 240 240 0 0 0-10 64l1 18a89 89 0 0 0 3 20v-9l-1-10-1-8a28 28 0 0 1 0-4 237 237 0 0 1 2-32 182 182 0 0 1 8-34 122 122 0 0 1 15-30c6-9 14-15 23-19l15-6 11-4a64 64 0 0 1 9-2 79 79 0 0 1 9 0 36 36 0 0 1 13 3 97 97 0 0 1 15 7 76 76 0 0 1 13 11 38 38 0 0 1 9 12l4 13a40 40 0 0 1 3 13l-3 9c-2 4-2 6-1 9a69 69 0 0 0 3-10 33 33 0 0 0 2-9 53 53 0 0 0-6-23c-3-7-8-14-16-22 8 7 14 15 17 22a54 54 0 0 1 6 23c0 14-5 25-15 33s-23 16-37 21a45 45 0 0 0 4-2 12 12 0 0 0 5-3h-1l-40 14-4-2a13 13 0 0 0-3 0 20 20 0 0 0-9 2 35 35 0 0 0-6 3 13 13 0 0 0 7 2h-5l-1 1-1 2a67 67 0 0 0 2 10 113 113 0 0 0 4 14 39 39 0 0 0 10 15q7 6 13 6a43 43 0 0 0 7 1h6a177 177 0 0 0 21-1 104 104 0 0 0 19-5 62 62 0 0 0-13 5 10 10 0 0 0 4 1 40 40 0 0 1 5 0 12 12 0 0 0 3-2l7-3 6-4a14 14 0 0 1 4-1h1l2 1a19 19 0 0 0 6-2 53 53 0 0 1 8-2c-2 4-4 6-6 7a63 63 0 0 0-8 3v2l5-1a11 11 0 0 1 5-2 6 6 0 0 1 4 1 18 18 0 0 0 3 2l-9 2a34 34 0 0 0-8 3 12 12 0 0 0 5 0h15l-1 2v3a6 6 0 0 1 6-2l-6 5a32 32 0 0 1-8 6c3 2 4 3 3 5a4 4 0 0 0 3 1 18 18 0 0 0 8-1zm-169-26v-3h-3v3zm0 3v-3h-1v3zm5-5l-2-11h-2l2 11zm1 16l-3-6h-1l2 6h2zm1-11l-1-5h-2l1 5zm2 5l-1-5-1 1 1 3h1zm9-125a72 72 0 0 0-6 14l-3 16-2 14a72 72 0 0 0 0 12zm-7 129l-1-4h-1l1 4h1zm3 3l-2-3-1 1 1 2zm2 4l-1-4-2 1 1 3zm3 3l-2-4-2 1 3 4zm11 11l-10-10-1 1 10 10zm123 4l-12 3-17 6-16 4a50 50 0 0 1-10 2h-15a17 17 0 0 1-5-1 17 17 0 0 0-6-1 48 48 0 0 1-10-2 74 74 0 0 1-12-3l-11-5a55 55 0 0 1-9-6c9 8 19 13 30 15 10 2 19 4 26 4h16l12-2 16-5a266 266 0 0 0 23-9zm-61 6a217 217 0 0 1-26-3 62 62 0 0 1-28-14c1 3 4 6 8 8a67 67 0 0 0 13 5 137 137 0 0 0 16 3 106 106 0 0 0 17 1zm15-156v-7l-3-4a81 81 0 0 0-7-4 75 75 0 0 0-8-3 21 21 0 0 0-6-1 19 19 0 0 0-7 1 63 63 0 0 0-7 4 39 39 0 0 0-7 5 19 19 0 0 0-5 5l-6 11-4 8a56 56 0 0 0-4 12 44 44 0 0 0-2 8 4 4 0 0 0 1 3 4 4 0 0 1 0 2h4a33 33 0 0 0 4-3 10 10 0 0 1 3-3 15 15 0 0 1-3 1 22 22 0 0 0-4 2v-1a51 51 0 0 1 9-6 92 92 0 0 1 10-4l10-2a72 72 0 0 0 11-5 52 52 0 0 0 10-7 85 85 0 0 0 11-12zm-57 165v-2h-3v2zm5 2v-1h-3v1zm53-130l-27 9-27 8a4 4 0 0 0 1 3h1a290 290 0 0 0 28-8l24-12zm-49 131v-2h-3v2zm1-212v-2h-3v2zm5 162a23 23 0 0 0-2-2 18 18 0 0 0-4-2 6 6 0 0 0 2 5h4zm52-157a41 41 0 0 0-17-10 62 62 0 0 0-15-2h-5l-6 1a56 56 0 0 0-8 2l-6 1a65 65 0 0 1 11 0h16a39 39 0 0 1 8 0 80 80 0 0 1 9 2l13 6zm-21 195v-2h-4v2zm31-119v-1l-3 1v1zm10 127l-1-2-11 5v1zm1-138l-1-1-9 9 1 1zm5 95a14 14 0 0 0-3 2 3 3 0 0 1-4 0l2 1a1 1 0 0 1 0 1 14 14 0 0 0 3-2l2-2zm-2-99h-2l-1 2 1 1zm15 117l-1-1-11 4v2z" class="d" transform="translate(-9 -103)"/><path d="M426 562h-2v-8h2zm186-217a28 28 0 0 1 0 4l-2 9-3 9a80 80 0 0 1-2 8 91 91 0 0 1-6 12 76 76 0 0 1-6 10 58 58 0 0 1-8 8l-9 9-14 8-18 8a188 188 0 0 1-20 5 73 73 0 0 1-15 2h-17l-1-1a7 7 0 0 0-2-2 5 5 0 0 0-3-1h-11v66a160 160 0 0 1-1 16l-3 24-4 22-2 9a35 35 0 0 0 1-5 17 17 0 0 0-1-6q-3 4-2 11a39 39 0 0 1-1 12 21 21 0 0 1-2 5 34 34 0 0 0-2 7l-2-3a13 13 0 0 1 0-2 16 16 0 0 0 1-3 10 10 0 0 0-1-6l-2 6a10 10 0 0 1-3 4 31 31 0 0 1 1-4 13 13 0 0 0-1-5 25 25 0 0 0-3 6l-3 5-2-1v-2a9 9 0 0 0-1 4 11 11 0 0 0-2-5 28 28 0 0 1-2-6 2 2 0 0 1 1 1l-2 1-2-1-1-1-2 3a9 9 0 0 1-2 3l1-4a24 24 0 0 0 0-5h-1l-1-1a14 14 0 0 0-1 3 13 13 0 0 1-1 4l-2-38 8-42v2a3 3 0 0 0 1 2l1-16v-17a9 9 0 0 0-2 3 211 211 0 0 0 1-34 91 91 0 0 0 0 13 80 80 0 0 0 1 10l1-63-2-57 3-2 3 107 1-15 1-14-8-159a96 96 0 0 0-2 11v13a85 85 0 0 0 0-13l-1-15a7 7 0 0 1 1-3 7 7 0 0 0 1-3 101 101 0 0 0-1-12l-1-13c-1-1 0-3 1-5a9 9 0 0 0 1-4 15 15 0 0 0-2-8l-2 1-1 1a29 29 0 0 1 5-7 33 33 0 0 0 5-7l3 6c1 3 3 3 4 3 3 0 5-1 5-3a8 8 0 0 1 2 4 3 3 0 0 1 0 2l-2 2a3 3 0 0 0 0 2 5 5 0 0 0 1 2 20 20 0 0 1 2 4c1-1 0-3-1-6a31 31 0 0 0 4 5l10-5 11-5a98 98 0 0 1 13-5 47 47 0 0 1 13-2l3 1 2 1h3v-1l-1 1h4c-1-1-1-1 1-1l9 3 13 6a66 66 0 0 0 7 2 23 23 0 0 1 7 3l7 5a84 84 0 0 1 9 7 108 108 0 0 1 20 26l12 22a32 32 0 0 1 4 8l3 11a19 19 0 0 1 0 2 4 4 0 0 0 0 3 75 75 0 0 1 2 14 110 110 0 0 1 0 15 11 11 0 0 0 2 6l2 6zM434 547a48 48 0 0 0-3 12l-2 13a237 237 0 0 1 5-25zm-2-293h-1v-4h1zm2 59h-1l-2-19h3zm6 188a4 4 0 0 0-1-3 4 4 0 0 1-1-3 95 95 0 0 1-2 25 959 959 0 0 0-2 12l3-13 2-12a29 29 0 0 0 1-6zm-2 69h-2l-1 12h2zm1-309a146 146 0 0 0 0-22 79 79 0 0 0-3-18l2 24a134 134 0 0 1 1 16zm1 203v-4h-2v4zm0 25v-23h-2v23zm1-223v-3h-2v3zm0 192v-3h-2v3zm5-130l-2-8-2-8a390 390 0 0 1 2 41 72 72 0 0 1 1-12 38 38 0 0 0 1-13zm1 166a124 124 0 0 0-3 20 183 183 0 0 1-2 19zm1-64a67 67 0 0 0 1-20 108 108 0 0 0-4-19l1 20 2 19zm5 150v-6h-2v6zm119-249a60 60 0 0 0-1-6l-2-10-4-13-4-11-4-11-5-10a6 6 0 0 1 5 2 15 15 0 0 1 3 5l2 6a28 28 0 0 0 3 7 82 82 0 0 0-14-26 69 69 0 0 0-10-11 51 51 0 0 0-12-8 11 11 0 0 0 2 2 11 11 0 0 1 2 2l-11-7-12-2a79 79 0 0 0-8 0l-8-1h-8a4 4 0 0 1 3-1 13 13 0 0 0-6 1 44 44 0 0 0-6 4l-5 3a7 7 0 0 1-3 2c-2 0-2-1-1-1l-1-1-4 3c-1 2-2 4-1 5a3 3 0 0 0 2-1 2 2 0 0 1 1 0 21 21 0 0 1-3 3 3 3 0 0 0-2 2 40 40 0 0 1 3 10v22a29 29 0 0 0 1 9l4 32 3 43a2 2 0 0 1 1-1v-1a111 111 0 0 1 2 17 6 6 0 0 1-1 4 6 6 0 0 1-2 2h15a3 3 0 0 0-1-1 3 3 0 0 1-2-1h10l-5-1 25-3 23-2a54 54 0 0 0 10-5 75 75 0 0 0 10-8 14 14 0 0 0-2 1 2 2 0 0 1-2-1 24 24 0 0 0 9-9l5-12a6 6 0 0 1 0 5 11 11 0 0 0-1 4l4-15a45 45 0 0 0 3-16zm-77-101h-7a19 19 0 0 1-5 1 24 24 0 0 0-4 1 31 31 0 0 0-4 2 49 49 0 0 0-10 7 11 11 0 0 0-2 4l16-10c6-3 11-5 16-5zm-23 277v-10h-2v10zm71-118a67 67 0 0 1-17 5c-6 2-13 3-19 3l-19 2-15 1h34a68 68 0 0 0 10-2l15-3a18 18 0 0 0 6-3 20 20 0 0 1 5-3zm-35-151v-2h-10v2zm5 1v-2h-5v2zm39 155h-4a89 89 0 0 1-18 7 91 91 0 0 1-17 3l7 1h2l9-2 8-3a34 34 0 0 0 13-6zm-33-153v-1l-5-2v2zm10 3l-4-1v1l3 1zm5 145v-2h-3v2zm28-122c-1-5-4-10-9-14s-9-9-13-10a80 80 0 0 1 12 12l10 12zm-14 120l-1-1-2 1v1zm15 31l-1-1-10 5v2zm1-46h-1l-2 2 2 1zm13-35a56 56 0 0 0-1-11l-3-13-4-13-3-10 6 24a89 89 0 0 1 3 23l-1 9a57 57 0 0 1-2 13l3-13 2-9zm-8 29l-1-1-2 3 2 1zm16-34v-7a29 29 0 0 0-1-5 50 50 0 0 0-2-6l-4-9a82 82 0 0 1 4 22v17a17 17 0 0 0 3-6v-6z" class="c" transform="translate(-9 -103)"/><path d="M826 292l-1 28-2 30v70a28 28 0 0 0-1-10 11 11 0 0 0-2 9 45 45 0 0 1 1 10 30 30 0 0 1-1 9 53 53 0 0 0-2 8 25 25 0 0 1-1-7 45 45 0 0 0-1-6l-2 5-2 5v-10a5 5 0 0 0-2 4 19 19 0 0 1-1 5v-1l-1-1a3 3 0 0 1-2 1l-4 1-4 2v-1l-1-1-2 1a1 1 0 0 0 0 2l-1-5a19 19 0 0 0-2-5h-4a4 4 0 0 0-1 2 12 12 0 0 1-1 3v-4a7 7 0 0 0-1-3 4 4 0 0 0-1 2 6 6 0 0 1-2 2 89 89 0 0 1-1-17h-1l-1-1-5 5-6 5-5 3a7 7 0 0 1-3 2l-5 2-8 5a61 61 0 0 1-10 4 26 26 0 0 1-9 2 13 13 0 0 1-3 0 4 4 0 0 0-2 1 4 4 0 0 0 2 1 4 4 0 0 1 2 1l-10-1a49 49 0 0 0-11 1h1l1-1a2 2 0 0 0-2 0 5 5 0 0 1-3 0 16 16 0 0 1-4-1 72 72 0 0 1-7-3l-8-4a39 39 0 0 1-7-4 127 127 0 0 1-12-10l-10-11a84 84 0 0 1-7-11 18 18 0 0 1-3-12 1 1 0 0 0 0 1 1 1 0 0 0-1 1l-1-11-2-13-1-10-1-6a44 44 0 0 1 1-9l3-10 3-9 2-7 3 2 7-12a74 74 0 0 1 7-13h1l-1-1-3 2 6-6 11-8a131 131 0 0 1 12-8l9-3h1c-1 1-1 1 1 1s1 0 0-1v-1a21 21 0 0 0 6-1 81 81 0 0 0 8-2h1v-1h1l2 1 3 1a9 9 0 0 0 3 0 5 5 0 0 1 2 0h0a26 26 0 0 0 8 2 14 14 0 0 1 6 3l7 1c3 0 6 1 8 3a119 119 0 0 1 14 10 132 132 0 0 1 13 13 5 5 0 0 0 0-4 10 10 0 0 1-1-4 88 88 0 0 0-4-28c-3-8-9-17-18-25l3 1 5 1a32 32 0 0 0-13-9 53 53 0 0 0-15-3 120 120 0 0 0-16-1h-17l1 1-9 2a35 35 0 0 1-7 1h-2l-2-1a10 10 0 0 0-3 1l-6 3-7 3a11 11 0 0 1-4 1c-1 0-2 0-1-1l-1-1-9 5v1a1 1 0 0 0 1 1l2-1a4 4 0 0 0 2 0h-8a20 20 0 0 0-7 1v-6a6 6 0 0 0 3-1l2-4-3-3-2-2a5 5 0 0 0 1-2l2-1 3 1a12 12 0 0 0 1 2l3-4h-3a55 55 0 0 1 10-7 142 142 0 0 1 14-7l14-7a56 56 0 0 1 12-3l1-2a67 67 0 0 1 12 1 27 27 0 0 0 9 0q10-2 24 2a125 125 0 0 1 27 10 107 107 0 0 1 25 18c7 7 12 15 15 23l1 7 2 8a89 89 0 0 1 1 11q0 8 3 12zm-181 90l-2-20a123 123 0 0 1 1-22l-2 9a51 51 0 0 0-1 8v3l1 7 1 9 2 7zm0-44v-4h-1v4zm2-4v-3h-2v3zm0 54v-6h-2v6zm1-58v-3h-2v3zm2 48l-2-26h-2l3 26zm-2 13v-3h-2v3zm1 3v-3h-2v3zm1-72h-2l-1 5h2zm15-16l-1-1-10 18 1 1zm24-79l-14 4a32 32 0 0 0-12 7l14-6 12-5zm90 133l-2-9a13 13 0 0 0-2-4 32 32 0 0 1-3-4l-5-11a2 2 0 0 0-1-2l-1-1a10 10 0 0 0-3-4l-3-3a26 26 0 0 0-6-4l-6-4a57 57 0 0 0-7-2 23 23 0 0 0-3-1l-1-3 1-7v-6-3l-3 17a30 30 0 0 1-4-2 5 5 0 0 0-3-1h-6l-4 1-12 2c-4 1-7 3-12 7-1 1-3 2-4 1s-3-1-5 1l-9 14-2 14c1 2 0 5-1 9a31 31 0 0 0-2 8 45 45 0 0 0 1 6 5 5 0 0 0 1 3 6 6 0 0 1 2 3 57 57 0 0 0 7 17 61 61 0 0 0 11 14 66 66 0 0 0 14 10 33 33 0 0 0 16 4h6l6-1a20 20 0 0 0 7-4l6-4 1 1 2 1 5-3 8-7a102 102 0 0 0 7-9l4-5a41 41 0 0 0 4-12 92 92 0 0 1 1-12 9 9 0 0 1 1-2 15 15 0 0 0-1-3zm-100 65l-7-7-1 2 6 5zm-3 4l-3-3-1 1 2 3zm7-1l-3-3-1 1 3 3zm6-21l-4-1v2l4 1zm4-180v-2h-3v2zm4 215v-2h-3v2zm3 1v-2h-3v2zm4 2v-2h-3v2zm19-174h-4l-8 2-10 4a31 31 0 0 0 4 0 19 19 0 0 1 5 0l6-3a34 34 0 0 1 7-3zm-15-40v-2h-5v2zm0 214h-4v-1h4zm3 2h-3v-2h3v2zm7-217v-2h-3v2zm0 218h-3v-2h3zm10-218v-2h-3v1zm8 193l-1-1-6 2v1zm4-136v-2l-9-1v2zm-3-55h-5v-2h5zm32 4a73 73 0 0 0-9-7 23 23 0 0 0-15-5h-6a60 60 0 0 1 16 5 88 88 0 0 1 13 7zm3 79l-1-3h-2l2 3zm5-62l-4-6h-2l4 7zm-3 65l-1-3-2 1 2 2zm0 82h-1l-2 3 2 1zm14-108a45 45 0 0 0-1-9l-3-12-4-11a21 21 0 0 0-3-6 79 79 0 0 1 9 30 197 197 0 0 1 1 28 33 33 0 0 1 0-11l1-9zm-4 134v-13h-2v13zm10-142v-3a13 13 0 0 0-1-3 8 8 0 0 1 0-3 5 5 0 0 0-1-2 47 47 0 0 0-6-10c3 4 4 9 5 16a118 118 0 0 1 2 15zm-4 81v-8h-2v8zm1 68v-9h-2v9zm22-1v-6h-2v6zm8-69v-7h-2v7zm445 40l-1 10-2 13a16 16 0 0 0 1-5 25 25 0 0 0-1-7c-4 5-6 9-5 12a78 78 0 0 1 3 11 17 17 0 0 0-3 7 29 29 0 0 1-2 8l-4-5v-10a3 3 0 0 0-2 4 10 10 0 0 1-2 5 19 19 0 0 0 3 1l3 1-3-7-3-7a9 9 0 0 0 0-3 6 6 0 0 0-1-1 10 10 0 0 0-1 4 36 36 0 0 1 0 5c-1 1 0 3 2 4s3 3 2 4v-1l-1-1a11 11 0 0 0-2 2 5 5 0 0 1-1 2 5 5 0 0 0-2-4 4 4 0 0 0-1 3 4 4 0 0 1-2 2 16 16 0 0 0-1-6l-2-5-2 2-1-1h-2a3 3 0 0 0-3 2 5 5 0 0 1-3 2v-7-12l-1-13v-7l-1-8-1-18-1-22-1-20a1484 1484 0 0 0-11-170v15l1 16-5-52a13 13 0 0 0 1 4l2 5v-2a10 10 0 0 1 0-3l-2-10a146 146 0 0 1-4-15c2 0 3-2 3-4a9 9 0 0 0-1-4l-4-4a10 10 0 0 0-1 6 11 11 0 0 1 1-5 35 35 0 0 1 3-5 38 38 0 0 1 4-4l2-2c2 0 3 1 5 4s3 4 4 4a8 8 0 0 0 5-2c2-2 4-2 7 0a4 4 0 0 1-1 3 12 12 0 0 1-3 2 36 36 0 0 0 2 3l4 4a5 5 0 0 0-1-3 6 6 0 0 1-1-3 22 22 0 0 1 4 4 9 9 0 0 1 2 4l2 11 3 11a14 14 0 0 0 2 5 20 20 0 0 1 1 3 24 24 0 0 1 1 4 32 32 0 0 1 1 7v4l2-1v-2a32 32 0 0 0-1 11l1 11a4 4 0 0 1 2 2 6 6 0 0 0 1 2 59 59 0 0 1 0 14l-1 13-1 15a94 94 0 0 0 2 20l1 1v5a45 45 0 0 0 1 8v1a3 3 0 0 0-1 0 3 3 0 0 1-1 1 28 28 0 0 1 1 14 62 62 0 0 0-1 8 8 8 0 0 0 5 7zm-48-247a41 41 0 0 1-1-8l-1-9a68 68 0 0 0-1-10 33 33 0 0 0-5-10l-2 3a26 26 0 0 0 1 5l3 9 4 10 2 10zm-6 9l-1-7h-2l1 7zm3 185h-1l-2-30h2zm10 60a25 25 0 0 0-1 5v10l-1 10a30 30 0 0 1 0 5l-2-10-2-11v1l-1 2a237 237 0 0 1-2-27 143 143 0 0 1 1-25v3a14 14 0 0 0 1 5l-1-17v-19l-1-16-1-7v-31a10 10 0 0 1 1-3 12 12 0 0 0 0-3 19 19 0 0 0-2-6v-47l2 1c2 0 1 1 1 3v37l1 6 1 11v12l1 12zm-6 9v-6h-2v6zm9-198a53 53 0 0 0-1-9 63 63 0 0 0-4-12l2 20 2 15a43 43 0 0 1 1-8 39 39 0 0 0 0-6zm6 75a23 23 0 0 0-1-5l-1-7-2-8-2-8 1 20 2 15a18 18 0 0 1 2-3 8 8 0 0 0 1-4zm0 102v-37a9 9 0 0 0-2 5 39 39 0 0 0 0 5v4l1 7 1 8v8zm1 40v-10h-1v10zm24-69v-7c-2 0-3 1-3 3l1 3a4 4 0 0 1 2 1z" class="d" transform="translate(-9 -103)"/><path d="M1478 292v28l-2 30v70a28 28 0 0 0-1-10 11 11 0 0 0-2 9 45 45 0 0 1 1 10 30 30 0 0 1-1 9 53 53 0 0 0-2 8 25 25 0 0 1-2-7 46 46 0 0 0-1-6l-1 5-2 5v-10a5 5 0 0 0-2 4 19 19 0 0 1-1 5v-1l-1-1a3 3 0 0 1-2 1l-4 1-4 2v-1l-1-1-2 1a1 1 0 0 0 0 2l-1-5a19 19 0 0 0-2-5h-4a4 4 0 0 0-1 2 12 12 0 0 1-1 3v-4a7 7 0 0 0-1-3 4 4 0 0 0-1 2 6 6 0 0 1-2 2 89 89 0 0 1-1-17h-1l-1-1-5 5-6 5-5 3a7 7 0 0 1-3 2l-5 2-8 5a61 61 0 0 1-10 4 26 26 0 0 1-9 2 13 13 0 0 1-3 0 4 4 0 0 0-2 1 4 4 0 0 0 2 1 4 4 0 0 1 2 1l-10-1a49 49 0 0 0-11 1h1l1-1a2 2 0 0 0-2 0 5 5 0 0 1-3 0 16 16 0 0 1-4-1 72 72 0 0 1-7-3l-8-4a40 40 0 0 1-7-4 125 125 0 0 1-12-10l-10-11a83 83 0 0 1-7-11 18 18 0 0 1-3-12 1 1 0 0 0 0 1 2 2 0 0 0-1 1l-1-11-2-13-1-10-1-6a44 44 0 0 1 1-9l3-10 3-9 2-7 3 2 6-12a74 74 0 0 1 8-13h1l-1-1-3 2 6-6 11-8a133 133 0 0 1 12-8l9-3h1c-1 1-1 1 1 1s1 0 0-1v-1a21 21 0 0 0 6-1l8-2 1-1h1l2 1 3 1a9 9 0 0 0 3 0 5 5 0 0 1 2 0h0a27 27 0 0 0 8 2 14 14 0 0 1 6 3l7 1c3 0 6 1 8 3a119 119 0 0 1 14 10 132 132 0 0 1 13 13 5 5 0 0 0 0-4 10 10 0 0 1-1-4 88 88 0 0 0-5-28c-2-8-8-17-17-25l3 1 5 1a32 32 0 0 0-13-9 53 53 0 0 0-15-3 120 120 0 0 0-16-1h-17l1 1-9 2a35 35 0 0 1-7 1h-2l-2-1a10 10 0 0 0-3 1l-6 3-7 3a11 11 0 0 1-4 1c-1 0-2 0-1-1l-1-1-9 5a1 1 0 0 0 1 2l2-1a4 4 0 0 0 1 0h-7a20 20 0 0 0-7 1v-6a6 6 0 0 0 3-2l2-3-3-3-3-2a5 5 0 0 0 2-2l2-1 3 1a12 12 0 0 0 1 2l3-4h-3a55 55 0 0 1 10-7 142 142 0 0 1 13-7l15-7a57 57 0 0 1 12-3l1-2a67 67 0 0 1 12 1 27 27 0 0 0 9 0q10-2 24 2a125 125 0 0 1 27 10 107 107 0 0 1 25 18c7 7 12 15 15 23l1 7 2 7a89 89 0 0 1 1 12q0 8 3 12zm-181 90l-1-20a123 123 0 0 1 0-22l-1 9a52 52 0 0 0-1 8v3l1 7 1 9 1 7zm1-44v-4h-2v4zm2-4v-3h-2v3zm0 54v-6h-2v6zm0-58v-3h-1v3zm3 48l-3-26h-1l3 26zm-3 13v-3h-1v3zm2 3v-3h-2v3zm1-72h-2l-1 5h1zm15-16l-1-1-10 18 1 1zm24-79l-14 4a32 32 0 0 0-12 7l14-6 12-5zm90 133l-3-9a13 13 0 0 0-1-4 32 32 0 0 1-3-4l-5-11a2 2 0 0 0-1-2l-2-1a10 10 0 0 0-2-4l-3-3a26 26 0 0 0-6-4l-7-4a58 58 0 0 0-6-2 25 25 0 0 0-4-1v-3-7l1-6v-3l-4 17a29 29 0 0 1-3-2 5 5 0 0 0-3-1h-6l-4 1-12 2c-4 1-8 3-12 7a4 4 0 0 1-4 1c-2-1-4-1-5 1l-9 14c-1 3-3 8-2 14l-1 9a31 31 0 0 0-2 8 45 45 0 0 0 0 6 5 5 0 0 0 2 3 6 6 0 0 1 2 3 57 57 0 0 0 6 17 61 61 0 0 0 12 14 65 65 0 0 0 14 10 33 33 0 0 0 15 4h6l6-1a20 20 0 0 0 8-5l5-3 2 1 1 1 6-3 8-8a100 100 0 0 0 7-8l4-5a42 42 0 0 0 4-13 90 90 0 0 1 1-11 9 9 0 0 1 1-3 8 8 0 0 0-1-2zm-101 65l-6-7-1 2 6 5zm-3 4l-3-3-1 1 3 3zm8-1l-3-3-1 1 2 3zm6-21l-4-1v2l3 1zm4-180v-2h-3v2zm4 215v-2h-3v2zm3 1v-2h-3v2zm3 2v-2h-3v2zm20-174h-5l-7 2-10 4a31 31 0 0 0 4 0 19 19 0 0 1 4 0l7-3a36 36 0 0 1 7-3zm-15-40v-2h-5v2zm0 214h-5v-1h5zm3 2h-3v-2h3zm7-217v-2h-3v2zm0 218h-3v-2h3zm10-218v-2h-3v1zm8 193l-1-1-6 2v1zm3-136v-2l-8-1v2zm-3-55h-4v-2h4zm32 4a72 72 0 0 0-9-7 23 23 0 0 0-15-5h-5a60 60 0 0 1 16 5 86 86 0 0 1 13 7zm4 79l-1-3h-2l1 3zm4-62l-3-6h-2l4 7zm-2 65l-1-3-2 1 2 2zm0 82h-1l-2 3 2 1zm14-108a46 46 0 0 0-1-9l-3-12-4-11a21 21 0 0 0-4-6 79 79 0 0 1 10 30 198 198 0 0 1 1 28 33 33 0 0 1 0-11l1-9zm-4 134v-13h-2v13zm10-142v-3a13 13 0 0 0-1-3 8 8 0 0 1 0-3 5 5 0 0 0-1-2 47 47 0 0 0-6-10c2 4 4 9 5 16a118 118 0 0 1 2 15zm-4 81v-8h-2v8zm1 68v-9h-2v9zm22-1v-6h-2v6zm7-69v-7h-2v7z" class="c" transform="translate(-9 -103)"/><path d="M1675 225v4l-1 9-1 11a94 94 0 0 0 0 9l-1-2a4 4 0 0 0 0 3 12 12 0 0 1 0 4h-1a22 22 0 0 0-3 5 28 28 0 0 0-2 7 105 105 0 0 1-7 27l-10 25h-1l2 1h3a83 83 0 0 0-6 9l-6 10a51 51 0 0 1-3 4c-1 2-3 3-3 5a8 8 0 0 0-2 4 5 5 0 0 0 3 4l-12 21-16 30-20 34-19 35-19 30-14 21a13 13 0 0 0 2-3l1-4h-1a6 6 0 0 0-5 4 18 18 0 0 1-4 7q-5 2-10 8l-2-1a5 5 0 0 1 1-7 15 15 0 0 0 3-4v-1l-4 3a6 6 0 0 1-3 2 7 7 0 0 1-4-1 7 7 0 0 0-2-1 11 11 0 0 0 4-2l4-4a6 6 0 0 0-5 0 11 11 0 0 1-4 2v-1l-1-1a6 6 0 0 0-4 2v-2a3 3 0 0 0-1-1 3 3 0 0 1-2 0h-2a5 5 0 0 1 2-2 6 6 0 0 0 2-2 3 3 0 0 0-1-2l-3-3a5 5 0 0 1-3 1 5 5 0 0 1-4-1 5 5 0 0 0 4-5 4 4 0 0 0 0-2 10 10 0 0 1-3 2 6 6 0 0 0-2 2 72 72 0 0 1 3-11l3-12a5 5 0 0 0-2 3l-2 5 6-12 12-20c4-8 9-17 15-25l15-25 13-21 8-11v2a57 57 0 0 0 5-8l5-10v-1l-1-1-2 1 1-8 1-8-2-4a56 56 0 0 0-5-5 40 40 0 0 0-4-5 24 24 0 0 1-3-3 23 23 0 0 1-4-5l-3-7a5 5 0 0 1 0-2v-1l-7-12-6-12a81 81 0 0 1-4-13l-4-11 3 3h1v-1-1l-3-9-6-12h-1v2a8 8 0 0 1-1-4 8 8 0 0 0 0-5h-1l-1 2-3-10a46 46 0 0 1-3-10l-4-5a75 75 0 0 1-1-8v-1h-4l-1 1 2-4a34 34 0 0 0 2-4 14 14 0 0 1 2 0 10 10 0 0 0 4 0 14 14 0 0 0 7-2l1 1v2a3 3 0 0 0 3 1 6 6 0 0 1 4 1l7 10a47 47 0 0 1 6 10l10 21 10 23a4 4 0 0 0 1 1 2 2 0 0 1 1 1l3 7a71 71 0 0 1 2 8 5 5 0 0 0 3 3 11 11 0 0 1 3 3 56 56 0 0 1 8 11 94 94 0 0 0 9 13 298 298 0 0 1 21-38l1 1h1a372 372 0 0 1-19 40l1 2 13-23a184 184 0 0 0 10-22l8-23a243 243 0 0 1 8-23v-3l-7 15-7 15 15-40a10 10 0 0 0 0 2 4 4 0 0 0 1 2c2-2 3-6 2-10a43 43 0 0 1 1-10h4a31 31 0 0 0 1-4 10 10 0 0 0-1-4 2 2 0 0 1-1-1h-1l-3 2a18 18 0 0 1 2-4 4 4 0 0 1 4-1v1c-1 1-1 1 1 1a5 5 0 0 0 4-2 12 12 0 0 1 3-3 36 36 0 0 1 8 11 9 9 0 0 1 4 1 12 12 0 0 0 3 1h5v3a15 15 0 0 0-5 1 36 36 0 0 0 2 4 33 33 0 0 1 2 3 8 8 0 0 0 1-3v-2a50 50 0 0 1 2 6 14 14 0 0 1 1 6zm-102 155l-79 134 9-14 15-24a1588 1588 0 0 0 55-96zm-73 131a20 20 0 0 1-2 4l-1 3a8 8 0 0 0 3-4v-3zm18-281l-3-6c-2-3-4-5-6-5l5 6 4 5zm59 156l-8 10-12 19-14 24-14 23-11 19-5 10 6-10 12-19 14-23 14-23 12-20 6-10zm-58-141v-3h-3v3zm-3 286a4 4 0 0 0 1-2c1-1 0-2-1-2zm6-276v-3h-2v3zm14 19l-3-9a39 39 0 0 0-4-7l4 8a56 56 0 0 1 3 8zm-2 11l-1-6h-2l1 6zm1 3v-3h-2v3zm15 31l-8-15-7-15a140 140 0 0 0 6 14 166 166 0 0 0 9 16zm3-9a50 50 0 0 0-4-9c-2-3-4-6-7-7l6 9 5 7zm-1 20l-2-3h-1l1 3zm7 155a7 7 0 0 0-2 3 14 14 0 0 0 0 4l2-4a14 14 0 0 0 0-3zm13-136l-5-6-1 1 5 6zm-1 8h-1l3 8 1 1zm3 9l-2-1-2 5 1 1zm4-20l-6-7-1 1 5 7zm-2 17h-2l-1 16 1 1zm34-43l-5 7c-2 3-2 5-2 7l1 2a20 20 0 0 1 2 1 34 34 0 0 0 2-9l2-8zm22-50a128 128 0 0 1-4 13 125 125 0 0 0-5 12 22 22 0 0 0 8-13c1-5 2-9 1-12zm18-56c0-3-1-5-3-6l-2 16-1 15a138 138 0 0 0 4-14l2-11z" class="d" transform="translate(-9 -103)"/><path d="M1893 292v28l-2 30-1 35 1 35a28 28 0 0 0-1-10 11 11 0 0 0-2 9 45 45 0 0 1 1 10 30 30 0 0 1-1 9 53 53 0 0 0-2 8 25 25 0 0 1-2-7 46 46 0 0 0-1-6l-2 5-1 5v-10a5 5 0 0 0-2 4 19 19 0 0 1-1 5v-1a1 1 0 0 0-1 0l-1-1a3 3 0 0 1-1 1l-4 1-4 2v-1a1 1 0 0 0-1 0v-1l-2 1a1 1 0 0 0 0 2l-1-5a19 19 0 0 0-2-5h-4a4 4 0 0 0-1 2 12 12 0 0 1-2 3v-4a7 7 0 0 0 0-3 4 4 0 0 0-2 2 6 6 0 0 1-1 2 89 89 0 0 1-1-17h-1l-1-1-6 5-6 5-5 3a7 7 0 0 1-3 2l-4 2-9 5a61 61 0 0 1-9 4 26 26 0 0 1-9 2 13 13 0 0 1-3 0 4 4 0 0 0-3 1 4 4 0 0 0 3 1 4 4 0 0 1 2 1l-10-1a49 49 0 0 0-11 1l2-1a2 2 0 0 0-2 0 5 5 0 0 1-4 0 16 16 0 0 1-4-1 72 72 0 0 1-7-3l-8-4a40 40 0 0 1-7-4 125 125 0 0 1-11-10l-10-11a83 83 0 0 1-7-11 18 18 0 0 1-3-12 1 1 0 0 0 0 1 1 1 0 0 0-1 1l-1-11-2-13-1-10-1-6a44 44 0 0 1 1-9l3-10 3-9 2-7 3 2 6-12a74 74 0 0 1 8-13h1l-1-1-3 2 6-6 11-8a133 133 0 0 1 12-8l8-3h1l1 1c1 0 2 0 1-1-2-1-2-1 0-1a21 21 0 0 0 6-1l8-2 1-1c0-1 0 0 0 0l3 1 3 1a9 9 0 0 0 2 0 5 5 0 0 1 3 0h0a27 27 0 0 0 7 2 14 14 0 0 1 7 3l7 1c3 0 6 1 7 3a119 119 0 0 1 14 10 132 132 0 0 1 13 13 5 5 0 0 0 0-4 10 10 0 0 1-1-4 88 88 0 0 0-4-28c-3-8-9-17-18-25l4 1 4 1a32 32 0 0 0-12-9 53 53 0 0 0-15-3 120 120 0 0 0-16-1h-17l1 1-9 2a35 35 0 0 1-7 1h-2l-2-1a10 10 0 0 0-4 1l-6 3-6 3a11 11 0 0 1-4 1c-1 0-2 0-1-1l-2-1-8 5v1a1 1 0 0 0 1 1l2-1a4 4 0 0 0 1 0h-7a20 20 0 0 0-7 1v-6a6 6 0 0 0 2-1l3-4-3-3-3-2a5 5 0 0 0 1-2l3-1 3 1a12 12 0 0 0 1 2l3-4h-3a55 55 0 0 1 10-7 142 142 0 0 1 13-7l15-7a57 57 0 0 1 12-3l1-2a67 67 0 0 1 12 1 27 27 0 0 0 9 0q10-2 23 2a125 125 0 0 1 28 10 107 107 0 0 1 24 18c8 7 13 15 15 23l2 7 1 7a89 89 0 0 1 1 12q1 8 4 12zm-181 90l-1-20a124 124 0 0 1 0-22l-2 9a51 51 0 0 0-1 8l1 3 1 7 1 9 1 7zm1-44v-4h-2v4zm1-4v-3h-2v3zm0 54v-6h-2v6zm1-58v-3h-1v3zm3 48l-3-26h-1l3 26zm-3 13v-3h-1v3zm2 3v-3h-2v3zm1-72h-2l-1 5h1zm15-16l-1-1-10 18 1 1zm24-79l-14 4a32 32 0 0 0-12 7l14-6 12-5zm90 133l-3-9a13 13 0 0 0-1-4 30 30 0 0 1-3-4l-5-11a2 2 0 0 0-1-2l-2-1a10 10 0 0 0-2-4l-3-3a25 25 0 0 0-6-4l-7-4a57 57 0 0 0-6-2 23 23 0 0 0-4-1v-3-7l1-6v-3l-4 17a29 29 0 0 1-3-2 5 5 0 0 0-3-1h-6l-5 1-11 2c-4 1-8 3-12 7-1 1-3 2-4 1s-4-1-5 1l-9 14c-1 3-3 8-2 14l-1 9a31 31 0 0 0-2 8 43 43 0 0 0 0 6 5 5 0 0 0 2 3 6 6 0 0 1 2 3 57 57 0 0 0 6 17 61 61 0 0 0 12 14 65 65 0 0 0 14 10 33 33 0 0 0 15 4h6l6-1a20 20 0 0 0 8-5l5-3 2 1 1 1 6-3 8-8a100 100 0 0 0 7-8l4-5a42 42 0 0 0 4-13 92 92 0 0 1 1-11 9 9 0 0 1 1-3 16 16 0 0 0-1-2zm-101 65l-6-7-1 2 6 5zm-3 4l-3-3-1 1 3 3zm8-1l-3-3-1 1 2 3zm6-21l-4-1v2l3 1zm4-180v-2h-3v2zm4 215v-2h-3v2zm3 1v-2h-3v2zm3 2v-2h-3v2zm20-174h-5l-7 2-10 4a31 31 0 0 0 4 0 19 19 0 0 1 4 0l7-3a30 30 0 0 1 7-3zm-15-40v-2h-6v2zm0 214h-5v-1h5zm3 2h-3v-2h3zm6-217v-2h-3v2zm0 218h-3v-2h3zm11-218v-2h-3v2zm7 193v-1l-6 2v1zm4-136v-2l-8-1v2zm-3-55h-4v-2h4zm32 4a72 72 0 0 0-9-7 23 23 0 0 0-15-5h-5a60 60 0 0 1 16 5 87 87 0 0 1 13 7zm4 79l-1-3h-2l1 3zm4-62l-3-6-2 1 4 6zm-2 65l-1-3-2 1 1 2zm0 82h-2l-1 3 2 1zm14-108a45 45 0 0 0-1-9l-3-12-4-11a21 21 0 0 0-4-6 78 78 0 0 1 10 30 196 196 0 0 1 1 28 33 33 0 0 1 0-11l1-9zm-4 134v-13h-2v13zm10-142v-3a13 13 0 0 0-1-3 8 8 0 0 1-1-3 5 5 0 0 0 0-2 47 47 0 0 0-6-10c2 4 4 9 5 16a120 120 0 0 1 2 15zm-4 81v-8h-2v8zm1 68v-9h-2v9zm22-1v-6h-2v6zm7-69v-7h-2v7zM1142 324a1 1 0 0 1-1 0 14 14 0 0 1-1-5l-1 1-1-2a30 30 0 0 1-2-9l-2-13a38 38 0 0 0-1-6 11 11 0 0 0-5-8 4 4 0 0 1-2-2l-7-12v-4a56 56 0 0 0-7-5v2c-2 1-4 0-6-1l-3-1-2 4a12 12 0 0 1 1 3c1 3 1 4-2 5 0 3 0 7 2 9a2 2 0 0 0 2 0c2 0 4 0 5 3a20 20 0 0 1-1 7c-2-1-2-3-2-4a2 2 0 0 1 0 1 30 30 0 0 0 2 11 144 144 0 0 1 4 15 47 47 0 0 1 0 18 71 71 0 0 1-4 11c-1 4-4 7-7 9l-1 1a48 48 0 0 1-7 2c-6 1-10-1-14-5l-17-21-2-5-8-10-3-3a7 7 0 0 0-4-3 3 3 0 0 1-1-2c-4-5-8-8-13-11a67 67 0 0 1-10-8c-2-2-3-3-3-6l-1-2a25 25 0 0 0-6-3 150 150 0 0 0-28-11c-7-2-15-2-23 0l-7 1c-7 1-14 4-20 8a63 63 0 0 0-20 17 88 88 0 0 0-16 34 77 77 0 0 0-3 17 52 52 0 0 0 2 11 10 10 0 0 1 1 4 1 1 0 0 0 0 1c2 1 2 3 2 5a57 57 0 0 0 4 7 40 40 0 0 1-4-7l-1-6 1 1 1 1 2 3a22 22 0 0 1 5 3l-1-2c0-1-1-2 1-2 1 2 2 4 4 4l-2-4a1 1 0 0 1 2 0 7 7 0 0 0 2 2l1-2h2a10 10 0 0 1 1 2 3 3 0 0 0 2 1c2 0 2-1 3-2 2 1 5-1 7-2l3 1-2-2a5 5 0 0 1 0-2h4a7 7 0 0 0-2-2 2 2 0 0 1 0-2l-2-1a1 1 0 0 1 0-1h2v-10c1-9 3-17 7-25a18 18 0 0 1 6-6l5-3h3l-2 1c-6 5-11 10-14 18l-3 18a8 8 0 0 0 1 5 17 17 0 0 0 3 1c-1-4 0-4 1-4 0-7 2-13 5-19l4-11a8 8 0 0 1 4-5 74 74 0 0 1 9-4 18 18 0 0 1 7-2c7 0 13 2 19 5a92 92 0 0 1 32 27 169 169 0 0 0 17 19l14 13a7 7 0 0 0 2 1l-1-3 3 1a79 79 0 0 0 15 13c11 6 21 7 32 3 10-3 18-9 25-16l4-5 2-1 4-8h1a1 1 0 0 1-1-1c4-5 5-12 6-18v-1" class="c" transform="translate(-9 -103)"/><path d="M895 353a16 16 0 0 0 0-3l-1-3 1-3-1-2 1-3v-3l1-9 1-3 1-3 2-6 1-4 4-7 3-7 3-4a51 51 0 0 1 5-6 55 55 0 0 1 8-8 25 25 0 0 1 2-2 30 30 0 0 0 3-1 29 29 0 0 1 5-3l3-2a11 11 0 0 0 2-1l4-2 4-2a13 13 0 0 1 2 0l3-1a10 10 0 0 0 2 0l4-1a52 52 0 0 1 9-1 4 4 0 0 1 2 0h4l7 1a11 11 0 0 1 3 0l6 2 5 2 7 2 7 4 5 2a23 23 0 0 1 5 3 2 2 0 0 1 1 2l-1 1a13 13 0 0 0 2 3l1 1 5 5 7 4a54 54 0 0 1 5 4 31 31 0 0 1 5 5 8 8 0 0 0 2 3h2l15 17h-1a4 4 0 0 0 0 2l3 3 4 5 5 7 8 9a3 3 0 0 0 2 1 19 19 0 0 0 6 3 8 8 0 0 1 1 0l3-1h3l2-1a9 9 0 0 1 2 0 20 20 0 0 0 4-3 16 16 0 0 0 3-5l3-6a18 18 0 0 0 1-4 36 36 0 0 0 1-4 15 15 0 0 0 0-4v-2-2-4a42 42 0 0 1 0-5l-1-2v-1a1 1 0 0 1 0-1l-1-3a16 16 0 0 0-1-2l-1-3a37 37 0 0 0-1-4l-1-4a33 33 0 0 1-1-4 39 39 0 0 0 0-4 56 56 0 0 0 3 6v-1a12 12 0 0 1 0-3v-2a10 10 0 0 0 0-2l-2-3a3 3 0 0 0-2 1h-2l-1-2a18 18 0 0 0-1-3 1 1 0 0 1 0-1l-1-2 1-3 1 1v-1h1v-1-3-1a2 2 0 0 1 2 1l2 2-3-6c3 0 4 2 6 3a8 8 0 0 0-3-4v-1l5 1h1l-1-3a50 50 0 0 1 8 5l-1 2a133 133 0 0 1 7 11l3 5a46 46 0 0 1 4 4 4 4 0 0 1 1 2l1 3a4 4 0 0 0 0 2 3 3 0 0 1 0 2l2 15a27 27 0 0 0 3 9v1a8 8 0 0 1 1-1l1 2v3l1 1 1 8a1 1 0 0 0-1 0 21 21 0 0 1 0 6 34 34 0 0 1-2 6 51 51 0 0 1-2 6l-1 1a4 4 0 0 0 0 1l-1 1 1 1a23 23 0 0 1-3 4l-2 4h-1l1-1h-1a33 33 0 0 1-3 3 70 70 0 0 1-6 6 79 79 0 0 1-10 8l-4 2a38 38 0 0 0-3 2l-6 1-3 2h-4a13 13 0 0 1-4 0h-6c-3 0-5-2-8-3a47 47 0 0 1-6-3l-11-8a24 24 0 0 1-4-4 2 2 0 0 0-2-1 6 6 0 0 1 1 1 8 8 0 0 1 0 2v0l-4-3-2-2a9 9 0 0 1-2-2 18 18 0 0 0-3-3l-5-4-6-6-5-5-6-7-3-4a44 44 0 0 0-4-5l-5-4a67 67 0 0 0-6-6 61 61 0 0 0-6-4l-10-5-6-3a49 49 0 0 0-4-1 29 29 0 0 0-5 0 12 12 0 0 0-4 0 20 20 0 0 0-3 0l-4 2-3 2-3 1a18 18 0 0 0-3 2l-1 3a5 5 0 0 1-1 1l-1 4-2 5a11 11 0 0 0-1 2l-2 8-2 6a8 8 0 0 0 0 3v2a2 2 0 0 0-1-2 4 4 0 0 1-1 1v2l1 1a1 1 0 0 1-1 1l-2-1h-1a6 6 0 0 1-1-3 19 19 0 0 1-1-3 19 19 0 0 0 1-3l1-6 2-7a27 27 0 0 1 2-6 37 37 0 0 1 5-7 34 34 0 0 1 4-4l3-2 2-2a2 2 0 0 0-1 1l-8 4a15 15 0 0 0-4 4l-2 4v1l-2 3-1 6-2 8-1 3a17 17 0 0 0 0 5v4l2 2h-3v1l-3-1-6-2v3c-2 0-1-2-3-3l1 3c-2 1-3-1-4-1v3c0 1-1 2-2 1l-1-2-1 3c-2 1-2-1-3-2l1 4v2l-2-1a6 6 0 0 0-1 0 1 1 0 0 1-1-1c-2 0-4 0-4-2a2 2 0 0 1-1 2 1 1 0 0 1-1 0l-1-1a8 8 0 0 0-4-3z" class="c" transform="translate(-9 -103)"/><path d="M914 355a4 4 0 0 0 1-2h2v1a6 6 0 0 1 2 1v-2c1 0 2 0 3 2a4 4 0 0 0 1 1v-4c2 0 2 2 3 2v-2h3l1 1a3 3 0 0 1 2 1 1 1 0 0 1 2 1l1 1-2 1-1-1h-1a4 4 0 0 1 0 3l2 1-1 1h-1c-1-1-1-2-2-1h-1a3 3 0 0 0-1 1 3 3 0 0 0-1 0l-1 1h-2v-1l-1 1v1h-1l-1 1c-1 1-1 0-2-1v1l-1-2 1-1-3-3c-1-1-2-2-1-3z" class="c" transform="translate(-9 -103)"/><path d="M932 354l-1-1v1l-2-2h-3l1 3-1 1a1 1 0 0 1 0-1 2 2 0 0 0-1-1l-1-2h-1l1 1v2l1 2h-2a8 8 0 0 0 0-1h-1v-2a4 4 0 0 0-3-1v1a10 10 0 0 0 1 1v1h-1a2 2 0 0 0-2-2v-1l-1-1v1l-1-1v-2-1l1 1h1l2 1-1-3 1-1a48 48 0 0 1 3 4v-1h1l-2-2h3a2 2 0 0 1 2 1h1a2 2 0 0 0 1 1 9 9 0 0 1 3 1h1v3zm-18 1v1l2 2 2 1v2l-1 1c-1-1-1-2-3-2a2 2 0 0 1-1 1l1 2-1-1h-1l-1-1h-1a2 2 0 0 1-3 0v-1c-1 0-2-1-1-2h2a3 3 0 0 1 1 1h1l-2-5h-1l1-2a3 3 0 0 1 2 3l1 1a9 9 0 0 1 0-2v-2h2v2l1 1zm192-95v1a22 22 0 0 1 2 1v1l1 1 1 2-1 1a1 1 0 0 1-1-1 1 1 0 0 0 0-1l-2-1a4 4 0 0 0-1-1l-1-1a2 2 0 0 0-1 0l1 2 1 2a5 5 0 0 1 1 1v2h-1a8 8 0 0 0-1-1v-1l-2-1h-1v-2l-1-1a1 1 0 0 1 0-1 1 1 0 0 0 1-1l1-1h-1v-1a3 3 0 0 1 3 1h2z" class="c" transform="translate(-9 -103)"/><path d="M906 358a1 1 0 0 0 0 1l1 1-1 2a9 9 0 0 1 2 2v1h-1l-2-1-3-2a7 7 0 0 0-1-3 1 1 0 0 1 1 0 2 2 0 0 0 2-1 1 1 0 0 1 2 0zm-11-5a2 2 0 0 0 2 0 7 7 0 0 1 1 1l1 3a10 10 0 0 0 0 2 12 12 0 0 0 1 3v1h-1a10 10 0 0 0-1-2 2 2 0 0 0 1-2h-1a4 4 0 0 0-1-1v-2l-1-2a1 1 0 0 1-1-1z" class="c" transform="translate(-9 -103)"/><path d="M905 358a4 4 0 0 0-1 0v1l-3 1v-1h-1l-1-1a3 3 0 0 0 1-1l1-1-1-1 1-1a8 8 0 0 1 1 2 2 2 0 0 0 1 1 4 4 0 0 1 1 0 4 4 0 0 0 1 0l1 1zm74-50h-6l-1-1h-2-1l-5 1a19 19 0 0 1 4-2 72 72 0 0 1 11 2zm-72 53h3a1 1 0 0 0 1 1h-1l1 1a1 1 0 0 1 0 1l1 1h-1-1-1l-1-3a5 5 0 0 1-1-1zm-8 2l1-1 1 1 1 4 2 3a1 1 0 0 1-1 1 6 6 0 0 1-2-4 30 30 0 0 0-2-4zm238-10v0zm-88 11a18 18 0 0 1-3-3l-2-2-8-8-4-5-5-6-4-5-4-5-4-4-6-5a12 12 0 0 0-2-2l-3-3-7-5a42 42 0 0 0-7-5l-7-2a55 55 0 0 0-9-3h4a17 17 0 0 0 3 1 23 23 0 0 1 3 1l3 1 6 3 7 4 2 1 2 1a9 9 0 0 0 2 2 14 14 0 0 1 2 2l2 2 4 5 3 3a10 10 0 0 0 2 2l3 3a7 7 0 0 1 1 2l1 1 5 5 7 8 7 9 4 4a23 23 0 0 0 2 2v1zm46 14a14 14 0 0 0-3 1 17 17 0 0 1-6 1 53 53 0 0 1-5-1 31 31 0 0 1-6-2l-5-3a3 3 0 0 1-1-1l-3-2a57 57 0 0 1-6-6l-2-2a2 2 0 0 0 0-1l1 1a26 26 0 0 0 4 3l3 2 7 4a35 35 0 0 0 4 2l5 2 3 1 4 1h6zm26-99l2 1a12 12 0 0 1 2 3l2 4 1 3 1 7 1 3a7 7 0 0 0 0 2 14 14 0 0 1 1 4l1 4v4a2 2 0 0 0 0 1l-11-36zm-120 24a10 10 0 0 1 4 1l3 3a14 14 0 0 1 4 2l5 6 5 5a34 34 0 0 1 2 3l2 3h-1a5 5 0 0 0-1-1 8 8 0 0 1-2-2l-4-4-3-3a52 52 0 0 0-4-5 49 49 0 0 0-5-4l-5-4zm-73 24a27 27 0 0 1 2-6l2-4a47 47 0 0 1 3-5 28 28 0 0 1 2-4l2-3 4-4v1a12 12 0 0 0-2 3l-4 5a48 48 0 0 0-3 5l-3 5-2 5a4 4 0 0 1-1 2zm44-26a6 6 0 0 1-4 1 3 3 0 0 0-3-1l-2 1a17 17 0 0 0-7 2l-2 1a32 32 0 0 1 6-4 4 4 0 0 1 1 0h6a42 42 0 0 1 5 0zm-56 52v-1h1v1h-1zm-1-1v0zM917 354v-1 1zm-1-2z" class="c" transform="translate(-9 -103)"/></svg>