<svg id="Layer_1" data-name="Layer 1" xmlns="http://www.w3.org/2000/svg" viewBox="0 0 1884.11 490.65"><defs><style>.cls-1{fill:#df7626;}.cls-2{fill:#841c20;}</style></defs><title>nepalaya_crayon2</title><path class="cls-1" d="M199.32,390.7a22.45,22.45,0,0,1-.18,3,32.41,32.41,0,0,0-.17,3.88v.36l.35-6.53v22.93a34.69,34.69,0,0,1-.71-8.29,17.77,17.77,0,0,0-1.58-8.29c-3.18,5.29-4.24,10.58-3,15.87a125.38,125.38,0,0,1,2.64,15.87,15.79,15.79,0,0,0-2.11,7.24c-.36,2.82-.71,5.64-1.24,8.64-2.64-.53-4-1.59-4.41-3a10.16,10.16,0,0,1,0-4.59c.36-1.58.53-3.35.88-5.11a3.43,3.43,0,0,0-1.76-3.88,14.59,14.59,0,0,0-2.12,4.41q-.71,2.4-1.58,4.76a13.15,13.15,0,0,1-1.77,3.88,4.09,4.09,0,0,1-3.35,2.12,28.6,28.6,0,0,0,2.47-9.17c.35-3.88.71-6.53.71-8.29v-3.35a8.84,8.84,0,0,0-.88-3.36c-2.65,2.3-3.18,4.41-1.77,6.18s1.94,3.35,1.24,4.76a51.37,51.37,0,0,0-4.77,10c0-1.41-.53-2.11-1.76-2.11a4.6,4.6,0,0,0-1.23,2.64A6.23,6.23,0,0,1,172,444c0-1.41-.53-2.12-1.76-2.12-1.24.88-1.41,2.82-.88,5.64-.36,0-.53-.17-.89-.35a2.89,2.89,0,0,0-2.11-.88,17.1,17.1,0,0,0-1.59-7.06,56.37,56.37,0,0,1-2.47-7.05,4.21,4.21,0,0,0-1.06,1.59,6.85,6.85,0,0,1-1.94,1.59,2,2,0,0,1-1.23-.36c-.53,0-.88,0-1.06-.17s-.35-.18-.71-.18c-.69,1.15-1.33,2.33-1.94,3.53L152.4,442c-1.41-11.82-2.64-23.28-3.52-34.57s-1.77-22.93-2.83-34.74-2.46-24.17-4.4-36.51c-1.94-12.52-4.59-25.57-8.12-39.51-.53,0-.88-.17-.88-.7a3.6,3.6,0,0,0-.88-1.59,78,78,0,0,0,3.53,18.87,120.65,120.65,0,0,1,4.41,20.28c.88,7.41,1.76,16.05,2.82,26.28,1.06,10.05,2.11,19.93,3,29.28,1.05,9.35,1.76,17.63,2.47,24.51.52,6.88.88,10.58.88,11.29v11.46a2.45,2.45,0,0,0-1.59.89A7,7,0,0,1,145.7,439c-1.23-6.17-2.11-12.52-2.82-18.87a134.65,134.65,0,0,0-3.7-19.75c-1.77,2.11-2.12,3.88-1.06,5.46a10.46,10.46,0,0,1,1.59,6,70,70,0,0,1-2.12-12.17q-.85-8.37-1.59-16.75c-.35-6-.7-12.35-.88-18.7-.18-6.52-.18-12.34-.18-17.64a37.42,37.42,0,0,0,1.24,8.82c.53-1.23.88-2.11.7-2.64a13.11,13.11,0,0,1-.17-3,42.27,42.27,0,0,0-.71-5.29c-.35-3-1.06-6.17-1.76-9.88q-1.12-5.89-2.12-11.81c-.7-4.24-1.59-7.94-2.47-11.29-.53.53-.88,1.76-.88,3.53v5.29c-1.23-4.94-2.64-10.41-4.23-16.05q-2.28-8.11-5.12-16c2.3,4.94,4.77,10,7.06,15.34.53-.53.88-.7.7-.35s-.17-.35-.17-1.77a19.9,19.9,0,0,0-1.59-6,54.75,54.75,0,0,0-9-15.7c-1.77-2.12-3.18-3.35-4.41-3.35a21.11,21.11,0,0,0-7.23,1.94,41.52,41.52,0,0,0-9.18,5.47A61.61,61.61,0,0,0,87,291.75a27.6,27.6,0,0,0-5.64,8.82c0-2.11-.88-2.47-2.65-1.23A28,28,0,0,1,84,288.93a43.65,43.65,0,0,1,9.18-8.82,59.49,59.49,0,0,1,10.75-6A28.91,28.91,0,0,1,114.31,272c2.12,0,3.88,1.06,5.64,3.35a42.67,42.67,0,0,1,4.76,7.23c1.42,2.65,2.65,5.29,3.71,7.76s1.76,4.06,2.47,4.59l1.23-1.76a97.94,97.94,0,0,1-6.17-12.7c-1.24-3.18-2.29-5.65-3.53-7.06a8.25,8.25,0,0,0-4.76-2.82,63,63,0,0,0-10-.7c-3.53,0-7.23,1.41-11.29,4.41A76.84,76.84,0,0,0,85,284.7a68,68,0,0,0-9,12.52q-3.71,6.61-4.23,10.58c-.36,2.65-1.06,6.71-2.12,12.35C68.45,325.79,67.4,332,66.16,339s-2.11,14.29-3,21.52a166.83,166.83,0,0,0-1.23,19.75,5.38,5.38,0,0,0,.35,2.47c.35.17.71.88,1.24,2.47,1.23-8.82,2.11-17.64,2.82-26.46A226.78,226.78,0,0,1,70,332.32a160.71,160.71,0,0,0-3.88,33.51c0,10.05-.35,20.63-1.23,31.74a34.68,34.68,0,0,0-.18-4.58,24.6,24.6,0,0,0-1.06-4.23,20.06,20.06,0,0,0-1.23,4.41,18.68,18.68,0,0,0-.35,4.4,17.64,17.64,0,0,0,.7,3.88c.35,2.12,1.06,4.41,1.76,7.06s1.41,5.29,1.94,7.93A35.41,35.41,0,0,1,67.4,423a11.19,11.19,0,0,1-1.59,5.11,10.63,10.63,0,0,0-1.59,5.12V438c0,1.41,1.24,3,3.88,4.41a4.68,4.68,0,0,0,1.77-2.82,14,14,0,0,0,.35-3.71c.35,0,.53.18.88.36a3.64,3.64,0,0,1,.88,2.64,16.44,16.44,0,0,1-1.23,5.65c-.88,2.29-2.12,3.52-3.53,3.52s-1.94-.17-1.23-.7q.78-.53,0-1.59a26.17,26.17,0,0,0-3.36,5.47,25.75,25.75,0,0,1-3.35,5.47c-.53-.89-2.11-1.24-4.76-1.24v-.88a2.79,2.79,0,0,1,.88-1.76,43.17,43.17,0,0,0-2.11-5.47c-.88-1.94-2.12-2.82-3.53-2.82a9.48,9.48,0,0,0-4.59,1.23,26.14,26.14,0,0,0-4.23,3H37.06a39.55,39.55,0,0,0-.35-4.23,10.29,10.29,0,0,1,.35-5.12A4.17,4.17,0,0,0,35,438.14c-.89-.36-1.94-.71-3-1.24-.89,0-1.94,1.41-3,4.41a10.67,10.67,0,0,0-.71-3.88,12.9,12.9,0,0,0-1.58-3.88A4.52,4.52,0,0,0,25.6,436a14.58,14.58,0,0,1-1.06,3.35,28.72,28.72,0,0,0-.88-6.17c-.53-2.29-1.24-4.59-1.77-6.53,0-.53-.7-1.58-2.11-3a110.12,110.12,0,0,1-.71-15.35c.18-5.29.18-10.4.18-15.34a5.22,5.22,0,0,0,.88,2.64c.53-.53.88-1.05.71-1.23a8.59,8.59,0,0,1-.18-2.65c0-1.23-.18-3.17-.35-6.17a77.76,77.76,0,0,0-1.24-7.94A2.41,2.41,0,0,0,18,375.88a4.86,4.86,0,0,1-1.58-2.64l1.76-78.84a287.45,287.45,0,0,0,1.59,28.92c1.06,10.41,1.76,21,2.47,31.93v.88l.35-.88c0-5.65-.18-12-.35-19.23-.36-7.23-.71-14.64-1.06-22.4s-1.06-15.52-1.77-23.28-1.76-15-2.82-21.87l-.35-22.39a77.35,77.35,0,0,0-1.06,9c-.17,3-.17,6.17-.17,9.52,0-4.4-.18-8.81-.36-13.4-.35-4.58-.35-9.35-.35-14.28v1.76a2.79,2.79,0,0,0,.88,1.76,67.2,67.2,0,0,0-.7-10.05c-.36-3.53-.71-6.88-.71-10v-.88c0-.36.35-.71.88-1.24,0-.88-.88-2.12-2.64-3.88l-2.65,2.12a56.77,56.77,0,0,0,3.71-4.76,24.29,24.29,0,0,0,2.82-4.77,8.06,8.06,0,0,1,4.41,3.71c1.23,1.94,2.47,2.82,3.88,2.82a7.16,7.16,0,0,0,3.35-.71,29.08,29.08,0,0,0,3.7-1.58,1.39,1.39,0,0,0-.18,1.94c.36.7-.17,1.41-1.94,1.94A6.19,6.19,0,0,1,29,216.8c-.18.53.53.88,1.94.88s1.94-.17,1.59-.7a2.24,2.24,0,0,1-.71-1.59A15.52,15.52,0,0,1,36,225.27a40.74,40.74,0,0,0,1.94,10.4,50.59,50.59,0,0,0,2.65,6.53,15.78,15.78,0,0,1,1.76,6.52,19.84,19.84,0,0,1,.36,7.23,58.64,58.64,0,0,0-.36,8.12c.53.53.88,1.05.71,1.23-.18.35,0,.71.7,1.23a87.11,87.11,0,0,1,7.94-11.81,60.19,60.19,0,0,1,10.58-10.58,1.57,1.57,0,0,0-2.11-.18,7.52,7.52,0,0,1-2.12.71c.53-.89,2.29-2.3,5.11-4.41s5.82-4.06,9-6.18a88.54,88.54,0,0,1,9.7-5.46c3.17-1.59,5.64-2.47,7-2.47,1.24,0,1.41.35.71,1.06s-.35,1,1.06,1,4.58-.7,9.17-2.11c4.76-1.41,7.76-2.12,9.17-2.12,2.64,0,6.35.71,11.29,1.94,4.76,1.24,9.7,2.82,14.46,4.59s10.76,3.88,17.81,6.52c1.41,0,1.94-.17,1.59-.7l-1.59-1.59a58,58,0,0,1,9.7,9.17,130.85,130.85,0,0,1,9,12.35,97.12,97.12,0,0,1,7.24,13.22,63.31,63.31,0,0,1,4.41,11.82c5.29,19,9.52,36.51,12.52,52.38a311.28,311.28,0,0,1,5.46,47.62,19.73,19.73,0,0,1,.36,4.76c-1.94,1.06-1.94,2.82-1.94,4.58ZM18.72,240.43A66.75,66.75,0,0,0,18.9,230a32.11,32.11,0,0,0-1.06-8.12,11,11,0,0,1-1.59-2.11c-.35-.88-1.23-1.24-2.47-1.24A57.31,57.31,0,0,1,16.6,229.5C17.49,233.55,18,237.26,18.72,240.43Zm-1.41,134V368.3H15.55v6.17Zm3.53-130.86v-3H18.72v3Zm0,179.18v-3.88H18.72v3.88Zm3.52,9.35V388.93l-3,1.24c.54,6.7,1.24,13.75,1.95,21S24.36,425.44,24.36,432.14Zm-1.23-136.5a24.33,24.33,0,0,0,.35-12.35,54.11,54.11,0,0,1-1.23-10.05c0,3.17.17,7.05.35,11.64.35,4.41.53,8.11.53,10.76Zm30.69,93.29v-3H51.7v3ZM60,430.73a49.31,49.31,0,0,1-1.76-10.05.84.84,0,0,1-.89.88l-.35.35a4.34,4.34,0,0,1-.88-3A25.54,25.54,0,0,0,57,432.14a6.54,6.54,0,0,0,1.77-.35A7.47,7.47,0,0,1,60,430.73Zm-1.76-4.41H56.11v-3h2.12Zm11.46-136.5c-6.17,6.17-9.88,13.05-10.93,20.63A131,131,0,0,0,57,331.61a121.85,121.85,0,0,1,5.12-21.16C64.58,302.87,67,296,69.69,289.82ZM127,265.65a16.91,16.91,0,0,0-5.65-6.17,13.55,13.55,0,0,0-7.4-2.64,17,17,0,0,0-4.24.7,28.32,28.32,0,0,0-5.46,1.76,30.29,30.29,0,0,0-4.76,2.47,6.25,6.25,0,0,0-2.65,2.65c2.65-.53,5.82-1.24,9.52-1.94a51.85,51.85,0,0,1,7.23-1.06,18,18,0,0,1,6.53,1.76c2.32.74,4.62,1.56,6.88,2.47Zm.53,40.57v-2.65h-1.77v2.65Zm1.23,4.41v-4.06h-2.11v3.88h2.11Zm26.46,68.6c-.53-7.58-1.06-15.69-1.59-24.16-.35-8.46-.88-16.58-1.59-24.16a24.74,24.74,0,0,0-1.94,2.12,4.83,4.83,0,0,0-1.06,3,44.85,44.85,0,0,0,.71,6.18c.35,3.17.88,7.05,1.59,11.28.53,4.24,1.23,8.82,1.94,13.41C154,371.65,154.7,375.71,155.23,379.23Zm3,52.91a13.33,13.33,0,0,1,.71-6.52c.7-2.12.18-4.24-1.59-6.53,0,2.29.18,4.59.35,6.53a25.7,25.7,0,0,1,.53,6.52Zm31.4-93.82a33.4,33.4,0,0,0-.88-6,51.9,51.9,0,0,0-1.77-6l-1.23,6.18C186.8,335.49,188,337.43,189.62,338.32Z" transform="translate(-9.37 -103.22)"/><path class="cls-2" d="M228.77,355.07h-2.12V344.49h2.12Zm178,55.38a23.21,23.21,0,0,0-5.64,2.64,18.66,18.66,0,0,0-5.29,4.41,3.43,3.43,0,0,0,2.82.71c1.23-.18,3.53-.53,6.88-1.06-4.94,3-9.88,5.64-14.82,8.29-4.76,2.64-9.52,5.11-13.93,7.41v.35c0,.35.35.35,1.23.35a88.4,88.4,0,0,1-25.75,8.82A139.29,139.29,0,0,1,327.36,445h-9.17a58.15,58.15,0,0,1-20.46-4.23A116.61,116.61,0,0,1,276.21,430a119.19,119.19,0,0,1-18.69-14.46,61,61,0,0,1-12.35-15.34c-.88.88-.7,2.64.35,5.29a129,129,0,0,1-11.64-25,120.64,120.64,0,0,1-5.46-24.17,76,76,0,0,0,2.64,11.82,117.14,117.14,0,0,0,4.41,12.35,13.82,13.82,0,0,0-.88-6.88,54.89,54.89,0,0,1-2.12-8.11c-.53-2.3-1.05-5.3-1.58-8.65-.36-3.35-.71-6.52-.89-9.7-.17-3-.35-5.82-.35-8.29-.17-2.46-.17-4-.17-4.58A132.92,132.92,0,0,1,231.59,311c1.41-7.94,3-15.7,4.41-23.28a179.28,179.28,0,0,1,4.76-22.05,77.52,77.52,0,0,1,10.06-20.28,73.57,73.57,0,0,1,22.92-21.87,120.31,120.31,0,0,1,25.93-12.17c-.53.53-.71,1.06-.18,1.59a2.24,2.24,0,0,0,1.59.71c-4.76.52-10.05,2.64-15.87,6.17a102.65,102.65,0,0,0-16.93,13,113.67,113.67,0,0,0-14.82,16.93,61.94,61.94,0,0,0-9.17,18c-1.41,4.41-2.82,9.35-4.23,15-1.24,5.64-2.47,11.29-3.35,16.93s-1.59,11.46-2.12,16.93c-.53,5.65-.88,10.58-.88,15s.35,10.59,1.06,18.7a89.15,89.15,0,0,0,3.7,20.1c0-2.64-.18-5.64-.35-9.17-.36-3.53-.53-6.88-.88-9.87s-.53-5.82-.89-8.12a28.32,28.32,0,0,1-.35-4.41,237.26,237.26,0,0,1,2.47-31.57,181.71,181.71,0,0,1,7.94-33.86,121.81,121.81,0,0,1,14.81-30c6.17-9,13.76-15.52,22.93-19.58,5.64-2.64,10.4-4.76,14.46-6.17s7.76-2.64,10.93-3.53a64.07,64.07,0,0,1,9.18-1.76,78.68,78.68,0,0,1,9.17-.35,36.38,36.38,0,0,1,13.22,2.82,96.66,96.66,0,0,1,14.82,7.41,75.76,75.76,0,0,1,13.23,10.58,38.18,38.18,0,0,1,8.64,12.52c1.41,3.88,3,7.94,4.58,12.52a39.55,39.55,0,0,1,2.47,13.05c0,2.3-.88,5.29-2.47,8.82s-2.11,6.53-1.58,9.17a69.16,69.16,0,0,0,3.52-9.52,33.3,33.3,0,0,0,1.24-9.53,53.21,53.21,0,0,0-5.12-22.39c-3.35-7.41-8.81-14.82-16.57-22.4,7.93,7,13.75,14.46,17.46,22.4a53.78,53.78,0,0,1,5.46,22.92c0,13.58-4.94,24.52-15,33s-22.4,15.35-37,20.29a44.84,44.84,0,0,0,4.58-1.59,12.35,12.35,0,0,0,4.23-2.82h-.35c-.35,0-.35,0-.35-.18s-.18-.17-.35-.17L303.37,333c-1.41-.53-2.82-1-3.88-1.58a13.48,13.48,0,0,0-3.88-.71,19.85,19.85,0,0,0-9,2.12,35.12,35.12,0,0,0-5.12,3A12.89,12.89,0,0,0,288,338h-5.12c-.52.53-1.05.88-1.23.71-.35-.18-.35.53-.35,1.94a67.06,67.06,0,0,0,1.76,10.58A112.51,112.51,0,0,0,287,365.3a39.24,39.24,0,0,0,10,14.28q7.16,6.36,13.23,6.88a43.08,43.08,0,0,0,6.88.35h6a176.78,176.78,0,0,0,21.16-1.05,104.34,104.34,0,0,0,18.87-4.59,62.34,62.34,0,0,0-13.58,5.29,10.13,10.13,0,0,0,4.59.71,40.43,40.43,0,0,1,4.58-.18,11.75,11.75,0,0,0,3.71-1.59c1.94-1,3.88-2.11,6.17-3.52,2.11-1.24,4.41-2.47,6.35-3.53a13.74,13.74,0,0,1,3.88-1.59c1.41,0,1.94.18,1.58.71-.35.35,0,.7,1.59.7a19.31,19.31,0,0,0,6.35-1.76,53.16,53.16,0,0,1,8.11-2.65c-2.11,4.06-4.05,6.53-6.17,7.23a62.8,62.8,0,0,0-7.94,3.35v1.24c1.24.53,2.65.35,4.59-.71a10.72,10.72,0,0,1,5.11-1.58,5.56,5.56,0,0,1,3.53,1.06,17.73,17.73,0,0,0,3,1.94c-2.65.52-5.29,1.23-8.11,1.76a34,34,0,0,0-8.12,2.64,11.6,11.6,0,0,0,5.12.71c1.94-.18,4.41-.18,7.76-.18h7.05L400.55,393q-.8.79,0,2.64a6.28,6.28,0,0,1,6.17-1.76c-1.76,1.41-3.7,3.35-6,5.47a31.54,31.54,0,0,1-7.23,5.46c2.64,1.77,3.7,3.53,3,5.29a4.34,4.34,0,0,0,3,.89,18.44,18.44,0,0,0,7.23-.53ZM237.59,383.64v-3H235.3v3Zm.88,3.53v-3h-1.76v3Zm4.41-5.65-2.12-10.58H239l2.12,10.58Zm1.23,16.23-2.64-6.17-1.24.35,2.12,5.64h1.76Zm.89-10.58-1.24-5.29h-1.41l.88,5.29Zm2.29,4.41-1.24-4.41-1.23.35,1.23,3.88h1.24Zm8.29-124.16a71.63,71.63,0,0,0-5.12,13.93c-1.23,5.11-2.47,10.23-3.35,15.17s-1.41,9.87-1.76,14.46a72.23,72.23,0,0,0,0,12.34ZM249.41,396l-1.24-4.41-1.23.35,1.23,3.88h1.24Zm2.29,3.17-1.24-3-1.23.36,1.23,2.64Zm2.11,3.53-1.23-3.53-1.41.88,1.23,2.65Zm3.53,3.35-2.64-3.88-1.24,1.23,2.12,3.53Zm11.11,11.11-10.58-10.58-1.23,1.23,10.58,10.58Zm122.4,3.53c-2.65.88-6.53,2.11-11.82,3.7s-10.75,3.35-16.57,5.12c-5.65,1.76-11.11,3.17-16,4.41a49.79,49.79,0,0,1-10.94,1.76H321a17.3,17.3,0,0,1-5.29-1.06,17.3,17.3,0,0,0-5.29-1.06,47.67,47.67,0,0,1-10.58-1.23,73.66,73.66,0,0,1-11.64-3.71c-3.88-1.58-7.76-3.35-11.29-5.11a55.07,55.07,0,0,1-8.82-5.29c9.35,7.93,19.23,13.05,29.81,15.17,10.4,2.11,19.22,3.35,26.27,3.35h15.88c2.64,0,6.52-.71,11.81-2.12s10.59-3,16.05-4.76,10.41-3.53,14.82-5.29c4.23-2.12,6.88-3.35,8.11-3.88Zm-61.2,6.52a217,217,0,0,1-25.92-3.7A61.59,61.59,0,0,1,276,410.45c1.23,3,3.7,5.47,7.76,7.41A66.54,66.54,0,0,0,297.2,423a137,137,0,0,0,16.05,3,106,106,0,0,0,16.4,1.23ZM345,271.3v-7.06c0-1.23-1.06-2.47-3-3.88a81.32,81.32,0,0,0-7.06-4.23,74.54,74.54,0,0,0-7.93-3.35,20.51,20.51,0,0,0-5.65-1.24,19,19,0,0,0-7.05,1.59,62.7,62.7,0,0,0-7.76,3.7,39.27,39.27,0,0,0-6.88,5.12,19.15,19.15,0,0,0-4.41,5.47q-4,6.07-6.35,10.58c-1.59,3-3,5.64-4.23,8.29a55.88,55.88,0,0,0-3.88,11.28,43.65,43.65,0,0,0-1.77,8.65,4.41,4.41,0,0,0,.71,3,3.71,3.71,0,0,1,.71,1.76h3.88a33.33,33.33,0,0,0,3.52-3.35,10.43,10.43,0,0,1,3.53-2.47,14.89,14.89,0,0,1-3.7,1.23,22.43,22.43,0,0,0-3.71,1.24c-.35,0-.35-.35-.35-.88v-.18a50.69,50.69,0,0,1,9.88-5.64A91.51,91.51,0,0,1,303,297.4c3.53-.88,7.06-1.77,10.41-2.82a72.22,72.22,0,0,0,10.4-4.24,52,52,0,0,0,10.58-7A84.83,84.83,0,0,0,345,271.3ZM287.85,436v-1.76h-3.17V436Zm5.29,2.29v-1.76H290v1.76Zm52.74-130c-8.82,3.18-17.81,6.18-26.81,9-9.17,2.82-18,5.46-26.81,8.11a4.06,4.06,0,0,0,.35,2.12l.89.88a289.54,289.54,0,0,0,28-8.64c10-3.53,18.16-7.41,24.34-11.47ZM296.67,439.2v-1.77H293.5v1.77Zm.88-212.35v-1.76h-3v1.76Zm5.65,162.61a23,23,0,0,0-2.65-2.12,18.49,18.49,0,0,0-3.53-2.11,6.47,6.47,0,0,0,2.12,4.41h4.06Zm51.49-157.85a41,41,0,0,0-16.93-9.52,62.09,62.09,0,0,0-15.16-2.47c-.89,0-2.3.18-4.24.35-1.94.36-4.05.71-6.52,1.06a56,56,0,0,0-7.41,1.59c-2.47.53-4.76,1.23-6.88,1.76a65.11,65.11,0,0,1,11.47-.7c3.52.17,6,.17,7.4.17,3.53,0,6.53,0,9-.17a38.66,38.66,0,0,1,7.76.35,80.3,80.3,0,0,1,9,2.12c3.35,1.58,7.59,3.17,12.52,5.46ZM334.06,427.2v-1.76h-4.41v1.76ZM364.92,308l-.35-1.23L361.93,308v1.23ZM375,434.79,374.1,433l-11.47,4.76V439Zm1.41-138.27-1.24-.89-9.34,9.17.88,1.24Zm4.76,95.06a13.58,13.58,0,0,0-3.35,2.11,2.68,2.68,0,0,1-3.35.36c.35,0,.7.35,1.23.88a1,1,0,0,1,.36.88,13.62,13.62,0,0,0,3.35-2.12c1.23-.7,1.76-1.58,1.76-2.11ZM378.5,293l-1.76-.35-1.23,2.64,1.76.88Zm15,117.46-.36-1.77-11.46,4.77v1.23Z" transform="translate(-9.37 -103.22)"/><path class="cls-1" d="M425.59,562.12h-1.76v-8.29h1.76ZM612.36,344.84a27.87,27.87,0,0,1-.7,4.59c-.35,2.47-1.06,5.29-1.77,8.29s-1.58,6.17-2.47,9.17a79.52,79.52,0,0,1-2.64,7.76A90.85,90.85,0,0,1,599.31,387a76.07,76.07,0,0,1-6.17,9.7,58.1,58.1,0,0,1-7.76,8.64c-3,2.83-6.17,5.82-9.7,9q-4.5,4-13.23,7.93c-5.82,2.65-12.17,5.12-18.87,7.41A188,188,0,0,1,524,435.32a73.33,73.33,0,0,1-14.82,2.11H491.55l-.88-1.76a7.2,7.2,0,0,0-1.58-1.77,5,5,0,0,0-2.83-.88H474.8v65.61a159.78,159.78,0,0,1-1.23,16c-.89,7.76-1.94,15.7-3,24-1.24,8.29-2.3,15.52-3.35,22s-1.77,9.7-1.94,9.7a34.68,34.68,0,0,0,.7-5.29,16.94,16.94,0,0,0-.7-6.53q-3.45,4.5-2.65,11.64a38.86,38.86,0,0,1-.35,12.17,20.86,20.86,0,0,1-1.94,5.12,33.54,33.54,0,0,0-2.47,6.35c-1.24-.88-1.76-1.77-1.76-2.47a12.93,12.93,0,0,1,.17-2.47,16,16,0,0,0,.35-3.35,10.49,10.49,0,0,0-1.05-5.12c-.53,1.77-1.24,3.53-1.77,5.29a10.19,10.19,0,0,1-2.64,4.41,31,31,0,0,1,.35-3.88,12.88,12.88,0,0,0-.35-5.64,24.89,24.89,0,0,0-3,6.88c-.88,2.82-2.12,4.23-3.53,4.23s-1.94-.17-1.23-.7q.79-.54,0-1.59a8.53,8.53,0,0,0-1.77,3.53,10.68,10.68,0,0,0-1.23-4.77,28.23,28.23,0,0,1-2.12-6.17,2.2,2.2,0,0,1,.35,1.24c0,.53-.52.88-1.76.88-1.41,0-2.12-.18-2.12-.71s-.35-.88-.88-1.59c-.53,1.24-1.23,2.3-1.76,3.53a8.76,8.76,0,0,1-1.76,2.65c0-.88.17-2.12.35-3.71a24.25,24.25,0,0,0,.35-5.11c-.53,0-.88-.18-.88-.35,0-.36-.35-.71-.88-1.24a14.46,14.46,0,0,0-1.06,3.71,13,13,0,0,1-1.06,3.7l-1.76-37.92,7.4-42.33v2.12a2.94,2.94,0,0,0,.89,2.12c.53-5.65.88-10.94.88-16.23V475.7a8.59,8.59,0,0,0-1.77,3.53c.53-4.94.89-10.4,1.06-16.22s0-11.82-.17-17.64a90.65,90.65,0,0,0-.18,12.17,79.63,79.63,0,0,0,1.06,10.76l1.76-63.5-2.11-56.43,3-2.12,3,106.53c.53-4.94,1.06-9.88,1.24-14.47.35-4.76.35-9.52.35-14.46l-8.29-159.08a95.63,95.63,0,0,0-1.06,11.29c-.18,4.23-.18,8.64-.18,13.05a84.7,84.7,0,0,0-.17-13.4c-.35-4.59-.71-9.53-.71-14.82a7,7,0,0,1,.89-2.47,7.27,7.27,0,0,0,.88-3.35,100.62,100.62,0,0,0-.88-12.17c-.53-4.23-1.24-8.64-1.77-13.05-.35-1.23,0-2.64,1.06-4.41a9.46,9.46,0,0,0,1.59-4.76,14.87,14.87,0,0,0-2.12-7.94c-1.23,0-1.94.36-2.12.89-.35.52-.7.88-1.23.88a28.76,28.76,0,0,1,5.11-6.88,33.43,33.43,0,0,0,5.47-6.88c.53,1.41,1.59,3.53,2.82,6s2.65,3.7,4.24,3.7c2.64,0,4.23-1.06,4.76-3a8,8,0,0,1,1.94,3.53,2.74,2.74,0,0,1-.35,2.12c-.36.53-.89,1.05-1.24,1.58a2.85,2.85,0,0,0-.7,1.94,5.15,5.15,0,0,0,1.05,2.83,20,20,0,0,1,1.94,3.35c.89-1.24.71-3-.35-5.65a31.48,31.48,0,0,0,3.53,4.41c2.64-1.23,5.82-2.64,9.7-4.41s7.76-3.52,11.82-5.29a97.85,97.85,0,0,1,12.69-4.58,47.14,47.14,0,0,1,12.7-1.94c1.41,0,2.47.35,2.82,1s1.41,1.06,2.82,1.06,2.12-.17,2.12-.35c0-.35.35-.71.88-1.23-.53.52-.88,1-1.06,1.23-.17.35.53.35,1.94.35s1.94-.17,1.24-.7c-.53-.36-.18-.71,1.23-.71,1.24,0,4.24.88,9,2.82s9.35,3.88,13.4,6a66,66,0,0,0,6.53,1.76,22.62,22.62,0,0,1,7.4,3q3.68,2.56,7.24,5.29a83.82,83.82,0,0,1,8.11,7.06,107.76,107.76,0,0,1,20.63,26.45c4.94,9.17,9.17,16.23,12.35,21.17A31.94,31.94,0,0,1,603,288.4c.88,3.53,1.94,7.06,3,10.59a19.45,19.45,0,0,1-.35,2.47,3.91,3.91,0,0,0,0,2.82,75.44,75.44,0,0,1,2.47,13.93,110,110,0,0,1,.18,15.17,11.45,11.45,0,0,0,1.76,5.46c1.76,2.83,2.29,4.59,2.29,6ZM433.53,547.13a47.52,47.52,0,0,0-2.65,11.64c-.52,4.59-1.23,9-1.76,13.4.53-3.88,1.24-7.93,2.12-12.52,1.06-4.58,1.76-8.82,2.29-12.52ZM432.3,253.66h-1.77v-3.88h1.77Zm2.11,59.44h-1.76l-1.24-19.4h2.12Zm5.29,187.65a4.34,4.34,0,0,0-.88-3,3.65,3.65,0,0,1-.88-2.65,95.28,95.28,0,0,1-1.59,24.69c-1.59,7.94-3.17,16.05-4.58,24.17.53-3.18,1.23-7.23,2.11-11.82.88-4.76,1.77-9.17,2.65-13.58s1.59-8.29,2.11-11.64a28.85,28.85,0,0,0,1.06-6.17Zm-1.76,69.31h-2.12l-.88,11.81h1.76Zm.88-309.35a145.56,145.56,0,0,0,0-21.51,78.77,78.77,0,0,0-3-18c.53,10,1.24,18,1.94,24a133.72,133.72,0,0,1,1.06,15.52Zm1.41,203.53v-4.41h-2.11v4.41Zm0,25.22V465.65h-2.11v23.81ZM441.11,266v-3h-1.76v3Zm0,191.7v-3h-1.76v3Zm4.77-129.62c-.53-2.3-1.24-5.12-1.77-8.12s-1.23-5.64-1.76-7.76c.53,6.7.88,13.58,1.06,20.46s.52,13.65,1,20.46a71.82,71.82,0,0,1,1.06-11.64A37.86,37.86,0,0,0,445.88,328.09Zm.88,166.13A124,124,0,0,0,444.11,514a183.26,183.26,0,0,1-1.76,18.52Zm.88-63.84a67.37,67.37,0,0,0,1.06-20.64,108,108,0,0,0-3.35-18.87c.53,6.7.88,13.58,1,20.28.36,6.53.71,13.05,1.24,19.23Zm5.82,149.38v-6.17h-2.12v6.17ZM572,331.26a60.14,60.14,0,0,0-.89-6c-.52-3-1.41-6.52-2.46-10.58-1.06-3.88-2.12-8.11-3.53-12.52s-2.65-8.29-3.71-11.46c-1.41-3.18-3-6.71-4.58-10.41s-3.18-7.05-4.59-10.4a6,6,0,0,1,4.41,1.94,15.44,15.44,0,0,1,3,5.11c.88,2.12,1.76,4.23,2.47,6.52a28,28,0,0,0,2.82,6.18,81.8,81.8,0,0,0-13.58-26.1,69,69,0,0,0-10.58-10.94,50.8,50.8,0,0,0-11.82-7.41,11.32,11.32,0,0,0,2.12,1.77,11.3,11.3,0,0,1,2.12,1.76c-5.29-2.29-9-4.76-10.94-7.05-3.91-.74-7.86-1.32-11.81-1.77a79,79,0,0,0-8.82-.35c-2.65,0-5.12,0-7.41-.18s-4.94-.35-7.94-.7a3.65,3.65,0,0,1,2.65-.88,13.44,13.44,0,0,0-6.17,1.58,44,44,0,0,0-5.65,3.36c-1.76,1.23-3.35,2.29-4.76,3.35a6.55,6.55,0,0,1-3.53,1.58c-1.41,0-1.76-.17-1.06-.7.71-.35.36-.71-1.05-.71s-2.83,1.06-3.88,3c-1.24,2.12-1.59,3.53-1.24,4.41a3.27,3.27,0,0,0,1.94-.71,1.58,1.58,0,0,1,1.94.18,21.41,21.41,0,0,1-3.53,2.47,3.19,3.19,0,0,0-1.76,1.94,39.62,39.62,0,0,1,2.65,10.93c.35,3.88.35,7.59.35,11.29s0,7.23-.18,10.58a29.24,29.24,0,0,0,.71,9c1.23,8.46,2.47,19.22,3.88,31.92s2.82,27,3.88,42.5a2,2,0,0,1,.35-1.23c0-.35.18-.53.35-.88a110.88,110.88,0,0,1,1.59,17.63,6,6,0,0,1-.7,3.36,5.72,5.72,0,0,1-1.59,1.94h15a3.44,3.44,0,0,0-1.94-.36,2.82,2.82,0,0,1-1.94-.88h10.05c-2.29,0-3.88-.35-4.41-.88,8.29-1.24,16.4-2.12,24.52-3s15.87-1.76,23.63-2.64a54.12,54.12,0,0,0,10-5.12,75.29,75.29,0,0,0,10.06-7.23,13.69,13.69,0,0,0-2.12.35,1.81,1.81,0,0,1-2.12-.35,23.51,23.51,0,0,0,8.82-9.88c1.76-3.88,3.35-7.76,4.76-11.28a6,6,0,0,1-.17,4.58,10.57,10.57,0,0,0-1.06,4.23c1.41-5.29,3-10.23,4.76-15A45.47,45.47,0,0,0,572,331.26ZM494.91,230.38l-6.18-.35H487.5a19.16,19.16,0,0,1-4.59,1.23,23.88,23.88,0,0,0-4.23,1.24,30.71,30.71,0,0,0-3.7,1.76,49.12,49.12,0,0,0-9.7,7.23,11.34,11.34,0,0,0-2.47,3.35c4.76-3.17,10.05-6.52,16.22-9.88s11.47-4.93,15.88-4.58ZM472,506.92v-9.7h-1.77v9.7Zm70.9-118a67.16,67.16,0,0,1-16.76,5.47c-6.52,1.23-13,2.29-19.57,3q-9.42,1-18.88,1.58c-6,.36-10.93.53-14.81.89h19.75c3.53,0,6.53,0,9.17-.18s4.24-.18,4.77-.18a67.93,67.93,0,0,0,10.75-1.76c5.65-1.23,10.59-2.12,14.29-3a18.05,18.05,0,0,0,6.17-2.82,20.09,20.09,0,0,1,5.12-3ZM507.6,237.79V236h-9.17v1.77Zm5.65,1.41v-2.12H508v2.12Zm38.8,155h-3.88a89.29,89.29,0,0,1-17.82,6.88,90.66,90.66,0,0,1-16.93,3.35l6.53.35h1.59c3-.52,6-1.23,9.17-2.11s6-1.77,8.29-2.65A34.08,34.08,0,0,0,552.05,394.22ZM518.54,241v-1.41l-4.76-1.23v1.76Zm10.23,3-3.88-1.23V244l3.52,1.23Zm5.29,144.62v-1.76h-2.65v1.76Zm27.69-122c-1.24-4.4-4.06-9.17-8.65-14.1s-9-8.12-13.4-9.17a79.83,79.83,0,0,1,11.82,11.46c3.88,4.23,7.23,8.29,10.23,11.81ZM547.64,387.17l-.36-1.24-2.64,1.24v1.23ZM563.16,418l-.88-1.23-10.06,5.64v1.24Zm1.23-45.85-1.23-.36-1.77,2.65,1.77.88Zm12.88-35.63A55.78,55.78,0,0,0,576,326c-.88-4.41-1.94-8.82-3-13.4q-1.71-6.39-3.7-12.7c-1.23-3.88-2.47-7.06-3.35-9.53,1.76,7.59,3.7,15.35,6,23.28a89.32,89.32,0,0,1,3.35,22.93c0,1.41-.36,4.76-.89,9.7A57,57,0,0,1,571.8,359q2-6.57,3.7-13.23c1.06-4.58,1.77-7.76,1.77-9.17Zm-8.47,29.1-1.23-.35-1.77,2.64,1.77.89Zm16.4-34c0-2.64,0-4.76-.17-6.52A28.66,28.66,0,0,0,584,319.8a49.73,49.73,0,0,0-2.47-6.18c-1.06-2.29-2.29-5.29-3.7-8.81a81.52,81.52,0,0,1,4.41,21.87q.78,12.17,0,17.46a16.77,16.77,0,0,0,2.46-6.53c.18-2.82.53-4.76.53-6Z" transform="translate(-9.37 -103.22)"/><path class="cls-2" d="M825.59,292.46c.35,8.82.18,18-.35,27.69s-1.24,19.58-1.77,29.45c-.53,11.82-.88,23.46-.7,35.28s.17,23.27.17,34.74a28.05,28.05,0,0,0-.88-9.7,11,11,0,0,0-1.94,9.17,45.18,45.18,0,0,1,1.06,9.7,30.49,30.49,0,0,1-1.23,8.82,53.17,53.17,0,0,0-1.77,8.29,25.34,25.34,0,0,1-1.59-6.53,44.51,44.51,0,0,0-1.05-6.52c-.53,1.76-1.24,3.52-1.77,5.11s-1.23,3.35-1.76,5.12V433a4.91,4.91,0,0,0-1.94,3.88,18.92,18.92,0,0,1-1.06,4.76v-.35a.92.92,0,0,0-.35-.7c-.35-.18-.53-.53-.88-1.06a2.7,2.7,0,0,1-1.94,1.23c-1.06.35-2.12.71-3.35,1.24l-4.41,1.76v-.35a.93.93,0,0,0-.36-.71c-.35-.17-.53-.53-.88-1.06-.53.53-1.06,1.24-1.59,1.77a1.35,1.35,0,0,0,.18,1.76l-1.59-5.29a19,19,0,0,0-1.58-4.76c-1.77,1.23-3.18,1.23-4.41,0a4,4,0,0,0-1.06,2.12,12.28,12.28,0,0,1-1.06,3v-3.88a6.91,6.91,0,0,0-.88-3.52,4.25,4.25,0,0,0-1.24,2.11,6.08,6.08,0,0,1-1.23,2.12,89.31,89.31,0,0,1-1.23-16.76c-.53,0-.89-.17-.89-.35,0-.35-.35-.7-.88-1.23-1.76,1.76-3.7,3.52-5.64,5.29-2.12,1.76-4.06,3.35-6,4.76s-3.53,2.65-5.11,3.7a6.86,6.86,0,0,1-3,1.59c-.88,0-2.47.71-4.76,1.94q-4.11,2.22-8.12,4.59a60.52,60.52,0,0,1-9.7,4.58,25.66,25.66,0,0,1-8.64,1.94,13.11,13.11,0,0,1-3-.17,3.62,3.62,0,0,0-2.64.7,4,4,0,0,0,2.12,1.06,4,4,0,0,1,2.11,1.06c-3.17-.35-6.52-.53-9.7-.71a48.66,48.66,0,0,0-10.93.71h.35c.35,0,.88-.35,1.76-1.24a2.11,2.11,0,0,0-2.47,0,5.42,5.42,0,0,1-3.35.89,16.35,16.35,0,0,1-3.88-1.06,71.94,71.94,0,0,1-7-3c-2.65-1.24-5.29-2.65-8.11-4.23a39.27,39.27,0,0,1-6.88-4.41,126.76,126.76,0,0,1-11.47-10.06c-3.52-3.52-6.87-7.23-10-10.93A84.12,84.12,0,0,1,647.81,405a18,18,0,0,1-2.64-11.64,1,1,0,0,0-.35.88,1.49,1.49,0,0,0-.36,1.24c-.35-3.18-.7-7.06-1.23-11.47s-1.24-8.64-1.77-12.69-1.05-7.76-1.58-10.76c-.36-3-.71-4.94-.71-5.47a43.77,43.77,0,0,1,1.06-9q1.07-5,2.65-10.06c1-3.35,2.11-6.52,3-9.17,1.06-2.82,1.77-5.11,2.47-6.88.36,0,1.24.71,2.65,2.12,2.29-4.06,4.58-8.29,6.52-12.52a73.56,73.56,0,0,1,7.94-12.52c.35,0,.35-.18.35-.36l-.88-.88-2.64,1.76c.88-1.23,3-3,6.17-5.64s6.88-5.47,10.76-8.29a131.39,131.39,0,0,1,11.64-7.76c3.88-2.11,6.7-3.35,8.81-3.35,1.42,0,1.77.18,1.06.71-.7.35-.35.7,1.06.7s1.59-.35.18-1.06c-1.24-.7-1.24-1.05.17-1.05a20.91,20.91,0,0,0,6.35-.71,81,81,0,0,0,7.76-2.47h.36c.35,0,.35,0,.35-.18s.35-.17.88-.17c1.41,0,2.29.35,2.65,1.06s1.23,1.05,2.64,1.05a8.51,8.51,0,0,0,2.65-.35,5.29,5.29,0,0,1,2.64-.35c.53-.53,1.06-.53,1.24,0,.35.53-.18.53-1.24,0a26.39,26.39,0,0,0,7.41,2.47,14.38,14.38,0,0,1,6.53,2.47c1.41,1.23,3.88,1.76,7,1.76s5.64.71,7.41,2.12a118.73,118.73,0,0,1,13.93,10.4,131.5,131.5,0,0,1,13,13.05,4.91,4.91,0,0,0,0-3.88,9.58,9.58,0,0,1-.88-3.88,88.32,88.32,0,0,0-4.23-28c-2.83-8.29-8.82-16.75-17.82-25.39,1.24.35,2.3.7,3.53,1.05s2.65.89,4.41,1.59a32.28,32.28,0,0,0-12.35-9,53.41,53.41,0,0,0-15-3.71,120.09,120.09,0,0,0-16.05-.7c-5.46.17-10.58.17-15.16.17-1.41,0-2.12,0-1.77.18s.53.53.88,1.06c-2.29.35-5.29.88-8.81,1.76a34.62,34.62,0,0,1-7.41,1.24c-1.41,0-2.12-.18-1.94-.71.18-.35-.53-.7-1.94-.7a10.16,10.16,0,0,0-3.53,1.23q-2.93,1.47-6,2.65c-2.12.88-4.24,1.76-6.18,2.64a11.42,11.42,0,0,1-4.23,1.24c-1.41,0-1.94-.18-1.23-.71.53-.35.17-.71-1.24-.71-1.76,0-4.58,1.59-8.29,4.77v.35a1.31,1.31,0,0,0,.88,1.23c.53-.53,1.06-.88,1.59-.7a4,4,0,0,0,1.59.17c-2.29,0-4.76,0-7.23-.17a19.86,19.86,0,0,0-7.23.7v-5.29a6.43,6.43,0,0,0,2.64-1.94c.53-.7,1.41-1.76,2.65-3.35-1.24-1.23-2.3-2.11-3.35-3s-1.77-1.58-2.47-2.11a5.27,5.27,0,0,0,1.23-1.77c.35-.53,1.24-.88,2.65-.88s2.29.18,2.47.71a11.84,11.84,0,0,0,1,1.58l3.53-3.88c-.53-.88-1.59-.7-3,.36a55.33,55.33,0,0,1,9.53-7.06,142.21,142.21,0,0,1,13.58-7.4c4.76-2.3,9.7-4.41,14.46-6.35a56.42,56.42,0,0,1,12.52-3.71l.88-1.76a67.23,67.23,0,0,1,11.82.88,26.64,26.64,0,0,0,9.17,0q9.79-1.32,23.28,2.12a124.73,124.73,0,0,1,27.34,10.58,106.58,106.58,0,0,1,24.69,17.64c7.41,7,12.34,14.63,15,22.92.53,2.12,1.23,4.59,1.76,7.41.53,3,1.06,5.29,1.24,7.05a88.76,88.76,0,0,1,1.06,11.82q.25,7.41,3.7,12.17Zm-181,90q-.79-7.94-1.59-20.64a123,123,0,0,1,.71-22c-.53,2.64-1.24,5.82-1.94,9.52a51.45,51.45,0,0,0-1.06,7.23c0,.53.17,1.94.35,3.88.35,2.12.71,4.41,1.06,7.05s.88,5.29,1.23,8.12c.53,2.82.89,5.11,1.24,6.88Zm.88-44.09V333.9h-1.76v4.42Zm1.23-4.42v-3h-2.11v3Zm0,53.8v-5.29h-2.11v5.29Zm.89-57.32v-3h-1.77v3ZM650.28,378l-2.64-26.46h-1.77l3,26.46Zm-2.64,13.22v-3h-1.77v3Zm1.41,3v-3h-2.12v3Zm.88-72.31h-1.76l-.89,5.29h1.24Zm15.34-16.22-1.23-.36-10,18,1.23.89Zm23.81-78.49c-4.05,1.24-8.64,2.47-13.58,3.88a31.64,31.64,0,0,0-12.34,6.53c4.41-1.76,9-3.7,13.93-5.64q6-2.43,12-4.77Zm90.3,132.63c-1.23-4.76-2.12-7.76-2.65-9.17a13.11,13.11,0,0,0-1.94-3.53,32.39,32.39,0,0,1-2.82-3.88c-1.23-1.76-2.82-5.64-4.76-11.46a2.31,2.31,0,0,0-1.23-2.12c-.53-.35-1.06-.53-1.24-.88a10.07,10.07,0,0,0-2.82-3.88c-1.23-1.24-2.29-2.12-2.82-2.65a25.91,25.91,0,0,0-6-4.58q-3.21-1.86-6.52-3.53a57.17,57.17,0,0,0-6.18-2.47,23.29,23.29,0,0,0-3.7-.88c-.35,0-.35-1.06-.35-3,0-2.11,0-4.23.17-6.52s.36-4.59.36-6.53c.17-2.12.17-3,.17-2.64l-3.53,16.75a30.33,30.33,0,0,1-3.35-1.94,5,5,0,0,0-2.82-.71c-1.41,0-3.53,0-6-.17s-4.06,0-4.59.7c-4.06.53-7.94,1.24-11.64,1.94s-7.58,3.18-11.64,7.23c-1.41,1.42-3,1.77-4.59.89s-3.17-.36-4.58,1.23c-4.76,5.82-7.94,10.58-9.52,13.93s-2.12,7.94-1.59,13.94c.35,2.29-.18,5.46-1.24,9.17a31.16,31.16,0,0,0-1.76,7.93,45.36,45.36,0,0,0,.35,6.18,5.22,5.22,0,0,0,1.77,2.82,5.87,5.87,0,0,1,1.76,2.82,56.92,56.92,0,0,0,6.53,16.93A61,61,0,0,0,692.08,406a65.61,65.61,0,0,0,14.28,10A32.82,32.82,0,0,0,721.53,420c1.41,0,3.53-.18,6-.35,2.47-.35,4.41-.53,6-.88a20.32,20.32,0,0,0,7.41-4.24c3-2.11,4.76-3.35,5.65-3.35,1.41,0,1.94.36,1.58,1.06s0,1.06,1.59,1.06c.88,0,2.65-1.06,5.12-3.35,2.46-2.12,5.11-4.76,7.93-7.41a101.65,101.65,0,0,0,7.41-8.11c2.12-2.65,3.53-4.59,4.23-5.65a41.38,41.38,0,0,0,3.35-12.17,92,92,0,0,1,1.59-11.28,8.67,8.67,0,0,1,.88-2.82,14.51,14.51,0,0,0-.88-2.65ZM678.5,424.56l-6.17-6.18-.88,1.24,5.64,5.64Zm-3,4.41-3-3-.88,1.23,2.65,2.65Zm7.41-1.24-2.65-2.65L679,426.32l2.64,2.64Zm6.52-20.28-4.4-1.24V408l3.52,1.23Zm4.06-180.25v-1.76h-3.17v1.76Zm3.53,215v-1.76h-3.18v1.76Zm3,.88v-1.76h-3v1.76Zm3.52,1.42v-1.77h-3v1.77ZM723.47,271.3h-4.94c-1.41,0-4,.7-7.76,2.11s-6.87,2.82-9.52,3.88a31,31,0,0,0,3.88-.35,18.76,18.76,0,0,1,4.41-.35c1.41,0,3.53-.71,6.17-2.12a33.88,33.88,0,0,1,7.76-3.17ZM708,230.73V229h-5.29v1.76Zm0,214.64h-4.41V443.6H708Zm3.18,1.23H708v-1.76h3v1.76Zm6.52-217.1v-1.77h-3v1.77Zm0,218h-3v-1.76h3Zm10.23-218v-1.77h-3v1.77Zm7.94,193.82-.88-1.76-5.65,2.64v1.24Zm3.88-136.51v-1.76l-8.29-1.23v2.11Zm-3-55.2h-4.41v-1.76h4.41Zm31.75,4.06a73.19,73.19,0,0,0-9-7.06,22.92,22.92,0,0,0-14.81-4.41H739a60.24,60.24,0,0,1,15.88,4.41A88.14,88.14,0,0,1,768.45,235.67Zm3.88,79.19-1.24-3-1.76.35,1.23,2.65Zm4.4-62.08-3.52-6.18-1.77.89,3.53,6.17Zm-2.29,65.6-1.23-3.52-1.77.88,1.24,2.64Zm0,82-1.76-.35-1.24,2.65,1.77.88ZM788.2,292.46a45,45,0,0,0-1.24-9.88c-.88-3.88-1.94-7.93-3-11.81q-1.86-5.82-3.71-10.59a21.3,21.3,0,0,0-3.7-6.35,78.65,78.65,0,0,1,9.52,29.81A197.45,197.45,0,0,1,787.14,312a32.62,32.62,0,0,1,.18-10.93C787.85,296.69,788.2,293.87,788.2,292.46Zm-4.06,133.86V413.09h-1.76v13.23Zm9.7-142.15v-2.82a13.46,13.46,0,0,0-.35-3.35,8.24,8.24,0,0,1-.71-2.83,5.07,5.07,0,0,0-.7-2.46,47,47,0,0,0-5.65-10.06c2.12,4.06,3.71,9.53,4.77,16.05a118,118,0,0,1,2.11,15.7ZM790,364.77v-7.41h-2.11v7.41Zm.88,68.25V424.2h-1.76V433Zm22-1.41v-5.29h-1.76v5.29Zm7.94-68.25V356h-2.12v7.41Zm444.79,39.33c0,1.41-.35,4.76-.88,9.87s-1.24,9.7-1.77,13.94a16.44,16.44,0,0,0,.88-5.65,25.3,25.3,0,0,0-.88-6.52c-4,4.76-5.64,8.64-4.58,11.81a78.23,78.23,0,0,1,2.47,10.94A16.76,16.76,0,0,0,1258,444a28.65,28.65,0,0,1-2.47,7.76c-2.65-3-3.88-4.59-3.53-4.76.35-.36.35-1.06.35-2.12v-7.41a3.49,3.49,0,0,0-2.64,3.71,10,10,0,0,1-1.24,5.11,18.57,18.57,0,0,0,2.82.7c2.12.36,3,.71,2.47.71.36-1.76-.53-4.06-2.64-7.05s-3-5.12-3-6.53a8.63,8.63,0,0,0-.18-2.65,5.53,5.53,0,0,0-1.06-1.23,9.75,9.75,0,0,0-.88,3.88,36.39,36.39,0,0,1-.35,4.41c-.35,1.41.53,3,2.47,4.41s2.64,2.82,1.94,3.88v-.88l-1.24-1.24a11.11,11.11,0,0,0-1.58,2.12,4.78,4.78,0,0,1-1.59,2.11,4.75,4.75,0,0,0-1.24-3.52,4.31,4.31,0,0,0-1.23,2.11,4.09,4.09,0,0,1-2.12,2.12,15.92,15.92,0,0,0-1-5.47c-.71-1.94-1.41-3.7-1.94-5.46l-2.3,2.11c-.53-.53-.88-.88-.7-.88H1233a2.93,2.93,0,0,0-3,1.59,5.45,5.45,0,0,1-3,2.47V436.9c0-3.88,0-7.93-.18-12.34s-.35-8.47-.53-12.35-.18-6.17-.18-7c0-.53-.17-3.35-.7-8.29s-.88-10.94-1.41-18q-.81-10.92-1.06-21.87-.53-11.11-.53-20.11c0-30.51-.88-59.43-2.47-86.59-1.76-27.16-4.58-55-8.46-83.42h-.89c.36,4.05.53,9,.89,14.81.35,5.65.35,11.11.35,16.05l-4.76-52a13.06,13.06,0,0,0,.88,4.41c.53,1.41,1.23,3,1.76,4.41.53-.53.88-1.06.71-1.59a10,10,0,0,1-.18-2.82c0-1.41-.88-4.94-2.47-10.58a145.64,145.64,0,0,1-3.35-14.46c1.41-.53,2.12-1.94,2.12-3.88a9,9,0,0,0-.71-3.88c-.35-1.24-1.59-2.65-3.35-4.41a9.7,9.7,0,0,0-1.76,5.64A11.16,11.16,0,0,1,1202,114a35.37,35.37,0,0,1,3-5.12,37.75,37.75,0,0,1,3.53-3.88c1.23-1.23,2.11-1.76,2.64-1.76,1.41,0,3,1.24,4.41,3.7s3,3.71,4.41,3.71a7.82,7.82,0,0,0,5.29-1.94c1.41-1.24,3.71-1.24,6.53.17a3.68,3.68,0,0,1-1.24,2.65,11.61,11.61,0,0,1-3,2.12,36.19,36.19,0,0,0,1.94,3.52c.71,1.24,2.3,2.3,4.59,3.53a5.27,5.27,0,0,0-1.06-2.47,5.84,5.84,0,0,1-1.06-3.35,22.27,22.27,0,0,1,3.88,4.23,9.47,9.47,0,0,1,2.12,4.24c.53,3,1.23,6.35,2.12,10.4.88,3.88,1.76,7.94,2.64,11.64a14.38,14.38,0,0,0,1.94,4.59,19.71,19.71,0,0,1,1.77,3.35,24.42,24.42,0,0,1,1,3.88,31.77,31.77,0,0,1,.36,6.52v4.41c1.23,0,1.76-.35,1.76-.88v-1.76a31.76,31.76,0,0,0-.18,10.05c.36,3.53.89,7.41,1.06,11.46a4.28,4.28,0,0,1,1.24,2.12,6.08,6.08,0,0,0,1.23,2.12,58.7,58.7,0,0,1,.18,13.58c-.36,4.05-.88,8.46-1.24,13.05s-.7,9.7-.88,15.16a94,94,0,0,0,1.94,19.76l1.24.88v5.47a45.38,45.38,0,0,0,.88,8.11l-.36.35a3.14,3.14,0,0,0-.7.88,3.08,3.08,0,0,1-.71.89,27.63,27.63,0,0,1,.36,13.22,61.67,61.67,0,0,0-.71,8.12,7.57,7.57,0,0,0,4.59,7.76ZM1218.35,156a40.57,40.57,0,0,1-1-7.76c-.18-3-.36-6.17-.89-9.52a68,68,0,0,0-1.94-9.88,32.52,32.52,0,0,0-4.41-9.87l-1.76,2.64a25.91,25.91,0,0,0,1.06,5.29c.7,2.65,1.76,5.65,2.82,9,1.24,3.35,2.29,6.88,3.35,10.58C1216.41,150.13,1217.47,153.31,1218.35,156Zm-6,9.17-1.24-7.4h-1.76l.88,7.41Zm3,185h-1.77l-1.23-30.33h2.11Zm9.34,60.32a24.8,24.8,0,0,0-.53,4.76c-.17,3-.17,6.17-.35,9.7s-.35,6.88-.53,9.88a29.73,29.73,0,0,1-.7,5.46c-.53-3.17-1.24-6.7-1.77-10.4s-1.23-7.06-1.76-10.41c-.35,0-.35.18-.35.35-.36.36-.36.89-.36,1.77a237.19,237.19,0,0,1-2.64-26.81,143.49,143.49,0,0,1,1.23-25v3.7a14.15,14.15,0,0,0,.88,4.23c0-4.93-.17-10.75-.35-17.1-.35-6.53-.53-12.7-.88-18.7s-.53-11.29-.88-15.69-.36-6.88-.36-7.41V287.87a9.93,9.93,0,0,1,.18-2.64,12.4,12.4,0,0,0,.18-3,19,19,0,0,0-1.24-6c-.88-2.47-1.23-4.41-.88-6V229.32c0,.53.71.88,1.94,1.06s1.94.88,1.94,2.47v37.39c0,.88.18,2.82.35,6,.18,3,.53,6.53.71,10.59.18,3.88.53,8.11.88,12.52s.71,8.29.88,11.46Zm-5.82,8.82v-6.18h-2.11v6.18Zm9.35-198.59a53.45,53.45,0,0,0-1.59-9.17,63.14,63.14,0,0,0-3.7-11.82c.7,8.29,1.23,15,1.94,20.46s1.23,10.41,1.94,14.81a42.88,42.88,0,0,1,.7-7.75,39.16,39.16,0,0,0,.71-6.53Zm5.64,74.95a23.42,23.42,0,0,0-.7-4.23q-.63-3.73-1.59-7.41c-.53-2.82-1.23-5.64-1.94-8.29-.7-2.82-1.41-5.29-1.94-7.76.53,8.29,1.06,15,1.59,20.46q.53,8.21,1.59,14.82a18.19,18.19,0,0,1,1.94-3.71,7.59,7.59,0,0,0,1-3.88Zm.53,102.12V361.24a8.62,8.62,0,0,0-1.94,4.59,38.78,38.78,0,0,0-.7,5.46c0,.53,0,1.94.17,3.88.18,2.12.36,4.41.71,7.06s.53,5.29.88,8.11c.35,3,.53,5.29.88,7.41Zm.88,40.56V427.73h-1.76v10.58Zm23.81-69.13v-7.41c-2.11,0-3,1.24-3,3.53q0,2.11,1.05,2.64a4,4,0,0,1,1.94,1.24Z" transform="translate(-9.37 -103.22)"/><path class="cls-1" d="M1478.49,292.46c.35,8.82.18,18-.35,27.69s-1.24,19.58-1.76,29.45c-.54,11.82-.89,23.46-.71,35.28s.18,23.27.18,34.74a28.09,28.09,0,0,0-.89-9.7,11,11,0,0,0-1.94,9.17,45.18,45.18,0,0,1,1.06,9.7,30.49,30.49,0,0,1-1.23,8.82,53.17,53.17,0,0,0-1.77,8.29,24.88,24.88,0,0,1-1.58-6.53,46,46,0,0,0-1.06-6.52c-.53,1.76-1.24,3.52-1.76,5.11s-1.24,3.35-1.77,5.12V433a4.94,4.94,0,0,0-1.94,3.88,18.5,18.5,0,0,1-1.06,4.76v-.35a.89.89,0,0,0-.35-.7c-.35-.18-.53-.53-.88-1.06a2.66,2.66,0,0,1-1.94,1.23c-1.06.35-2.12.71-3.35,1.24l-4.41,1.76v-.35a1,1,0,0,0-.35-.71c-.36-.17-.53-.53-.89-1.06-.53.53-1,1.24-1.58,1.77a1.34,1.34,0,0,0,.17,1.76l-1.58-5.29a19.43,19.43,0,0,0-1.59-4.76c-1.76,1.23-3.18,1.23-4.41,0a4,4,0,0,0-1.06,2.12,11.88,11.88,0,0,1-1.06,3v-3.88a6.91,6.91,0,0,0-.88-3.52,4.17,4.17,0,0,0-1.23,2.11,6.25,6.25,0,0,1-1.24,2.12,89.31,89.31,0,0,1-1.23-16.76c-.53,0-.88-.17-.88-.35,0-.35-.36-.7-.89-1.23-1.76,1.76-3.7,3.52-5.64,5.29-2.12,1.76-4.06,3.35-6,4.76s-3.52,2.65-5.11,3.7a6.86,6.86,0,0,1-3,1.59c-.88,0-2.47.71-4.76,1.94q-4.1,2.22-8.11,4.59a61.34,61.34,0,0,1-9.7,4.58,25.71,25.71,0,0,1-8.65,1.94,13,13,0,0,1-3-.17,3.65,3.65,0,0,0-2.65.7,4.07,4.07,0,0,0,2.12,1.06,4,4,0,0,1,2.11,1.06c-3.17-.35-6.52-.53-9.7-.71a48.69,48.69,0,0,0-10.93.71h.35c.35,0,.88-.35,1.77-1.24a2.11,2.11,0,0,0-2.47,0,5.46,5.46,0,0,1-3.35.89,16.35,16.35,0,0,1-3.88-1.06,72,72,0,0,1-7.06-3c-2.64-1.24-5.29-2.65-8.11-4.23a39.65,39.65,0,0,1-6.88-4.41,125.27,125.27,0,0,1-11.46-10.06c-3.53-3.52-6.88-7.23-10.06-10.93a83.07,83.07,0,0,1-7.4-10.76,17.94,17.94,0,0,1-2.65-11.64,1,1,0,0,0-.35.88,1.51,1.51,0,0,0-.35,1.24c-.36-3.18-.71-7.06-1.24-11.47s-1.23-8.64-1.76-12.69-1.06-7.76-1.59-10.76c-.35-3-.71-4.94-.71-5.47a44.47,44.47,0,0,1,1.06-9q1.06-5,2.65-10.06c1.06-3.35,2.11-6.52,3-9.17,1-2.82,1.76-5.11,2.47-6.88.35,0,1.23.71,2.64,2.12,2.29-4.06,4.59-8.29,6.53-12.52a74.13,74.13,0,0,1,7.93-12.52c.36,0,.36-.18.36-.36l-.89-.88-2.64,1.76c.88-1.23,3-3,6.17-5.64s6.88-5.47,10.76-8.29a132.87,132.87,0,0,1,11.64-7.76c3.88-2.11,6.7-3.35,8.82-3.35,1.41,0,1.76.18,1.06.71-.71.35-.36.7,1,.7s1.59-.35.18-1.06c-1.23-.7-1.23-1.05.18-1.05a21,21,0,0,0,6.35-.71c1.58-.35,4.23-1.23,7.76-2.47h.35c.35,0,.35,0,.35-.18s.35-.17.88-.17c1.41,0,2.3.35,2.65,1.06s1.23,1.05,2.64,1.05a8.51,8.51,0,0,0,2.65-.35,5.29,5.29,0,0,1,2.64-.35c.53-.53,1.06-.53,1.24,0,.35.53-.18.53-1.24,0a26.5,26.5,0,0,0,7.41,2.47,14.38,14.38,0,0,1,6.53,2.47c1.41,1.23,3.88,1.76,7,1.76s5.65.71,7.41,2.12a118.73,118.73,0,0,1,13.93,10.4,131.5,131.5,0,0,1,13,13.05,4.91,4.91,0,0,0,0-3.88,9.58,9.58,0,0,1-.88-3.88,88.32,88.32,0,0,0-4.23-28c-2.82-8.29-8.82-16.75-17.81-25.39,1.23.35,2.29.7,3.52,1.05s2.65.89,4.41,1.59a32.33,32.33,0,0,0-12.34-9,53.49,53.49,0,0,0-15-3.71,120.23,120.23,0,0,0-16-.7c-5.47.17-10.59.17-15.17.17-1.41,0-2.12,0-1.76.18s.52.53.88,1.06c-2.3.35-5.29.88-8.82,1.76a34.62,34.62,0,0,1-7.41,1.24c-1.41,0-2.11-.18-1.94-.71.18-.35-.53-.7-1.94-.7a10.16,10.16,0,0,0-3.53,1.23q-2.93,1.47-6,2.65c-2.12.88-4.23,1.76-6.17,2.64a11.45,11.45,0,0,1-4.24,1.24c-1.41,0-1.94-.18-1.23-.71.53-.35.17-.71-1.24-.71-1.76,0-4.58,1.59-8.29,4.77v.35a1.32,1.32,0,0,0,.89,1.23c.53-.53,1.05-.88,1.58-.7a4.1,4.1,0,0,0,1.59.17c-2.29,0-4.76,0-7.23-.17a19.86,19.86,0,0,0-7.23.7v-5.29a6.36,6.36,0,0,0,2.64-1.94c.53-.7,1.41-1.76,2.65-3.35-1.23-1.23-2.29-2.11-3.35-3s-1.76-1.58-2.47-2.11a5.27,5.27,0,0,0,1.23-1.77c.36-.53,1.24-.88,2.65-.88s2.29.18,2.47.71a12.17,12.17,0,0,0,1.06,1.58l3.52-3.88c-.53-.88-1.58-.7-3,.36a55.19,55.19,0,0,1,9.52-7.06,142.21,142.21,0,0,1,13.58-7.4c4.76-2.3,9.7-4.41,14.46-6.35a56.58,56.58,0,0,1,12.52-3.71l.89-1.76a67.18,67.18,0,0,1,11.81.88,26.64,26.64,0,0,0,9.17,0q9.79-1.32,23.28,2.12a124.73,124.73,0,0,1,27.34,10.58,106.58,106.58,0,0,1,24.69,17.64c7.41,7,12.35,14.63,15,22.92.53,2.12,1.24,4.59,1.77,7.41.52,3,1,5.29,1.23,7.05a88.76,88.76,0,0,1,1.06,11.82q0,7.41,3.7,12.17Zm-181.13,90q-.79-7.94-1.58-20.64a123.06,123.06,0,0,1,.7-22c-.53,2.64-1.23,5.82-1.94,9.52a52.45,52.45,0,0,0-1,7.23c0,.53.17,1.94.35,3.88.35,2.12.7,4.41,1.06,7.05s.88,5.29,1.23,8.12c.53,2.82.88,5.11,1.24,6.88Zm.89-44.09V333.9h-1.77v4.42Zm1.41-4.42v-3h-2.12v3Zm0,53.8v-5.29h-2.12v5.29Zm.7-57.32v-3h-1.76v3ZM1303,378l-2.65-26.46h-1.76l3,26.46Zm-2.65,13.22v-3h-1.76v3Zm1.41,3v-3h-2.11v3Zm.89-72.31h-1.77l-.88,5.29h1.24ZM1318,305.69l-1.23-.36-10.06,18,1.24.89Zm23.81-78.48c-4.06,1.23-8.64,2.46-13.58,3.88a31.74,31.74,0,0,0-12.35,6.52c4.41-1.76,9-3.7,13.94-5.64q6-2.43,12-4.76Zm90.3,132.62c-1.24-4.76-2.12-7.76-2.65-9.17a13.26,13.26,0,0,0-1.94-3.53,32.39,32.39,0,0,1-2.82-3.88c-1.23-1.76-2.82-5.64-4.76-11.46a2.31,2.31,0,0,0-1.23-2.12c-.53-.35-1.06-.53-1.24-.88a10.07,10.07,0,0,0-2.82-3.88c-1.24-1.23-2.29-2.11-2.82-2.64a26,26,0,0,0-6-4.59c-2.14-1.24-4.31-2.42-6.53-3.53a58.31,58.31,0,0,0-6.17-2.47,24.56,24.56,0,0,0-3.7-.88c-.35,0-.35-1.06-.35-3,0-2.11,0-4.23.17-6.52s.35-4.59.35-6.53c.18-2.11.18-3,.18-2.64l-3.53,16.75a29.43,29.43,0,0,1-3.35-1.94,4.57,4.57,0,0,0-2.82-.7c-1.41,0-3.53,0-6-.18s-4,0-4.58.71c-4.06.53-7.94,1.23-11.64,1.94s-7.58,3.17-11.64,7.23a3.61,3.61,0,0,1-4.59.88c-1.58-.88-3.17-.35-4.58,1.23-4.76,5.82-7.94,10.59-9.53,13.94s-2.11,7.93-1.58,13.93c.35,2.29-.18,5.47-1.24,9.17a31.21,31.21,0,0,0-1.76,7.94,45.3,45.3,0,0,0,.35,6.17,5.13,5.13,0,0,0,1.77,2.82,6,6,0,0,1,1.76,2.82,57.17,57.17,0,0,0,6.52,16.93A60.87,60.87,0,0,0,1344.81,406a65.27,65.27,0,0,0,14.28,10,32.82,32.82,0,0,0,15.17,3.88c1.41,0,3.53-.17,6-.35,2.47-.35,4.41-.53,6-.88a20.42,20.42,0,0,0,7.41-4.23c3-2.12,4.76-3.35,5.64-3.35q2.12,0,1.59,1c-.35.71,0,1.06,1.59,1.06.88,0,2.64-1.06,5.11-3.35,2.47-2.12,5.12-4.76,7.94-7.41a100,100,0,0,0,7.41-8.11c2.11-2.65,3.52-4.59,4.23-5.64a41.77,41.77,0,0,0,3.35-12.17,90,90,0,0,1,1.59-11.29,8.67,8.67,0,0,1,.88-2.82,7.77,7.77,0,0,0-.88-2.65Zm-100.88,64.73-6.17-6.18-.89,1.24,5.65,5.64Zm-3,4.41-3-3-.88,1.23,2.64,2.65Zm7.41-1.24-2.65-2.64-1.23,1.23,2.64,2.65Zm6.7-20.28-4.41-1.23V408l3.53,1.23Zm3.88-180.24v-1.77h-3v1.77Zm3.53,215v-1.77h-3v1.77Zm3.17.88v-1.77h-3v1.77Zm3.53,1.41v-1.77h-3v1.77ZM1376.2,271.3h-4.76c-1.41,0-4.06.7-7.76,2.11s-6.88,2.83-9.53,3.88a30.84,30.84,0,0,0,3.88-.35,18.76,18.76,0,0,1,4.41-.35c1.41,0,3.53-.71,6.18-2.12a36.4,36.4,0,0,1,7.58-3.17Zm-15.34-40.57V229h-5.29v1.76Zm0,214.64h-4.41v-1.76h4.41Zm3,1.23h-3v-1.76h3Zm6.71-217.1v-1.76h-3v1.76Zm0,218h-3v-1.76h3Zm10-218v-1.77h-3v1.77Zm7.94,193.82-.89-1.76L1382,424.2v1.24Zm3.88-136.5v-1.77l-8.29-1.23v2.11Zm-3-55.21H1385v-1.76h4.41Zm31.74,4.06a72.08,72.08,0,0,0-9-7,22.85,22.85,0,0,0-14.82-4.41h-5.64a59.7,59.7,0,0,1,15.87,4.41,86.4,86.4,0,0,1,13.58,7Zm3.88,79.19-1.23-3-1.77.35,1.24,2.65Zm4.41-62.08-3.52-6.17-1.77.88,3.53,6.17Zm-2.11,65.61-1.24-3.53-1.76.88,1.23,2.65Zm0,82-1.77-.36-1.23,2.65,1.76.88Zm13.58-107.94a45.58,45.58,0,0,0-1.24-9.88c-.88-3.88-1.94-7.93-3-11.81q-1.85-5.82-3.7-10.58a21.38,21.38,0,0,0-3.7-6.35,78.6,78.6,0,0,1,9.52,29.8,197.54,197.54,0,0,1,1.06,28.4,32.67,32.67,0,0,1,.18-10.94C1440.57,296.69,1440.93,293.87,1440.93,292.46Zm-3.88,133.86V413.09h-1.77v13.23Zm9.7-142.15v-2.82a13.35,13.35,0,0,0-.36-3.35,8,8,0,0,1-.7-2.82,5.05,5.05,0,0,0-.71-2.47,47.4,47.4,0,0,0-5.64-10.06c2.12,4.06,3.7,9.53,4.76,16.05a118.3,118.3,0,0,1,2.12,15.7Zm-4.06,80.6v-7.41h-2.12v7.41Zm.88,68.25V424.2h-1.76V433Zm22-1.41v-5.29h-1.77v5.29Zm7.93-68.25V356h-2.11v7.41Z" transform="translate(-9.37 -103.22)"/><path class="cls-2" d="M1675.31,224.56c0,.53-.17,2.12-.35,4.76-.35,2.65-.53,5.64-.88,9s-.53,6.87-.88,10.58a94,94,0,0,0-.36,9.52v-.35l-.88-1.77a3.57,3.57,0,0,0-.35,3,12.14,12.14,0,0,1,.35,3.53h-1.23a22.49,22.49,0,0,0-2.65,5.12,28,28,0,0,0-1.76,6.87,105.11,105.11,0,0,1-7.23,27.16c-3.35,7.76-6.7,15.88-9.88,24.52-.53.35-.88.53-.88.88,0,.53.53.88,1.76.88,1.42,0,2.12-.17,1.94-.35-.17-.35,0-.35.71-.35a83,83,0,0,0-6.17,9.87q-2.53,4.83-5.29,9.53a50.56,50.56,0,0,1-3.35,4.23c-1.24,1.59-2.47,3.17-3.36,4.58a8.39,8.39,0,0,0-1.23,4.41,4.68,4.68,0,0,0,2.65,3.88c-3,4.94-6.88,12-11.64,21s-10.41,18.87-16.58,29.81-12.7,22.39-19.4,34.39-13.41,23.63-19.76,34.57c-6.52,10.93-12.52,21-18.34,30.15-5.64,9.17-10.58,16.23-14.28,21.17a12.52,12.52,0,0,0,1.76-3.35c.35-1.06.71-2.12,1.23-3.35l-1.23-.89a5.61,5.61,0,0,0-5.11,4.59,18.44,18.44,0,0,1-3.35,7.23q-5.3,2.11-10.59,7.94l-1.76-1.77a4.61,4.61,0,0,1,.88-6.35,15,15,0,0,0,3-3.7v-1.23c-1.24,1.23-2.29,2.11-3.35,3a5.5,5.5,0,0,1-3.71,1.24,7,7,0,0,1-3.52-.71,7.34,7.34,0,0,0-2.12-.7,11.22,11.22,0,0,0,3.88-2.47q1.95-1.67,3.88-3.35a6,6,0,0,0-4.58.17,10.58,10.58,0,0,1-4.24,1.06v-.35c0-.35-.35-.71-.88-1.23a6.45,6.45,0,0,0-4.41,2.11v-1.76a2.81,2.81,0,0,0-.88-1.77,2.81,2.81,0,0,1-1.76.89h-1.77a4.81,4.81,0,0,1,1.59-2.12,5.52,5.52,0,0,0,1.59-1.94,3.1,3.1,0,0,0-.18-2.47c-.35-.88-1.76-1.94-3.7-3a4.64,4.64,0,0,1-2.65,1.06,5.17,5.17,0,0,1-3.53-.7,5.22,5.22,0,0,0,3.53-5.3v-.35a4.35,4.35,0,0,0-.35-1.23,9.68,9.68,0,0,1-2.47,1.58,6.14,6.14,0,0,0-2.47,1.59,72,72,0,0,1,2.82-10.4c1.24-3.71,2.65-7.59,3.71-11.64a5.13,5.13,0,0,0-2.65,2.82c-.53,1.23-1.23,2.64-1.76,4.23.53-1.76,2.64-5.64,6-11.46s7.41-12.7,11.82-20.46c4.59-7.76,9.52-16.23,15-25,5.47-9,10.58-17.28,15.34-25s9.18-14.64,13.06-20.46,6.52-9.52,7.93-10.93c-.53.53-.35,1.23.35,2.11a57.25,57.25,0,0,0,4.77-8.64c1.41-3,3-6.17,4.41-9.52l.88-.88c0-.53-.36-.89-1.24-.89-1.41,0-2.11.18-1.94.36.18.35,0,.35-.7.35,1.23-1.76,1.76-4.59,1.94-8.29.17-3.88.17-6.52.17-7.94,0-.88-.7-2.11-1.94-3.88a56.33,56.33,0,0,0-4.23-5.29,39.89,39.89,0,0,0-4.58-4.76,23.7,23.7,0,0,1-2.83-2.64,23,23,0,0,1-3.7-5.29c-1.23-2.3-2.65-4.77-3.7-7.06a5.07,5.07,0,0,1,.17-1.59c.18-.35,0-.88-.17-1.58-2.12-4.06-4.06-8.12-6.18-11.82-2.11-3.88-4.23-7.94-6.52-12.35a81.09,81.09,0,0,1-4.23-12.17c-1.06-3.88-2.12-7.93-3.35-11.64l3,3c0,.36.18.36.36.36v-.71c0-.35,0-.53.17-.71s.18-.52.18-1.05c0-1.24-1.06-3.88-3.35-8.29s-4.24-8.64-6-12.7c-.35,0-.35.18-.35.35-.35.35-.35.88-.35,1.77a8.26,8.26,0,0,1-.71-4.24,8.08,8.08,0,0,0-.71-4.58c-.35,0-.52.17-.88.35-.35.35-.35.88-.35,1.76q-1.93-5-3.7-10a45.94,45.94,0,0,1-2.47-10.05c-2.3-2.29-3.71-4.06-3.88-5.29a75.08,75.08,0,0,1-1.24-7.94c-.53,0-.7-.18-.35-.35.35-.35-.35-.35-1.76-.35s-2.12.17-2.12.35c0,.35-.35.35-.88.35.53-.88,1.23-2.12,2.11-3.7a34,34,0,0,0,2.12-4.59,13.69,13.69,0,0,1,2.12.35,10.1,10.1,0,0,0,3.52.36,13.88,13.88,0,0,0,7.41-2.12c.53,0,.88.35.88,1.24v2.11a3,3,0,0,0,2.65.71,6.34,6.34,0,0,1,3.88.7c2.12,3.18,4.41,6.53,7,9.88a47.16,47.16,0,0,1,6.18,9.88c3.17,6.17,6.52,13.22,9.87,21s6.7,15.52,9.88,23.11a4.06,4.06,0,0,0,1.59,1.05,2,2,0,0,1,1,1.06c.89,2.3,1.77,4.76,2.83,7.41a71,71,0,0,1,2.47,7.94,4.86,4.86,0,0,0,2.11,2.82,11.2,11.2,0,0,1,3,2.82,55.69,55.69,0,0,1,8.64,11.29A94.09,94.09,0,0,0,1590,323.5c2.65-5.64,5.65-11.46,9.17-17.81s7.41-12.88,11.47-19.58l.88.88c.35.35.88.35,1.76.35-3.17,6.71-6.52,13.41-10,19.76-3.53,6.52-6.7,13-9.7,19.75l1.77,1.76c4-7.05,8.28-14.63,12.52-22.92a184.16,184.16,0,0,0,9.87-22.05c3-7.58,5.65-15.34,8.12-22.93a243,243,0,0,1,8.64-22.92v-2.65h-.88L1627.17,250q-3.18,7.14-6.88,14.81l14.46-39.68a9.86,9.86,0,0,0,.18,2.11,4,4,0,0,0,1.06,2.12c2.11-2.64,2.82-6,2.46-9.88a43.27,43.27,0,0,1,.18-10.75H1643a30.75,30.75,0,0,0,.71-3.35,9.67,9.67,0,0,0-.71-4.59,1.53,1.53,0,0,1-1.06-.35c-.17-.36-.53-.36-1.06-.36l-3,1.77a18.28,18.28,0,0,1,2.11-3.53,4.13,4.13,0,0,1,3.53-1.76c1.23,0,1.23.35.35,1.06s-.53,1,.88,1a5,5,0,0,0,3.88-1.76,11.77,11.77,0,0,1,3.53-2.65,35.88,35.88,0,0,1,7.94,10.94,8.51,8.51,0,0,1,3.52.7,12.38,12.38,0,0,0,3.53.71h5.29v3.88a15,15,0,0,0-5.29.88,36.32,36.32,0,0,0,1.94,3.53,33.29,33.29,0,0,1,1.94,3.53,8,8,0,0,0,.88-3v-2.12a50.06,50.06,0,0,1,1.77,5.47,13.7,13.7,0,0,1,1.58,5.82Zm-102.64,155.2-78.48,134.39c1.76-2.64,4.76-7.41,9.17-14.46s9.35-15.17,15-24.16c5.64-9.17,11.46-18.7,17.46-28.93,6-10.05,11.64-19.75,16.93-28.92s9.7-17.11,13.23-23.81C1569.49,387,1571.79,382.41,1572.67,379.76ZM1500,511a20,20,0,0,1-2.12,3.7c-.88,1.23-1.23,2.29-.88,2.82a8.17,8.17,0,0,0,2.65-3.7c.17-1.24.35-2.29.35-2.82Zm17.63-280.6c-.53-1.41-1.58-3.7-3-6.53-1.42-3-3.18-4.41-5.3-4.41,1.24,1.42,2.65,3.36,4.41,5.47,1.59,2.12,3,4.06,3.88,5.47Zm58.91,155.91c-1.24,1.23-3.53,4.41-7.06,9.7s-7.58,11.64-12.16,18.87c-4.59,7.4-9.35,15.16-14.29,23.63-4.94,8.29-9.7,16.23-13.93,23.63s-7.94,13.58-10.94,18.87-4.94,8.47-5.46,9.7c.88-1.23,3-4.4,6.35-9.7s7.4-11.64,11.81-18.87q7.19-11.61,14.29-23.28c4.93-8.29,9.7-16,14.11-23.28,4.4-7.4,8.28-13.75,11.46-19.22,3.35-5.64,5.29-8.82,5.82-10Zm-58-140.92v-3h-2.12v3Zm-2.3,285.36a4.28,4.28,0,0,0,1.24-2.12c.35-.88-.18-1.58-1.24-2.11Zm5.29-275.66v-2.64h-1.76v2.64Zm14.11,18.87c-.53-2.29-1.58-5.29-2.82-8.82a38.55,38.55,0,0,0-3.35-7.4c.88,2.29,1.94,5.11,3.35,8.11a55.91,55.91,0,0,1,2.82,8.11Zm-1.76,11.11-1.24-6.17h-1.76l1.24,6.17Zm.88,3V285.4H1533v2.65Zm15,31.22q-3.59-7.72-7.41-15.35t-7.4-15.34a140.2,140.2,0,0,0,6.35,14.81,165.69,165.69,0,0,0,8.46,15.88Zm3.18-9.17a50.43,50.43,0,0,0-4.24-9c-1.94-3.35-4-5.82-6.35-7.23,1.77,3,3.53,5.82,5.47,8.64,1.94,2.65,3.53,5.29,5.12,7.59Zm-1.41,19.75-1.24-3-1.76.35,1.23,2.65Zm7.93,154.67a6.71,6.71,0,0,0-2.11,3.71,13.52,13.52,0,0,0-.36,3.7c.53-1.24,1.24-2.47,1.77-3.7a13.88,13.88,0,0,0,.7-3.71Zm12.7-135.27-4.76-6.17-1.24.88,4.77,6.17Zm-.88,7.58h-1.77l3,7.94,1.77.88Zm2.29,9.17-1.76-.88-2.12,5.29,1.24.36Zm4.41-20.28-6.17-7.05-1.24.88,5.65,7.41Zm-2.29,16.76h-1.76l-1.24,16.75,1.76.35Zm34.39-42.33c-1.24,1.76-2.65,4.06-4.59,7.05s-2.82,5.12-2.82,6.53.36,2.29,1.06,2.64a20.18,20.18,0,0,1,1.94.89,33.9,33.9,0,0,0,2.82-9.17c.53-2.83,1.06-5.47,1.59-7.94Zm22-50.62a128,128,0,0,1-4.58,13.05,124.88,124.88,0,0,0-4.59,12.17,22.15,22.15,0,0,0,8.12-12.7C1632.28,276.59,1632.63,272.53,1632.1,269.53Zm18.17-55.38c0-3.17-1.06-5.29-3-6.17-.53,5.64-1.23,10.94-1.76,16.23s-1.24,10-1.77,14.46a137.61,137.61,0,0,0,4.42-14.11C1649.39,219.09,1650.27,215.56,1650.27,214.15Z" transform="translate(-9.37 -103.22)"/><path class="cls-1" d="M1893.3,292.46c.35,8.82.18,18-.35,27.69s-1.24,19.58-1.76,29.45c-.53,11.82-.89,23.46-.71,35.28s.18,23.27.18,34.74a28.09,28.09,0,0,0-.89-9.7,11,11,0,0,0-1.94,9.17,45.18,45.18,0,0,1,1.06,9.7,30.49,30.49,0,0,1-1.23,8.82,53.17,53.17,0,0,0-1.77,8.29,24.88,24.88,0,0,1-1.58-6.53,46,46,0,0,0-1.06-6.52c-.53,1.76-1.24,3.52-1.76,5.11s-1.24,3.35-1.77,5.12V433a4.94,4.94,0,0,0-1.94,3.88,18.5,18.5,0,0,1-1.06,4.76v-.35a.89.89,0,0,0-.35-.7c-.35-.18-.53-.53-.88-1.06a2.66,2.66,0,0,1-1.94,1.23c-1.06.35-2.12.71-3.35,1.24l-4.41,1.76v-.35a1,1,0,0,0-.35-.71c-.36-.17-.53-.53-.89-1.06-.53.53-1,1.24-1.58,1.77a1.34,1.34,0,0,0,.17,1.76l-1.58-5.29a19.43,19.43,0,0,0-1.59-4.76c-1.76,1.23-3.18,1.23-4.41,0a4,4,0,0,0-1.06,2.12,12.28,12.28,0,0,1-1.06,3v-3.88a6.91,6.91,0,0,0-.88-3.52,4.17,4.17,0,0,0-1.23,2.11,6.25,6.25,0,0,1-1.24,2.12,89.31,89.31,0,0,1-1.23-16.76c-.53,0-.88-.17-.88-.35,0-.35-.36-.7-.89-1.23-1.76,1.76-3.7,3.52-5.64,5.29-2.12,1.76-4.06,3.35-6,4.76s-3.52,2.65-5.11,3.7a6.86,6.86,0,0,1-3,1.59c-.88,0-2.47.71-4.76,1.94q-4.1,2.22-8.11,4.59a61.34,61.34,0,0,1-9.7,4.58,25.71,25.71,0,0,1-8.65,1.94,13,13,0,0,1-3-.17,3.65,3.65,0,0,0-2.65.7,4.07,4.07,0,0,0,2.12,1.06,4,4,0,0,1,2.11,1.06c-3.17-.35-6.52-.53-9.7-.71a48.69,48.69,0,0,0-10.93.71h.35c.35,0,.88-.35,1.77-1.24a2.11,2.11,0,0,0-2.47,0,5.46,5.46,0,0,1-3.35.89,16.35,16.35,0,0,1-3.88-1.06,72,72,0,0,1-7.06-3c-2.64-1.24-5.29-2.65-8.11-4.23a39.65,39.65,0,0,1-6.88-4.41A125.27,125.27,0,0,1,1733,426.67c-3.53-3.52-6.88-7.23-10.06-10.93a83.07,83.07,0,0,1-7.4-10.76,17.94,17.94,0,0,1-2.65-11.64,1,1,0,0,0-.35.88,1.49,1.49,0,0,0-.36,1.24c-.35-3.18-.7-7.06-1.23-11.47s-1.23-8.64-1.76-12.69-1.06-7.76-1.59-10.76c-.35-3-.71-4.94-.71-5.47a44.47,44.47,0,0,1,1.06-9q1.07-5,2.65-10.06c1.06-3.35,2.11-6.52,3-9.17,1.05-2.82,1.76-5.11,2.47-6.88.35,0,1.23.71,2.64,2.12,2.29-4.06,4.59-8.29,6.53-12.52a74.13,74.13,0,0,1,7.93-12.52c.36,0,.36-.18.36-.36l-.89-.88-2.64,1.76c.88-1.23,3-3,6.17-5.64s6.88-5.47,10.76-8.29a132.87,132.87,0,0,1,11.64-7.76c3.88-2.11,6.7-3.35,8.82-3.35,1.41,0,1.76.18,1.06.71-.71.35-.36.7,1,.7s1.59-.35.18-1.06c-1.23-.7-1.23-1.05.18-1.05a21,21,0,0,0,6.35-.71c1.58-.35,4.23-1.23,7.76-2.47h.35c.35,0,.35,0,.35-.18s.35-.17.88-.17c1.41,0,2.3.35,2.65,1.06s1.23,1.05,2.64,1.05a8.51,8.51,0,0,0,2.65-.35,5.29,5.29,0,0,1,2.64-.35c.53-.53,1.06-.53,1.24,0,.35.53-.18.53-1.24,0a26.5,26.5,0,0,0,7.41,2.47,14.38,14.38,0,0,1,6.53,2.47c1.41,1.23,3.88,1.76,7,1.76s5.65.71,7.41,2.12a118.73,118.73,0,0,1,13.93,10.4,131.5,131.5,0,0,1,13,13.05,4.91,4.91,0,0,0,0-3.88,9.58,9.58,0,0,1-.88-3.88,88.32,88.32,0,0,0-4.23-28c-2.82-8.29-8.82-16.75-17.81-25.39,1.23.35,2.29.7,3.52,1.05s2.65.89,4.41,1.59a32.33,32.33,0,0,0-12.34-9,53.49,53.49,0,0,0-15-3.71,120.23,120.23,0,0,0-16-.7c-5.47.17-10.59.17-15.17.17-1.41,0-2.12,0-1.76.18s.52.53.88,1.06c-2.3.35-5.29.88-8.82,1.76a34.62,34.62,0,0,1-7.41,1.24c-1.41,0-2.11-.18-1.94-.71.18-.35-.53-.7-1.94-.7a10.16,10.16,0,0,0-3.53,1.23q-2.93,1.47-6,2.65c-2.12.88-4.23,1.76-6.17,2.64a11.45,11.45,0,0,1-4.24,1.24c-1.41,0-1.94-.18-1.23-.71.53-.35.17-.71-1.24-.71-1.76,0-4.58,1.59-8.29,4.77v.35a1.32,1.32,0,0,0,.89,1.23c.53-.53,1-.88,1.58-.7a4.1,4.1,0,0,0,1.59.17c-2.29,0-4.76,0-7.23-.17a19.86,19.86,0,0,0-7.23.7v-5.29a6.36,6.36,0,0,0,2.64-1.94c.53-.7,1.41-1.76,2.65-3.35-1.23-1.23-2.29-2.11-3.35-3s-1.76-1.58-2.47-2.11a5.27,5.27,0,0,0,1.23-1.77c.36-.53,1.24-.88,2.65-.88s2.29.18,2.47.71a12.17,12.17,0,0,0,1.06,1.58l3.52-3.88c-.53-.88-1.58-.7-3,.36a55.19,55.19,0,0,1,9.52-7.06,142.21,142.21,0,0,1,13.58-7.4c4.76-2.3,9.7-4.41,14.46-6.35a56.58,56.58,0,0,1,12.52-3.71l.89-1.76a67.18,67.18,0,0,1,11.81.88,26.64,26.64,0,0,0,9.17,0q9.79-1.32,23.28,2.12a124.73,124.73,0,0,1,27.34,10.58,106.58,106.58,0,0,1,24.69,17.64c7.41,7,12.35,14.63,15,22.92.53,2.12,1.24,4.59,1.77,7.41.52,3,1,5.29,1.23,7.05a88.76,88.76,0,0,1,1.06,11.82q.26,7.41,3.7,12.17Zm-181,90q-.8-7.94-1.59-20.64a123.91,123.91,0,0,1,.71-22c-.53,2.64-1.24,5.82-1.94,9.52a51.45,51.45,0,0,0-1.06,7.23c0,.53.18,1.94.35,3.88.36,2.12.71,4.41,1.06,7.05s.88,5.29,1.24,8.12c.53,2.82.88,5.11,1.23,6.88Zm.88-44.09V333.9h-1.76v4.42Zm1.24-4.42v-3h-2.12v3Zm0,53.8v-5.29h-2.12v5.29Zm.88-57.32v-3h-1.77v3ZM1718,378l-2.64-26.46h-1.77l3,26.46Zm-2.64,13.22v-3h-1.77v3Zm1.41,3v-3h-2.12v3Zm.88-72.31h-1.76l-.88,5.29h1.23ZM1733,305.69l-1.24-.36-10,18,1.23.89Zm23.8-78.49c-4,1.24-8.64,2.47-13.58,3.88a31.71,31.71,0,0,0-12.34,6.53c4.41-1.76,9-3.7,13.93-5.64,4-1.62,8-3.21,12-4.77Zm90.3,132.63c-1.23-4.76-2.11-7.76-2.64-9.17a13.39,13.39,0,0,0-1.94-3.53,30.31,30.31,0,0,1-2.82-3.88c-1.24-1.76-2.83-5.64-4.77-11.46a2.31,2.31,0,0,0-1.23-2.12c-.53-.35-1.06-.53-1.24-.88a9.87,9.87,0,0,0-2.82-3.88c-1.23-1.23-2.29-2.12-2.82-2.64a25.27,25.27,0,0,0-6-4.59c-2.13-1.24-4.31-2.42-6.52-3.53a57,57,0,0,0-6.17-2.47,23.31,23.31,0,0,0-3.71-.88c-.35,0-.35-1.06-.35-3,0-2.11,0-4.23.18-6.52s.35-4.59.35-6.53c.18-2.11.18-3,.18-2.64l-3.53,16.75a28.59,28.59,0,0,1-3.35-1.94,4.57,4.57,0,0,0-2.82-.7c-1.41,0-3.53,0-6-.18s-4.06,0-4.59.7c-4,.53-7.93,1.24-11.64,1.94s-7.58,3.18-11.64,7.24c-1.41,1.41-3,1.76-4.58.88s-3.18-.36-4.59,1.23c-4.76,5.82-7.93,10.58-9.52,13.94s-2.12,7.93-1.59,13.93c.35,2.29-.17,5.47-1.23,9.17a30.84,30.84,0,0,0-1.77,7.94,43.26,43.26,0,0,0,.36,6.17A5.21,5.21,0,0,0,1740,372a5.92,5.92,0,0,1,1.76,2.82,56.92,56.92,0,0,0,6.53,16.93A60.83,60.83,0,0,0,1759.79,406a65.43,65.43,0,0,0,14.29,10,32.79,32.79,0,0,0,15.17,3.88c1.41,0,3.52-.18,6-.35,2.47-.35,4.41-.53,6-.88a20.48,20.48,0,0,0,7.41-4.24c3-2.11,4.76-3.35,5.64-3.35,1.41,0,1.94.36,1.59,1.06s0,1.06,1.58,1.06c.89,0,2.65-1.06,5.12-3.35,2.47-2.12,5.11-4.76,7.94-7.41a99.56,99.56,0,0,0,7.4-8.11c2.12-2.65,3.53-4.59,4.24-5.64a41.75,41.75,0,0,0,3.35-12.18,92.09,92.09,0,0,1,1.58-11.28,8.6,8.6,0,0,1,.89-2.82,15.57,15.57,0,0,0-.89-2.65Zm-100.88,64.73-6.17-6.18-.88,1.24,5.64,5.64Zm-3,4.41-3-3-.89,1.23,2.65,2.65Zm7.41-1.24-2.64-2.64-1.24,1.23,2.65,2.65Zm6.53-20.28-4.41-1.24V408l3.53,1.23Zm4-180.25v-1.76h-3v1.76Zm3.53,215v-1.76h-3v1.76Zm3,.88v-1.76h-3v1.76Zm3.53,1.42v-1.77h-3v1.77Zm19.93-173.19h-4.77c-1.41,0-4.05.7-7.76,2.11s-6.87,2.82-9.52,3.88a31,31,0,0,0,3.88-.35,18.76,18.76,0,0,1,4.41-.35c1.41,0,3.53-.71,6.17-2.12a30.07,30.07,0,0,1,7.59-3.17Zm-15.52-40.57V229h-5.3v1.76Zm0,214.64h-4.41V443.6h4.41Zm3.17,1.23h-3v-1.76h3Zm6.53-217.1v-1.77h-3v1.77Zm0,218h-3v-1.76h3Zm10.22-218v-1.77h-3v1.77Zm7.94,193.82-.88-1.76L1797,424.2v1.24Zm3.88-136.5v-1.77l-8.29-1.23v2.11Zm-3-55.21H1800v-1.76h4.41Zm31.75,4.06a71.63,71.63,0,0,0-9-7,22.81,22.81,0,0,0-14.81-4.41h-5.64a59.8,59.8,0,0,1,15.87,4.41A86.85,86.85,0,0,1,1836.16,235.67Zm3.88,79.19-1.24-3-1.76.35,1.23,2.65Zm4.41-62.08-3.53-6.18-1.76.89,3.52,6.17Zm-2.3,65.6-1.23-3.52-1.76.88,1.23,2.64Zm0,82-1.76-.35-1.23,2.65,1.76.88Zm13.76-107.93a45.49,45.49,0,0,0-1.23-9.88c-.89-3.88-1.94-7.93-3-11.81q-1.86-5.82-3.71-10.59a21.08,21.08,0,0,0-3.7-6.34,78.43,78.43,0,0,1,9.52,29.8,196.1,196.1,0,0,1,1.06,28.4,32.67,32.67,0,0,1,.18-10.94c.53-4.41.88-7.23.88-8.64Zm-4.06,133.86V413.09h-1.76v13.23Zm9.7-142.15v-2.82a13.46,13.46,0,0,0-.35-3.35,8,8,0,0,1-.7-2.82,5.17,5.17,0,0,0-.71-2.47,47.4,47.4,0,0,0-5.64-10.06c2.11,4.06,3.7,9.53,4.76,16.05a120,120,0,0,1,2.12,15.7Zm-3.88,80.6v-7.41h-2.11v7.41Zm.89,68.25V424.2h-1.77V433Zm22-1.41v-5.29h-1.76v5.29Zm7.94-68.25V356h-2.12v7.41Z" transform="translate(-9.37 -103.22)"/><path class="cls-1" d="M1142,324.38a.66.66,0,0,1-.53-.17,13.83,13.83,0,0,1-1.41-5.29c-.18,0,0,.88-.89.7-.35-.18-.52-.88-.88-1.41a30.43,30.43,0,0,1-2.64-9.7c-.53-4.06-.88-8.11-1.24-12.17a38.27,38.27,0,0,0-1.23-6.53,11.49,11.49,0,0,0-5.65-7.93,3.62,3.62,0,0,1-1.41-1.77c-2.29-4.05-4.76-8.11-7-12.17-.88-1.41-1.59-2.64-.53-4.4a55.67,55.67,0,0,0-7-4.06c.17.53.53.88.35,1.59-1.94.7-3.88-.53-5.82-.89-1.06-.35-2.47-.17-3.53-.88.53,1.77-1.41,2.12-1.59,3.35a12.19,12.19,0,0,1,1.41,3.53c.71,3.18.53,3.71-2.64,5.29.35,3,.53,6.18,2.29,8.82a2.34,2.34,0,0,0,1.94-.18c2.29-.52,4.06.18,4.59,2.47a20.07,20.07,0,0,1-.18,7.23c0,.18-.18.36-.7.53-1.24-1.23-1.59-3.17-1.94-4.58a2.38,2.38,0,0,1,.17,1.59,30.42,30.42,0,0,0,1.77,10.58,143.91,143.91,0,0,1,4.05,14.81,46.66,46.66,0,0,1-.17,17.82,70.54,70.54,0,0,1-3.53,11.81c-1.41,3.88-4.06,6.53-7.23,9-.36.17-.71.53-1.06.53a48.3,48.3,0,0,1-7.23,1.76c-5.47,1.06-10-.88-13.76-5.12-5.82-6.7-11.64-13.58-16.93-20.81-1.06-1.41-2.11-2.64-1.41-4.58-2.64-3.71-5.82-7.06-8.64-10.41l-2.65-3.17a6.9,6.9,0,0,0-3.7-2.65,2.92,2.92,0,0,1-1.94-1.59c-3.17-4.93-7.76-8.11-12.52-11.28a67.42,67.42,0,0,1-10.41-8.29c-1.58-1.59-3-3.18-2.82-5.65.18-.88-.53-1.23-1.23-1.76a25.3,25.3,0,0,0-5.82-3.7,149.61,149.61,0,0,0-27.34-10.23c-7.76-1.94-15.52-2.65-23.46-.88-2.11.53-4.23.7-6.52,1-7.41,1.24-13.94,4.59-20.28,8.12a62.84,62.84,0,0,0-20.29,17.63,87.82,87.82,0,0,0-15.87,33.51,77.19,77.19,0,0,0-2.47,16.76,52.12,52.12,0,0,0,1.06,11.64,10,10,0,0,1,1.23,3.88,1,1,0,0,0,.18.7c1.59,1.24,1.59,3.35,2.29,5.12a56.75,56.75,0,0,0,3.35,7.41,39.83,39.83,0,0,1-3.17-7.41c-.53-1.77-1.59-3.35-1.06-5.47.35-.53.53-.18.88.18.36.53.71,1.23,1.06,1.76.35.88.71,1.94,1.24,3a21.68,21.68,0,0,1,5.11,2.29c0-.7-.88-1.06-1.06-1.76.18-.71-.35-2.12,1.24-2.3.17,0,.17.18.35.36.71,2.29,1.94,4.05,3.35,4.23.18-1.41-1.23-2.47-1.06-3.7a1.37,1.37,0,0,1,1.41-.36,7.36,7.36,0,0,0,2.47,1.59c-.17-.53-.7-1.41.18-1.94s1.59.18,2.12.71a9.57,9.57,0,0,1,1.05,1.41,3.26,3.26,0,0,0,2.47,1.59c1.59-.18,1.59-1.59,2.47-2.65,2.82.88,5.12-.88,7.59-1.41.88,0,1.41.88,2.29.35-.18-.53-1.06-.53-1.41-1.41a5.42,5.42,0,0,1,.17-2.29c1.06-1.41,2.12-.18,3.35-.18a7.36,7.36,0,0,0-1.58-2.29,2,2,0,0,1-.53-1.59c-.35-.35-1.06-.18-1.24-.88a1.1,1.1,0,0,1,.18-1.06c.71-.35,1.23,0,1.94-.35-1.41-3.18-1.23-6.7-.71-10,1.24-8.47,3.35-16.76,7.59-24.34a17.73,17.73,0,0,1,5.82-6.18c1.76-1,3.53-2.29,5.29-3.35.7-.35,1.41-.88,2.29-.35,0,.88-.7,1.06-1.23,1.41-6.35,4.59-11.47,10.41-14.11,18-2.12,5.64-3,11.64-3.71,17.64a7.56,7.56,0,0,0,1.06,5.11,17,17,0,0,0,2.82.88c-.35-3.35,0-3.88,1.94-3.35-.17-6.7,1.94-12.87,4.41-19,1.41-3.71,3-7.41,4.24-11.29a8,8,0,0,1,4-4.59,74.35,74.35,0,0,1,9-4.76,17.67,17.67,0,0,1,7.4-1.23c6.71,0,12.7,2.11,18.52,5.11a91.65,91.65,0,0,1,32.28,27,168.73,168.73,0,0,0,17.11,18.52c4.4,4.24,9,8.47,13.4,12.7a6.92,6.92,0,0,0,1.76,1.41c.53-1.06-.53-1.94-.35-3,1.23-.35,1.76.53,2.29,1.24a78.77,78.77,0,0,0,15.88,12.7c10.23,6,20.81,6.7,31.74,3,9.52-3.17,17.46-8.81,24.52-16.05,1.58-1.76,3.17-3.7,4.76-5.29.53-.35,1.06,0,1.58-.35,1.59-2.47,3.36-5.11,4.06-8.11,0-.18.35,0,.53-.18a.63.63,0,0,1-.18-.53c3.53-5.64,4.41-12.17,5.29-18.51,0-.53-.17-1.24.71-1.42" transform="translate(-9.37 -103.22)"/><path class="cls-1" d="M895.43,353.13a16,16,0,0,0-.35-3c-.53-1.06-.36-2.11-.71-3.17-.18-.88.35-1.59.18-2.47s-.53-1.77-.18-2.47c.35-1.06-.35-2.12.18-3-.18-1.06.35-1.94,0-3,.53-3,.88-6.17,1.59-9.17.17-1.06.52-1.94.7-3s.53-1.94.71-3c.53-2.12,1.41-4.06,2.11-6.18.53-1.23.88-2.47,1.41-3.7,1.06-2.47,2.3-4.94,3.53-7.41,1.24-2.12,2.29-4.41,3.7-6.52.89-1.24,1.77-2.65,2.65-3.88a50.72,50.72,0,0,1,4.76-6,55,55,0,0,1,7.94-7.76,24.68,24.68,0,0,1,2.64-1.94,30,30,0,0,0,2.47-1.76,29.3,29.3,0,0,1,5.12-3c.88-.53,1.76-1.06,2.82-1.59a11.17,11.17,0,0,0,2.47-1.23c1.23-.71,2.64-1.24,3.88-1.94,1.23-.53,2.47-1.06,3.88-1.59a12.76,12.76,0,0,1,2.47-.71c.7,0,1.23-.53,2.11-.53a10.49,10.49,0,0,0,2.3-.17c1.41-.71,2.82-.53,4.05-.71a52.47,52.47,0,0,1,9-1.23,4.35,4.35,0,0,1,2.11.17c.71.18,1.41-.35,2.12,0s1.59-.35,2.29.18c2.12-.18,4.06.35,6.18.35a11.42,11.42,0,0,1,3.52.71c2.12.7,4.24,1.23,6.35,1.94,1.59.53,3,1.06,4.59,1.59,2.29.7,4.58,1.58,6.7,2.47,2.47,1.05,4.94,1.94,7.41,3.17,1.58.88,3.35,1.59,4.94,2.29a23.25,23.25,0,0,1,4.76,3.35,2.44,2.44,0,0,1,.7,2.12c-.17,0-.35.18-.53.18a13.19,13.19,0,0,0,2.47,3.88c.18.17.18.35.36.35,1.94,1.59,3.52,3.53,5.64,4.94,2.12,1.58,4.23,3.17,6.52,4.58a54.31,54.31,0,0,1,5.29,3.71,31,31,0,0,1,4.59,5.11,7.57,7.57,0,0,0,2.47,2.82c.53-.17,1.06.53,1.94.18,4.94,5.47,9.88,10.93,14.29,16.75l-.18.18-.35-.35s-.18,0-.18.17a3.8,3.8,0,0,0,.35,1.94c.71,1.24,1.77,2.47,2.65,3.71,1.23,1.58,2.47,3.35,3.88,4.94,1.59,2.11,3.17,4.05,4.94,6.17,2.82,3.35,5.82,6.35,8.46,9.87a2.89,2.89,0,0,0,1.59.89,19.28,19.28,0,0,0,6,2.29,7.75,7.75,0,0,1,.88.18c1.23-.18,2.64-.18,3.88-.36.7-.17,1.41-.7,2.29-.53.7-.7,1.59-.17,2.29-.7a9.05,9.05,0,0,1,2.29-.53,20.14,20.14,0,0,0,3.53-3.18,15.51,15.51,0,0,0,3.18-4.41c.88-1.94,1.58-4.05,2.47-6.17a18.41,18.41,0,0,0,1.23-4,35.5,35.5,0,0,0,.88-4.24,14.55,14.55,0,0,0,.36-3.88c0-.53.35-1.05.17-1.58,0-.53-.35-1.06.18-1.41v-.36c-.35-1.41.17-3-.18-4.58a42.17,42.17,0,0,1-.53-4.59c0-.7-.7-1.06-.53-1.94,0-.53.18-1.23-.53-1.76a.56.56,0,0,1,0-.71c.18-1.06-.53-1.76-.7-2.64a15.83,15.83,0,0,0-.88-2.65c-.36-.7,0-1.59-.71-2.12a37.45,37.45,0,0,0-1.23-4.23c-.36-1.23-.71-2.64-1.06-3.88a33,33,0,0,1-.53-4,39,39,0,0,0,0-4.59,56.49,56.49,0,0,0,2.47,5.82c.35-.18-.18-.71.35-.88a12,12,0,0,1,0-2.47c.18-.71-.17-1.41,0-2.29a9.91,9.91,0,0,0-.17-2.3c-.71-1.05-1.24-2.11-2.47-2.47a2.87,2.87,0,0,0-1.77.36c-.53.35-1.23,0-1.59.53-1-.36-1.23-1.41-1.58-2.12a17.64,17.64,0,0,0-1.06-2.65.78.78,0,0,1,0-.88c.53-1.06,0-1.76-.53-2.47.53-.88-.18-1.94.53-2.64.35.35.7.17,1.06.17,0-.17.17-.35.17-.7.36,0,.71-.18,1.06-.18.18-.17,0-.7.35-.88-.17-.88-.17-1.94-.35-2.82-.17-.18-.17-.35,0-.71a2.11,2.11,0,0,1,1.94.71c.53.53.53,1.41,1.77,1.76-1.06-1.94-1.59-3.88-2.65-5.64,2.65-.18,3.88,2.29,6.17,3a8.42,8.42,0,0,0-2.82-4.06c-.35-.35-1.23-.53-.53-1.41l4.94,1.06c.35.17.71,0,1.23.17-.52-1-1.23-1.58-1.41-2.64a50.38,50.38,0,0,1,8.65,4.58V263a.68.68,0,0,1-.53.17c-.36.53-.36,1.24-.71,1.59,1.41,2.29,2.65,4.59,3.88,6.88.88,1.59,1.76,3.17,2.82,4.76.88,1.41,1.41,3,2.82,4.41a1.92,1.92,0,0,0,.89-.18,46.17,46.17,0,0,1,3.7,4.41,3.72,3.72,0,0,1,.88,2.3c0,.88.71,1.58.71,2.47a4.17,4.17,0,0,0,.53,2.46,2.74,2.74,0,0,1,.17,1.24c.53,4.94.88,10.05,1.59,15a26.92,26.92,0,0,0,3,9.7c.17.18.17.53.17,1.06a7.71,7.71,0,0,1,.71-1.77c.18.89.53,1.59.71,2.3.17,1.23.88,2.29.7,3.52,0,.18.18.36.35.18.36,2.82.53,5.47.89,8.29a.63.63,0,0,0-.36.18,21.27,21.27,0,0,1-.53,5.82,34.23,34.23,0,0,1-1.41,5.82,51.24,51.24,0,0,1-2.29,6.87c-.18.18-.35,0-.71.18a3.59,3.59,0,0,0-.7,1.41.18.18,0,0,1,.18.18v.17c-.53,0-.18.71-.53.89l.35.35a22.92,22.92,0,0,1-2.12,4.06c-.7,1.23-1.41,2.46-2.11,3.88-.36,0-.53.17-.89,0,0-.18.18-.18.18-.36-.18-.35-.53,0-.7-.17a.17.17,0,0,0-.18.17,33.34,33.34,0,0,1-2.29,2.82,70.47,70.47,0,0,1-6.35,6.35,78.5,78.5,0,0,1-9.7,7.41c-1.24.71-2.65,1.41-3.88,2.12a37.93,37.93,0,0,0-3.88,1.94c-1.94.17-3.53,1.58-5.47,1.58-1.06.89-2.29.53-3.53,1.06-1.06.53-2.47.36-3.7.53a13,13,0,0,1-3.7.35c-2.12-.17-4.06.18-6.18-.7-2.82-.18-5.29-1.24-7.93-2.29a46.75,46.75,0,0,1-6.53-3.35c-3.88-2.12-7-5.12-10.4-7.94a23.91,23.91,0,0,1-4.24-4.23,2.06,2.06,0,0,0-1.76-1.06,6.4,6.4,0,0,1,.88,1.41,8.41,8.41,0,0,1,.18,2.12c-.18.17-.36.35-.36.52-.35,0-.17-.53-.35-.7-1.59-1.06-2.64-2.47-4-3.53-.89-.53-1.24-1.41-1.94-1.94a9.07,9.07,0,0,1-1.94-1.76,17.72,17.72,0,0,0-2.65-2.47c-1.76-1.59-3.53-3.35-5.29-4.94-1.94-1.76-3.7-3.53-5.47-5.29-1.59-1.94-3.53-3.53-5.11-5.47-1.94-2.29-3.88-4.41-5.82-6.7-1.24-1.41-2.3-3-3.53-4.58a44,44,0,0,0-3.88-4.41c-1.41-1.59-3.18-2.83-4.59-4.41a66.6,66.6,0,0,0-6.52-5.47,61.19,61.19,0,0,0-5.47-3.88c-3.35-1.94-6.52-4.06-10-5.47-1.94-.88-3.88-1.76-5.82-2.47a49.49,49.49,0,0,0-4.94-1.23,29.14,29.14,0,0,0-4.06-.53,11.57,11.57,0,0,0-4.93.18,19.62,19.62,0,0,0-3,.53c-1.24.52-2.47,1.23-3.71,1.76-1,.35-1.94,1.06-3,1.41s-1.77,1.23-2.83,1.59a18.37,18.37,0,0,0-3.17,2.29c-.71.53-.71,1.59-1.06,2.29a5.37,5.37,0,0,1-.88,1.24c.53,1.58-.35,2.82-1.06,4.05-.88,1.77-1.41,3.53-2.12,5.12a11.13,11.13,0,0,0-.88,2.11c-.7,2.47-1.58,4.94-2.29,7.41-.53,1.94-.88,4.06-1.23,6a8.19,8.19,0,0,0-.18,3c.18.7.35,1.41-.35,1.94a2.06,2.06,0,0,0-1.06-1.06,4,4,0,0,1-.71.88c0,.53.18,1.23.18,1.76.35.18.35.71.7,1.06a1,1,0,0,1-1.23.53c-.35-.18-.71-.88-1.41-.88-.53,0-.88.18-1.24.18-.17,0-.17-.18-.35-.36a5.51,5.51,0,0,1-1.06-2.82,18.78,18.78,0,0,1-.17-3.17,18.51,18.51,0,0,0,.53-3c.35-1.94.88-3.88,1-5.82.18-2.29,1.06-4.59,1.59-6.88a27,27,0,0,1,2.65-6.17,36.86,36.86,0,0,1,4.76-6.88,34.3,34.3,0,0,1,3.7-3.53c1.06-.88,2.3-1.76,3.18-2.64.7-.53,1.41-.89,2.29-1.59a2.39,2.39,0,0,0-1.59.35Q948,308,944.28,310.1a14.81,14.81,0,0,0-3.88,4.23c-.88,1.23-1.41,2.65-2.29,4.06l-.53,1.05c-.35,1.06-.88,1.94-1.23,3-.71,1.94-1.24,3.88-1.77,5.82-.7,2.47-1.23,5.12-1.76,7.59-.18,1.23-.35,2.29-.53,3.52a16.62,16.62,0,0,0-.18,5.12c.18.53-.35.7-.17,1.23.17.36.53.53.53,1.06,0,.35.17.71-.18.88.88.53.7,1.77,2.12,2.3-1.06.35-1.59-.36-2.12,0s-.88-.36-1.41-.18c-.18.35,0,.7,0,1.06-1.24.17-2.29-.71-3.35-1.06-1.59-.71-3.18-1.94-5.12-2.12.53,1.41,1.06,2.65-.53,3.71-1.41-.71-1.23-2.65-2.64-3.53-.71,1.23.7,2.12.35,3.35-1.59,1.06-2.29-1.06-3.53-1.23-.35.52,0,1.05-.17,1.58.17.18-.36.36,0,.53.17,0,.17.18.35.35V353c-.53.89-.88,1.59-2.12,1.41-.88-.52-.53-1.58-1.23-2.29-1.06.88-.18,2.47-1.06,3.35-1.94.18-1.94-1.76-3-2.64.36,1.58.36,3.17,1.24,4.41.53.7.53,1.41-.18,1.76-.88,0-1.06-.88-1.59-1.06a5.6,5.6,0,0,0-1.76-.17,1.34,1.34,0,0,1-.71-.36c-1.58-.53-3.35-.7-3.88-2.82a2.3,2.3,0,0,1-.53,1.94,1.25,1.25,0,0,1-1.76.53c0-.18.18-.71-.35-.71-.18,0-.53-.17-.53-.35a7.68,7.68,0,0,0-3.35-2.82Z" transform="translate(-9.37 -103.22)"/><path class="cls-1" d="M913.77,354.54a3.91,3.91,0,0,0,1.59-1.23.39.39,0,0,1,.35-.36c.53-.35.88.18,1.24.36.17.17.35.35.52.35a5.75,5.75,0,0,1,1.94,1.76c-.35-1.06-1.23-1.41-.7-2.47,1.76-.35,2.29.18,3.35,2.47a3.61,3.61,0,0,0,1.41.71c.53-1.41-1.06-2.65-.18-4.24,1.24.53,1.77,1.94,3,2.47.36-.88-.53-1.58,0-2.47.88-.35,1.59,0,2.3,0,.7.36.88.89,1.58,1.06a2.62,2.62,0,0,1,2.12.71,1.36,1.36,0,0,1,1.23,1.41c.71.18,1.41.35,1.06,1.41-.53,0-1.23.18-1.94.18l-.88-.89c-.18.53-.71.36-1.06.53a3.87,3.87,0,0,1-.17,2.47c.88.36,1.58.53,2.29.88-.18.36-.18.53-.35.89-.53,0-1.24.17-1.77.17-.35-.53-.53-1.23-1.41-.88a.64.64,0,0,0-.18.53c-.53.53-.88,0-1.41,0a2.59,2.59,0,0,0-.7.71,3.16,3.16,0,0,0-1.24.17c-.17.35-.53.53-.7.88-.53.18-.71-.53-1.24-.53-.35,0-.35.36-.7.36l-.53-.53c-.53,0-.53.35-.88.53-.18.53.53.53.35.88,0,.53-.35.18-.71.35-.35.35-.7.88-1.05,1.24-1.24.17-1.77-.53-2.47-1.06,0,.17-.18.17-.18.35-.35-.35-.35-.88-.7-1.23,0-.71.7-1.06.88-1.94-.36-1.41-1.59-2.12-2.82-3-1.06-.88-1.94-1.59-1.24-3Z" transform="translate(-9.37 -103.22)"/><path class="cls-1" d="M932.47,353.66c-.53.35-.89-.35-1.24-.53-.18.18-.35.53-.53.7-.88-.35-1.41-1.23-1.94-1.76-.53-.18-.53.35-.88.35-.53.18-.71-.7-1.41-.53,0,.89.71,1.77.53,3-.18.18-.53.36-.71.71a1.37,1.37,0,0,1-.17-.88,2.33,2.33,0,0,0-1.59-1.06c-.53-.53-.18-1.06-.53-1.41h-.53c-.18.53-.18.88.35,1.06-.17.17-.35.35-.17.7l.7.71c-.17.7-.53,1.41.18,1.94-.35.35-.88.17-1.23.17a7.75,7.75,0,0,0-.18-.88c-.35,0-.35.35-.53.35-.35,0-.53-.35-.71-.35,0-.53-.17-1.06-.17-1.59a4.43,4.43,0,0,0-2.47-1.41c-.35.18,0,.53-.18.88a9.69,9.69,0,0,0,1.06.71c0,.71.18,1.23.18,1.76-.53.36-.89,0-.89-.35a2.47,2.47,0,0,0-1.94-1.76.64.64,0,0,1-.17-.36c-.18-.17-.18-.35-.35-.53-.18-.35-.36-.52-.53-.88h-.36l-.17.18h-.36l-.17-.18v-.17c-.18-.71,0-1.59-.53-2.3.18-.17.18-.35.35-.53.35-.35.53.18.88.18.53,0,.89.53,1.06.88.53.89,1.24.89,2.29.89-.53-1.06-.88-2.12-1.41-3.18.18-.53.89-.7,1.41-1.06a47.61,47.61,0,0,1,2.3,4.24c.7,0,.35-.71.7-.89.18-.17,0-.7.36-.7-.53-.71-.53-1.77-1.59-2.12,1.23-.88,1.94.18,2.82.18a1.84,1.84,0,0,1,1.76,1.41c.53.18.53-.35.89-.35H927a2,2,0,0,0,1.41,1.23,9.27,9.27,0,0,1,2.29,1.06c.53.35.53.35,1.24-.18.17.18.35.36.53.36.17.7-.53.88-.53,1.41s.53.53.53.88Zm-18.7.88c0,.53.18,1.06.18,1.41.53.71,1.41.88,1.94,1.59.53.53,1.23,1.06,1.76,1.59,0,.53.53.88.53,1.58-.53.53-.88,1.24-1.59,1.41-.88-.7-1.05-1.76-2.29-2.11a1.4,1.4,0,0,0-.71.17,2.2,2.2,0,0,1-.7.53c1.06.71.35,1.77,1.23,2.47a.65.65,0,0,0-.53.18c-.35-.35,0-1.06-.52-1.06-.36-.35-.89,0-1.24-.18-.7-.17-.35-1.23-.88-1.41-.35-.17-.35.36-.71.18h-.7a2.48,2.48,0,0,1-2.47-.35v-.36c-.88-.53-1.76-1.05-1.24-2.29.71,0,1.41-.17,2.3-.17a3.12,3.12,0,0,1,.7,1.58c.71,0,.71-.35.88-.7-1.05-1.24-1.05-1.24-1.58-4.24-.18-.17-.53-.35-.71-.53.53-.52,0-1.05.18-1.58h.88a2.55,2.55,0,0,1,1.06,2.47c.53.35.88,1.06,1.94,1.06a9,9,0,0,1-.18-2.12c0-.53.18-1.06.18-1.76.53,0,1.06-.18,1.76-.18,0,.7.18,1.41.18,1.94,0,.35.35.53.35.88ZM1105.83,260c0,.17-.17.35-.17.53a21.79,21.79,0,0,1,2.47,1.76c0,.35.17.71.17,1.06.35.35.71.53,1.06.88,0,.35.18.88.18,1.41l-.89.88a.6.6,0,0,1-.17-.35.92.92,0,0,0-.35-.7c-.53-.53-1.24-.53-1.77-1.06a4.09,4.09,0,0,0-1.76-1.24c-.36,0-.53-.53-.71-.88a2.22,2.22,0,0,0-1.06.18c.36.7,1.06,1.06,1.59,1.59,0,.53.18,1.23.18,2.11a5.09,5.09,0,0,1,1.06.88c-.53.53.7.89,0,1.59H1105a8.49,8.49,0,0,0-1.23-1.06c0-.35-.18-.7-.18-1.06-.53-.52-1.23-.35-1.59-1-.35.35-.17.53-.17.7-.53,0-.36-.35-.36-.53.18-.7-.53-1.06-.53-1.76-.17-.71-.53-.71-1.05-.71a.84.84,0,0,1,.53-1.05,1,1,0,0,0,.7-1.06c.35-.18.88-.53,1.23-.71v-.7c-.35-.18-.52,0-.88,0-.17-.18-.17-.36-.17-.71a3.16,3.16,0,0,1,2.47.71c.53,0,1-.18,1.58-.18.36.18.53.35.53.53Z" transform="translate(-9.37 -103.22)"/><path class="cls-1" d="M905.84,357.89a1.34,1.34,0,0,0,.52,1.24c.36.35.53.7.89,1.05h-.53c-.18.71-.36,1.59-.53,2.3a9.47,9.47,0,0,1,1.59,1.23.54.54,0,0,0-.18.35c0,.18.53.36.18.89h-.71c-.35-.53-.71-1.24-1.59-1.24-.35,0-.35-.17-.53-.17-.88-.89-2.11-.89-3.35-1.24a7.45,7.45,0,0,0-1.06-3.17.82.82,0,0,1,1.06-.18,2,2,0,0,0,2.47-.88,1.23,1.23,0,0,1,1.77-.53C905.66,357.54,905.84,357.71,905.84,357.89Zm-10.41-4.76a1.75,1.75,0,0,0,1.59.18,7.45,7.45,0,0,1,1.23,1.05c.18.89,0,1.77.71,2.47a10.21,10.21,0,0,0,.35,2.47,12.05,12.05,0,0,0,.88,2.3c.18.17.18.7.18,1-.18.71-.35.71-1.06.18a9.79,9.79,0,0,0-.88-1.94,2.38,2.38,0,0,0,.17-1.59c-.35-.17-.35-.53-.88-.35a4.47,4.47,0,0,0-.7-1.24c-.18-.17-.18-.53-.36-.7-.35-.35.53-.88,0-1.24-.17-.17-.17-.88-.17-1.23a.65.65,0,0,0-.53-.18,1.09,1.09,0,0,1-.53-1.23Z" transform="translate(-9.37 -103.22)"/><path class="cls-1" d="M905.48,357.54a3.55,3.55,0,0,0-1.23.17c.17.71-.71,1.06-.71,1.77-.7,0-1.41.17-2.29.17-.18,0,0-.35-.18-.52-.35-.18-.7,0-1.06,0,0-.71-.7-1.06-.88-1.59a3.39,3.39,0,0,0,1.24-.18c.17-.7.7-1.06,1.06-1.59-.36-.35-.89-.53-1.06-1,0-.53.53-.36.88-.36a8.49,8.49,0,0,1,1.23,1.24,1.88,1.88,0,0,0,.18.88,3.64,3.64,0,0,1,1.06.71A3.9,3.9,0,0,0,905,357c.18.18.53.18.53.53Zm73.9-49.38c-1.24.53-2.12,0-3-.18-1.23-.18-2.29-.7-3.53-.35-.53.17-.7-.35-1.23-.18-.35,0-.88.18-1.24-.17-.17-.18-.7,0-1.23,0-1.76.17-3.35.35-5.29.52a19,19,0,0,1,4.23-2.11,72,72,0,0,1,11.29,2.47Zm-72.13,52.38c.88.17,1.76.17,2.46.35a1.1,1.1,0,0,0,1.06.7c.18.71-.35.53-.53.71.18.53.71.35,1.06.71a.82.82,0,0,1-.17,1.05c.52.18.35.71.52,1.24-.35-.18-.53-.18-.7-.35-.35,0-.35.17-.53.35-.35-.35-.71-.18-1.06-.18-.53-.88-.35-2.29-1.76-2.82a5.14,5.14,0,0,1-.35-1.76Zm-8.12,2.11a.63.63,0,0,1,.36.18c.35.18.53.18.7-.35.53,0,.35.35.35.53,0,1.58.89,3,1.59,4.41.53.88,1.06,1.76,1.41,2.29a.88.88,0,0,1-.35,1.06.64.64,0,0,1-.53-.18,6.1,6.1,0,0,1-1.59-3.17,29.9,29.9,0,0,0-1.76-4.24c-.18,0-.18-.17-.18-.53Zm237.92-9.34V353c.53,0,.35.36.35.71C1137.22,353.48,1137.05,353.48,1137.05,353.31Zm-88.18,10.23a17.75,17.75,0,0,1-2.65-2.47c-.88-.89-1.76-1.59-2.64-2.47-2.47-2.47-4.77-5.12-7.24-7.76-1.58-1.77-3-3.53-4.58-5.29s-2.82-3.71-4.41-5.29-2.82-3.53-4.41-5.12-2.65-3.35-4.23-4.94c-1.41-1.41-2.65-3-4.06-4.23l-5.29-5.29a12.19,12.19,0,0,0-2.29-1.94c-1.06-.88-2.12-1.76-3.18-2.82-1.94-1.77-4.41-3.35-6.52-4.94a42,42,0,0,0-7.59-4.59c-2.11-1.06-4.23-1.76-6.35-2.64a55.45,55.45,0,0,0-9-2.47c-.18,0-.53.17-.71,0,1.24-1.41,3-.53,4.41-.71a16.71,16.71,0,0,0,3.18,1.06,23.07,23.07,0,0,1,3.17,1.24c.88.53,1.94.53,2.82,1.23,2.12.53,3.71,1.76,5.65,2.82,2.47,1.06,4.58,2.47,7,3.71.53.35,1.24.53,1.59,1.05.53.71,1.59.71,2.12,1.41a9.09,9.09,0,0,0,1.94,1.77,14.17,14.17,0,0,1,2.29,2.29c.7.71,1.41,1.59,2.12,2.29,1.41,1.41,2.64,2.83,3.88,4.24,1,1.06,2.11,2.11,3.17,3.35a10.18,10.18,0,0,0,1.94,1.94c1.23,1.06,2.12,2.29,3.18,3.35a7.45,7.45,0,0,1,1,1.23l1.06,1.06c1.59,1.59,3,3.18,4.59,4.94,2.47,2.82,4.76,5.64,7.23,8.64,2.47,2.82,4.76,5.82,7.23,8.82,1.06,1.41,2.29,2.65,3.35,3.88a23.38,23.38,0,0,0,2.12,2.29c.17-.35.17,0,0,.36Zm46.56,14.81a13.73,13.73,0,0,0-3.88,1.06,16.7,16.7,0,0,1-5.12.35,52.53,52.53,0,0,1-5.47-.88,31.31,31.31,0,0,1-5.64-2.12c-1.94-.88-3.7-2.11-5.64-3a2.88,2.88,0,0,1-.88-.7c-.89-.71-1.59-1.24-2.47-1.94a56.71,56.71,0,0,1-6.7-6.35l-2.12-2.12a2.35,2.35,0,0,0,.53-.7l1.06,1.06a26.49,26.49,0,0,0,3.52,2.64c1.24.88,2.47,1.41,3.53,2.29,2.12,1.59,4.59,2.65,6.7,4.06a34.56,34.56,0,0,0,4.41,2.12c1.41.7,3,1.23,4.41,1.76,1.24.53,2.47.71,3.7,1.24,1.24.35,2.65.35,3.88,1.05,1.06-.35,2.12.18,3.35,0,.89-.17,1.77-.17,2.65-.35a1.33,1.33,0,0,1,.18.53ZM1121,279.41c.35.35,1.06.35,1.59.7a11.56,11.56,0,0,1,2.64,3.18c.53,1.06.88,2.29,1.41,3.35s.53,2.29,1.41,3.17v.36c0,2.29,1.06,4.23,1.06,6.52,0,1.06.71,1.94.71,2.82a7.4,7.4,0,0,0,.35,2.83,14,14,0,0,1,.71,3.52c0,1.41.7,2.65.88,4.06l.53,4.23a2.32,2.32,0,0,0,.17,1.06h-.17C1128.23,303.39,1124.7,291.4,1121,279.41ZM1000.72,303a10.27,10.27,0,0,1,4.06,1.41c1.23.71,2.46,1.59,3.7,2.29a14.28,14.28,0,0,1,3.17,2.47c1.94,1.94,4.24,3.53,5.82,5.83,1.94,1.41,3.18,3.52,4.59,5.29a33.61,33.61,0,0,1,2.29,3.17c.53,1.06,1.41,1.76,1.94,2.82-.35.53-.7.18-.88,0a4.65,4.65,0,0,0-1.59-1.59,7.6,7.6,0,0,1-1.58-1.76l-4.06-4.06c-.88-1.05-1.94-1.94-2.82-3a52.43,52.43,0,0,0-4.41-4.41,49.31,49.31,0,0,0-4.59-4.06c-1.76-1.23-3.7-2.82-5.64-4.41Zm-72.49,24a27.41,27.41,0,0,1,2.12-6.35c.53-1.24,1.23-2.47,1.76-3.7a47.44,47.44,0,0,1,2.65-5.12,28,28,0,0,1,2.64-4.23c.71-.88,1.06-1.94,1.77-2.65l3.7-3.7h.35c.71.53-.52.7-.17,1.23a11.86,11.86,0,0,0-1.59,2.47c-1.23,1.94-2.82,3.53-4.06,5.47a47.84,47.84,0,0,0-3.17,4.94c-.88,1.76-1.94,3.53-2.82,5.11-.71,1.41-1.41,3-2.12,4.59a4.26,4.26,0,0,1-1.06,1.94Zm43.39-26.11a5.61,5.61,0,0,1-4.06.71,3.48,3.48,0,0,0-2.29-.18c-.71.18-1.59-.17-2.29.53h-.18a17.17,17.17,0,0,0-6.88,2.47c-.7-.17-1.41.71-2.29.53a32,32,0,0,1,6.35-3.53,3.54,3.54,0,0,1,1.41-.17c.35,0,.88,0,1.06-.53,1.58.53,3.17-.18,4.58-.18a41.7,41.7,0,0,1,4.59.35ZM915.71,352.6v-.35c.18-.18.18-.53.71-.35.17,0,.35,0,.35.17,0,.53.35.71.53,1.06-.18.18-.18.35-.35.35l-1.06-.53c-.18,0-.18-.17-.18-.35Zm-.35-.18v.36c-.18,0-.35,0-.35-.18S915.18,352.42,915.36,352.42Z" transform="translate(-9.37 -103.22)"/><path class="cls-1" d="M916.77,353.66c0-.18,0-.35.35-.35v.7c-.17,0-.17-.18-.35-.35Zm-.53-1.77a.91.91,0,0,1-.71.36v-.53C916.06,351.54,916.24,351.54,916.24,351.89Z" transform="translate(-9.37 -103.22)"/></svg>